<?xml version="1.0" encoding="utf-8" standalone="no"?>
<!DOCTYPE svg PUBLIC "-//W3C//DTD SVG 1.1//EN"
  "http://www.w3.org/Graphics/SVG/1.1/DTD/svg11.dtd">
<svg xmlns:xlink="http://www.w3.org/1999/xlink" width="460.8pt" height="345.6pt" viewBox="0 0 460.8 345.6" xmlns="http://www.w3.org/2000/svg" version="1.1">
 <metadata>
  <rdf:RDF xmlns:dc="http://purl.org/dc/elements/1.1/" xmlns:cc="http://creativecommons.org/ns#" xmlns:rdf="http://www.w3.org/1999/02/22-rdf-syntax-ns#">
   <cc:Work>
    <dc:type rdf:resource="http://purl.org/dc/dcmitype/StillImage"/>
    <dc:date>2025-11-20T15:40:33.165094</dc:date>
    <dc:format>image/svg+xml</dc:format>
    <dc:creator>
     <cc:Agent>
      <dc:title>Matplotlib v3.7.5, https://matplotlib.org/</dc:title>
     </cc:Agent>
    </dc:creator>
   </cc:Work>
  </rdf:RDF>
 </metadata>
 <defs>
  <style type="text/css">*{stroke-linejoin: round; stroke-linecap: butt}</style>
 </defs>
 <g id="figure_1">
  <g id="patch_1">
   <path d="M 0 345.6 
L 460.8 345.6 
L 460.8 0 
L 0 0 
z
" style="fill: #ffffff"/>
  </g>
  <g id="axes_1">
   <g id="patch_2">
    <path d="M 57.6 307.584 
L 414.72 307.584 
L 414.72 41.472 
L 57.6 41.472 
z
" style="fill: #ffffff"/>
   </g>
   <g id="matplotlib.axis_1">
    <g id="xtick_1">
     <g id="line2d_1">
      <defs>
       <path id="m6502667295" d="M 0 0 
L 0 3.5 
" style="stroke: #000000; stroke-width: 0.8"/>
      </defs>
      <g>
       <use xlink:href="#m6502667295" x="73.832727" y="307.584" style="stroke: #000000; stroke-width: 0.8"/>
      </g>
     </g>
     <g id="text_1">
      <!-- 0 -->
      <g transform="translate(70.651477 322.182437) scale(0.1 -0.1)">
       <defs>
        <path id="DejaVuSans-30" d="M 2034 4250 
Q 1547 4250 1301 3770 
Q 1056 3291 1056 2328 
Q 1056 1369 1301 889 
Q 1547 409 2034 409 
Q 2525 409 2770 889 
Q 3016 1369 3016 2328 
Q 3016 3291 2770 3770 
Q 2525 4250 2034 4250 
z
M 2034 4750 
Q 2819 4750 3233 4129 
Q 3647 3509 3647 2328 
Q 3647 1150 3233 529 
Q 2819 -91 2034 -91 
Q 1250 -91 836 529 
Q 422 1150 422 2328 
Q 422 3509 836 4129 
Q 1250 4750 2034 4750 
z
" transform="scale(0.015625)"/>
       </defs>
       <use xlink:href="#DejaVuSans-30"/>
      </g>
     </g>
    </g>
    <g id="xtick_2">
     <g id="line2d_2">
      <g>
       <use xlink:href="#m6502667295" x="129.615295" y="307.584" style="stroke: #000000; stroke-width: 0.8"/>
      </g>
     </g>
     <g id="text_2">
      <!-- 50 -->
      <g transform="translate(123.252795 322.182437) scale(0.1 -0.1)">
       <defs>
        <path id="DejaVuSans-35" d="M 691 4666 
L 3169 4666 
L 3169 4134 
L 1269 4134 
L 1269 2991 
Q 1406 3038 1543 3061 
Q 1681 3084 1819 3084 
Q 2600 3084 3056 2656 
Q 3513 2228 3513 1497 
Q 3513 744 3044 326 
Q 2575 -91 1722 -91 
Q 1428 -91 1123 -41 
Q 819 9 494 109 
L 494 744 
Q 775 591 1075 516 
Q 1375 441 1709 441 
Q 2250 441 2565 725 
Q 2881 1009 2881 1497 
Q 2881 1984 2565 2268 
Q 2250 2553 1709 2553 
Q 1456 2553 1204 2497 
Q 953 2441 691 2322 
L 691 4666 
z
" transform="scale(0.015625)"/>
       </defs>
       <use xlink:href="#DejaVuSans-35"/>
       <use xlink:href="#DejaVuSans-30" x="63.623047"/>
      </g>
     </g>
    </g>
    <g id="xtick_3">
     <g id="line2d_3">
      <g>
       <use xlink:href="#m6502667295" x="185.397863" y="307.584" style="stroke: #000000; stroke-width: 0.8"/>
      </g>
     </g>
     <g id="text_3">
      <!-- 100 -->
      <g transform="translate(175.854113 322.182437) scale(0.1 -0.1)">
       <defs>
        <path id="DejaVuSans-31" d="M 794 531 
L 1825 531 
L 1825 4091 
L 703 3866 
L 703 4441 
L 1819 4666 
L 2450 4666 
L 2450 531 
L 3481 531 
L 3481 0 
L 794 0 
L 794 531 
z
" transform="scale(0.015625)"/>
       </defs>
       <use xlink:href="#DejaVuSans-31"/>
       <use xlink:href="#DejaVuSans-30" x="63.623047"/>
       <use xlink:href="#DejaVuSans-30" x="127.246094"/>
      </g>
     </g>
    </g>
    <g id="xtick_4">
     <g id="line2d_4">
      <g>
       <use xlink:href="#m6502667295" x="241.180431" y="307.584" style="stroke: #000000; stroke-width: 0.8"/>
      </g>
     </g>
     <g id="text_4">
      <!-- 150 -->
      <g transform="translate(231.636681 322.182437) scale(0.1 -0.1)">
       <use xlink:href="#DejaVuSans-31"/>
       <use xlink:href="#DejaVuSans-35" x="63.623047"/>
       <use xlink:href="#DejaVuSans-30" x="127.246094"/>
      </g>
     </g>
    </g>
    <g id="xtick_5">
     <g id="line2d_5">
      <g>
       <use xlink:href="#m6502667295" x="296.962999" y="307.584" style="stroke: #000000; stroke-width: 0.8"/>
      </g>
     </g>
     <g id="text_5">
      <!-- 200 -->
      <g transform="translate(287.419249 322.182437) scale(0.1 -0.1)">
       <defs>
        <path id="DejaVuSans-32" d="M 1228 531 
L 3431 531 
L 3431 0 
L 469 0 
L 469 531 
Q 828 903 1448 1529 
Q 2069 2156 2228 2338 
Q 2531 2678 2651 2914 
Q 2772 3150 2772 3378 
Q 2772 3750 2511 3984 
Q 2250 4219 1831 4219 
Q 1534 4219 1204 4116 
Q 875 4013 500 3803 
L 500 4441 
Q 881 4594 1212 4672 
Q 1544 4750 1819 4750 
Q 2544 4750 2975 4387 
Q 3406 4025 3406 3419 
Q 3406 3131 3298 2873 
Q 3191 2616 2906 2266 
Q 2828 2175 2409 1742 
Q 1991 1309 1228 531 
z
" transform="scale(0.015625)"/>
       </defs>
       <use xlink:href="#DejaVuSans-32"/>
       <use xlink:href="#DejaVuSans-30" x="63.623047"/>
       <use xlink:href="#DejaVuSans-30" x="127.246094"/>
      </g>
     </g>
    </g>
    <g id="xtick_6">
     <g id="line2d_6">
      <g>
       <use xlink:href="#m6502667295" x="352.745567" y="307.584" style="stroke: #000000; stroke-width: 0.8"/>
      </g>
     </g>
     <g id="text_6">
      <!-- 250 -->
      <g transform="translate(343.201817 322.182437) scale(0.1 -0.1)">
       <use xlink:href="#DejaVuSans-32"/>
       <use xlink:href="#DejaVuSans-35" x="63.623047"/>
       <use xlink:href="#DejaVuSans-30" x="127.246094"/>
      </g>
     </g>
    </g>
    <g id="xtick_7">
     <g id="line2d_7">
      <g>
       <use xlink:href="#m6502667295" x="408.528135" y="307.584" style="stroke: #000000; stroke-width: 0.8"/>
      </g>
     </g>
     <g id="text_7">
      <!-- 300 -->
      <g transform="translate(398.984385 322.182437) scale(0.1 -0.1)">
       <defs>
        <path id="DejaVuSans-33" d="M 2597 2516 
Q 3050 2419 3304 2112 
Q 3559 1806 3559 1356 
Q 3559 666 3084 287 
Q 2609 -91 1734 -91 
Q 1441 -91 1130 -33 
Q 819 25 488 141 
L 488 750 
Q 750 597 1062 519 
Q 1375 441 1716 441 
Q 2309 441 2620 675 
Q 2931 909 2931 1356 
Q 2931 1769 2642 2001 
Q 2353 2234 1838 2234 
L 1294 2234 
L 1294 2753 
L 1863 2753 
Q 2328 2753 2575 2939 
Q 2822 3125 2822 3475 
Q 2822 3834 2567 4026 
Q 2313 4219 1838 4219 
Q 1578 4219 1281 4162 
Q 984 4106 628 3988 
L 628 4550 
Q 988 4650 1302 4700 
Q 1616 4750 1894 4750 
Q 2613 4750 3031 4423 
Q 3450 4097 3450 3541 
Q 3450 3153 3228 2886 
Q 3006 2619 2597 2516 
z
" transform="scale(0.015625)"/>
       </defs>
       <use xlink:href="#DejaVuSans-33"/>
       <use xlink:href="#DejaVuSans-30" x="63.623047"/>
       <use xlink:href="#DejaVuSans-30" x="127.246094"/>
      </g>
     </g>
    </g>
    <g id="text_8">
     <!-- Frame index -->
     <g transform="translate(205.310781 335.860562) scale(0.1 -0.1)">
      <defs>
       <path id="DejaVuSans-46" d="M 628 4666 
L 3309 4666 
L 3309 4134 
L 1259 4134 
L 1259 2759 
L 3109 2759 
L 3109 2228 
L 1259 2228 
L 1259 0 
L 628 0 
L 628 4666 
z
" transform="scale(0.015625)"/>
       <path id="DejaVuSans-72" d="M 2631 2963 
Q 2534 3019 2420 3045 
Q 2306 3072 2169 3072 
Q 1681 3072 1420 2755 
Q 1159 2438 1159 1844 
L 1159 0 
L 581 0 
L 581 3500 
L 1159 3500 
L 1159 2956 
Q 1341 3275 1631 3429 
Q 1922 3584 2338 3584 
Q 2397 3584 2469 3576 
Q 2541 3569 2628 3553 
L 2631 2963 
z
" transform="scale(0.015625)"/>
       <path id="DejaVuSans-61" d="M 2194 1759 
Q 1497 1759 1228 1600 
Q 959 1441 959 1056 
Q 959 750 1161 570 
Q 1363 391 1709 391 
Q 2188 391 2477 730 
Q 2766 1069 2766 1631 
L 2766 1759 
L 2194 1759 
z
M 3341 1997 
L 3341 0 
L 2766 0 
L 2766 531 
Q 2569 213 2275 61 
Q 1981 -91 1556 -91 
Q 1019 -91 701 211 
Q 384 513 384 1019 
Q 384 1609 779 1909 
Q 1175 2209 1959 2209 
L 2766 2209 
L 2766 2266 
Q 2766 2663 2505 2880 
Q 2244 3097 1772 3097 
Q 1472 3097 1187 3025 
Q 903 2953 641 2809 
L 641 3341 
Q 956 3463 1253 3523 
Q 1550 3584 1831 3584 
Q 2591 3584 2966 3190 
Q 3341 2797 3341 1997 
z
" transform="scale(0.015625)"/>
       <path id="DejaVuSans-6d" d="M 3328 2828 
Q 3544 3216 3844 3400 
Q 4144 3584 4550 3584 
Q 5097 3584 5394 3201 
Q 5691 2819 5691 2113 
L 5691 0 
L 5113 0 
L 5113 2094 
Q 5113 2597 4934 2840 
Q 4756 3084 4391 3084 
Q 3944 3084 3684 2787 
Q 3425 2491 3425 1978 
L 3425 0 
L 2847 0 
L 2847 2094 
Q 2847 2600 2669 2842 
Q 2491 3084 2119 3084 
Q 1678 3084 1418 2786 
Q 1159 2488 1159 1978 
L 1159 0 
L 581 0 
L 581 3500 
L 1159 3500 
L 1159 2956 
Q 1356 3278 1631 3431 
Q 1906 3584 2284 3584 
Q 2666 3584 2933 3390 
Q 3200 3197 3328 2828 
z
" transform="scale(0.015625)"/>
       <path id="DejaVuSans-65" d="M 3597 1894 
L 3597 1613 
L 953 1613 
Q 991 1019 1311 708 
Q 1631 397 2203 397 
Q 2534 397 2845 478 
Q 3156 559 3463 722 
L 3463 178 
Q 3153 47 2828 -22 
Q 2503 -91 2169 -91 
Q 1331 -91 842 396 
Q 353 884 353 1716 
Q 353 2575 817 3079 
Q 1281 3584 2069 3584 
Q 2775 3584 3186 3129 
Q 3597 2675 3597 1894 
z
M 3022 2063 
Q 3016 2534 2758 2815 
Q 2500 3097 2075 3097 
Q 1594 3097 1305 2825 
Q 1016 2553 972 2059 
L 3022 2063 
z
" transform="scale(0.015625)"/>
       <path id="DejaVuSans-20" transform="scale(0.015625)"/>
       <path id="DejaVuSans-69" d="M 603 3500 
L 1178 3500 
L 1178 0 
L 603 0 
L 603 3500 
z
M 603 4863 
L 1178 4863 
L 1178 4134 
L 603 4134 
L 603 4863 
z
" transform="scale(0.015625)"/>
       <path id="DejaVuSans-6e" d="M 3513 2113 
L 3513 0 
L 2938 0 
L 2938 2094 
Q 2938 2591 2744 2837 
Q 2550 3084 2163 3084 
Q 1697 3084 1428 2787 
Q 1159 2491 1159 1978 
L 1159 0 
L 581 0 
L 581 3500 
L 1159 3500 
L 1159 2956 
Q 1366 3272 1645 3428 
Q 1925 3584 2291 3584 
Q 2894 3584 3203 3211 
Q 3513 2838 3513 2113 
z
" transform="scale(0.015625)"/>
       <path id="DejaVuSans-64" d="M 2906 2969 
L 2906 4863 
L 3481 4863 
L 3481 0 
L 2906 0 
L 2906 525 
Q 2725 213 2448 61 
Q 2172 -91 1784 -91 
Q 1150 -91 751 415 
Q 353 922 353 1747 
Q 353 2572 751 3078 
Q 1150 3584 1784 3584 
Q 2172 3584 2448 3432 
Q 2725 3281 2906 2969 
z
M 947 1747 
Q 947 1113 1208 752 
Q 1469 391 1925 391 
Q 2381 391 2643 752 
Q 2906 1113 2906 1747 
Q 2906 2381 2643 2742 
Q 2381 3103 1925 3103 
Q 1469 3103 1208 2742 
Q 947 2381 947 1747 
z
" transform="scale(0.015625)"/>
       <path id="DejaVuSans-78" d="M 3513 3500 
L 2247 1797 
L 3578 0 
L 2900 0 
L 1881 1375 
L 863 0 
L 184 0 
L 1544 1831 
L 300 3500 
L 978 3500 
L 1906 2253 
L 2834 3500 
L 3513 3500 
z
" transform="scale(0.015625)"/>
      </defs>
      <use xlink:href="#DejaVuSans-46"/>
      <use xlink:href="#DejaVuSans-72" x="50.269531"/>
      <use xlink:href="#DejaVuSans-61" x="91.382812"/>
      <use xlink:href="#DejaVuSans-6d" x="152.662109"/>
      <use xlink:href="#DejaVuSans-65" x="250.074219"/>
      <use xlink:href="#DejaVuSans-20" x="311.597656"/>
      <use xlink:href="#DejaVuSans-69" x="343.384766"/>
      <use xlink:href="#DejaVuSans-6e" x="371.167969"/>
      <use xlink:href="#DejaVuSans-64" x="434.546875"/>
      <use xlink:href="#DejaVuSans-65" x="498.023438"/>
      <use xlink:href="#DejaVuSans-78" x="557.796875"/>
     </g>
    </g>
   </g>
   <g id="matplotlib.axis_2">
    <g id="ytick_1">
     <g id="line2d_8">
      <defs>
       <path id="mcd5aebdaad" d="M 0 0 
L -3.5 0 
" style="stroke: #000000; stroke-width: 0.8"/>
      </defs>
      <g>
       <use xlink:href="#mcd5aebdaad" x="57.6" y="307.584" style="stroke: #000000; stroke-width: 0.8"/>
      </g>
     </g>
     <g id="text_9">
      <!-- −1.00 -->
      <g transform="translate(19.954687 311.383219) scale(0.1 -0.1)">
       <defs>
        <path id="DejaVuSans-2212" d="M 678 2272 
L 4684 2272 
L 4684 1741 
L 678 1741 
L 678 2272 
z
" transform="scale(0.015625)"/>
        <path id="DejaVuSans-2e" d="M 684 794 
L 1344 794 
L 1344 0 
L 684 0 
L 684 794 
z
" transform="scale(0.015625)"/>
       </defs>
       <use xlink:href="#DejaVuSans-2212"/>
       <use xlink:href="#DejaVuSans-31" x="83.789062"/>
       <use xlink:href="#DejaVuSans-2e" x="147.412109"/>
       <use xlink:href="#DejaVuSans-30" x="179.199219"/>
       <use xlink:href="#DejaVuSans-30" x="242.822266"/>
      </g>
     </g>
    </g>
    <g id="ytick_2">
     <g id="line2d_9">
      <g>
       <use xlink:href="#mcd5aebdaad" x="57.6" y="274.32" style="stroke: #000000; stroke-width: 0.8"/>
      </g>
     </g>
     <g id="text_10">
      <!-- −0.75 -->
      <g transform="translate(19.954687 278.119219) scale(0.1 -0.1)">
       <defs>
        <path id="DejaVuSans-37" d="M 525 4666 
L 3525 4666 
L 3525 4397 
L 1831 0 
L 1172 0 
L 2766 4134 
L 525 4134 
L 525 4666 
z
" transform="scale(0.015625)"/>
       </defs>
       <use xlink:href="#DejaVuSans-2212"/>
       <use xlink:href="#DejaVuSans-30" x="83.789062"/>
       <use xlink:href="#DejaVuSans-2e" x="147.412109"/>
       <use xlink:href="#DejaVuSans-37" x="179.199219"/>
       <use xlink:href="#DejaVuSans-35" x="242.822266"/>
      </g>
     </g>
    </g>
    <g id="ytick_3">
     <g id="line2d_10">
      <g>
       <use xlink:href="#mcd5aebdaad" x="57.6" y="241.056" style="stroke: #000000; stroke-width: 0.8"/>
      </g>
     </g>
     <g id="text_11">
      <!-- −0.50 -->
      <g transform="translate(19.954687 244.855219) scale(0.1 -0.1)">
       <use xlink:href="#DejaVuSans-2212"/>
       <use xlink:href="#DejaVuSans-30" x="83.789062"/>
       <use xlink:href="#DejaVuSans-2e" x="147.412109"/>
       <use xlink:href="#DejaVuSans-35" x="179.199219"/>
       <use xlink:href="#DejaVuSans-30" x="242.822266"/>
      </g>
     </g>
    </g>
    <g id="ytick_4">
     <g id="line2d_11">
      <g>
       <use xlink:href="#mcd5aebdaad" x="57.6" y="207.792" style="stroke: #000000; stroke-width: 0.8"/>
      </g>
     </g>
     <g id="text_12">
      <!-- −0.25 -->
      <g transform="translate(19.954687 211.591219) scale(0.1 -0.1)">
       <use xlink:href="#DejaVuSans-2212"/>
       <use xlink:href="#DejaVuSans-30" x="83.789062"/>
       <use xlink:href="#DejaVuSans-2e" x="147.412109"/>
       <use xlink:href="#DejaVuSans-32" x="179.199219"/>
       <use xlink:href="#DejaVuSans-35" x="242.822266"/>
      </g>
     </g>
    </g>
    <g id="ytick_5">
     <g id="line2d_12">
      <g>
       <use xlink:href="#mcd5aebdaad" x="57.6" y="174.528" style="stroke: #000000; stroke-width: 0.8"/>
      </g>
     </g>
     <g id="text_13">
      <!-- 0.00 -->
      <g transform="translate(28.334375 178.327219) scale(0.1 -0.1)">
       <use xlink:href="#DejaVuSans-30"/>
       <use xlink:href="#DejaVuSans-2e" x="63.623047"/>
       <use xlink:href="#DejaVuSans-30" x="95.410156"/>
       <use xlink:href="#DejaVuSans-30" x="159.033203"/>
      </g>
     </g>
    </g>
    <g id="ytick_6">
     <g id="line2d_13">
      <g>
       <use xlink:href="#mcd5aebdaad" x="57.6" y="141.264" style="stroke: #000000; stroke-width: 0.8"/>
      </g>
     </g>
     <g id="text_14">
      <!-- 0.25 -->
      <g transform="translate(28.334375 145.063219) scale(0.1 -0.1)">
       <use xlink:href="#DejaVuSans-30"/>
       <use xlink:href="#DejaVuSans-2e" x="63.623047"/>
       <use xlink:href="#DejaVuSans-32" x="95.410156"/>
       <use xlink:href="#DejaVuSans-35" x="159.033203"/>
      </g>
     </g>
    </g>
    <g id="ytick_7">
     <g id="line2d_14">
      <g>
       <use xlink:href="#mcd5aebdaad" x="57.6" y="108" style="stroke: #000000; stroke-width: 0.8"/>
      </g>
     </g>
     <g id="text_15">
      <!-- 0.50 -->
      <g transform="translate(28.334375 111.799219) scale(0.1 -0.1)">
       <use xlink:href="#DejaVuSans-30"/>
       <use xlink:href="#DejaVuSans-2e" x="63.623047"/>
       <use xlink:href="#DejaVuSans-35" x="95.410156"/>
       <use xlink:href="#DejaVuSans-30" x="159.033203"/>
      </g>
     </g>
    </g>
    <g id="ytick_8">
     <g id="line2d_15">
      <g>
       <use xlink:href="#mcd5aebdaad" x="57.6" y="74.736" style="stroke: #000000; stroke-width: 0.8"/>
      </g>
     </g>
     <g id="text_16">
      <!-- 0.75 -->
      <g transform="translate(28.334375 78.535219) scale(0.1 -0.1)">
       <use xlink:href="#DejaVuSans-30"/>
       <use xlink:href="#DejaVuSans-2e" x="63.623047"/>
       <use xlink:href="#DejaVuSans-37" x="95.410156"/>
       <use xlink:href="#DejaVuSans-35" x="159.033203"/>
      </g>
     </g>
    </g>
    <g id="ytick_9">
     <g id="line2d_16">
      <g>
       <use xlink:href="#mcd5aebdaad" x="57.6" y="41.472" style="stroke: #000000; stroke-width: 0.8"/>
      </g>
     </g>
     <g id="text_17">
      <!-- 1.00 -->
      <g transform="translate(28.334375 45.271219) scale(0.1 -0.1)">
       <use xlink:href="#DejaVuSans-31"/>
       <use xlink:href="#DejaVuSans-2e" x="63.623047"/>
       <use xlink:href="#DejaVuSans-30" x="95.410156"/>
       <use xlink:href="#DejaVuSans-30" x="159.033203"/>
      </g>
     </g>
    </g>
    <g id="text_18">
     <!-- Rotation in radiant -->
     <g transform="translate(13.875 221.049875) rotate(-90) scale(0.1 -0.1)">
      <defs>
       <path id="DejaVuSans-52" d="M 2841 2188 
Q 3044 2119 3236 1894 
Q 3428 1669 3622 1275 
L 4263 0 
L 3584 0 
L 2988 1197 
Q 2756 1666 2539 1819 
Q 2322 1972 1947 1972 
L 1259 1972 
L 1259 0 
L 628 0 
L 628 4666 
L 2053 4666 
Q 2853 4666 3247 4331 
Q 3641 3997 3641 3322 
Q 3641 2881 3436 2590 
Q 3231 2300 2841 2188 
z
M 1259 4147 
L 1259 2491 
L 2053 2491 
Q 2509 2491 2742 2702 
Q 2975 2913 2975 3322 
Q 2975 3731 2742 3939 
Q 2509 4147 2053 4147 
L 1259 4147 
z
" transform="scale(0.015625)"/>
       <path id="DejaVuSans-6f" d="M 1959 3097 
Q 1497 3097 1228 2736 
Q 959 2375 959 1747 
Q 959 1119 1226 758 
Q 1494 397 1959 397 
Q 2419 397 2687 759 
Q 2956 1122 2956 1747 
Q 2956 2369 2687 2733 
Q 2419 3097 1959 3097 
z
M 1959 3584 
Q 2709 3584 3137 3096 
Q 3566 2609 3566 1747 
Q 3566 888 3137 398 
Q 2709 -91 1959 -91 
Q 1206 -91 779 398 
Q 353 888 353 1747 
Q 353 2609 779 3096 
Q 1206 3584 1959 3584 
z
" transform="scale(0.015625)"/>
       <path id="DejaVuSans-74" d="M 1172 4494 
L 1172 3500 
L 2356 3500 
L 2356 3053 
L 1172 3053 
L 1172 1153 
Q 1172 725 1289 603 
Q 1406 481 1766 481 
L 2356 481 
L 2356 0 
L 1766 0 
Q 1100 0 847 248 
Q 594 497 594 1153 
L 594 3053 
L 172 3053 
L 172 3500 
L 594 3500 
L 594 4494 
L 1172 4494 
z
" transform="scale(0.015625)"/>
      </defs>
      <use xlink:href="#DejaVuSans-52"/>
      <use xlink:href="#DejaVuSans-6f" x="64.982422"/>
      <use xlink:href="#DejaVuSans-74" x="126.164062"/>
      <use xlink:href="#DejaVuSans-61" x="165.373047"/>
      <use xlink:href="#DejaVuSans-74" x="226.652344"/>
      <use xlink:href="#DejaVuSans-69" x="265.861328"/>
      <use xlink:href="#DejaVuSans-6f" x="293.644531"/>
      <use xlink:href="#DejaVuSans-6e" x="354.826172"/>
      <use xlink:href="#DejaVuSans-20" x="418.205078"/>
      <use xlink:href="#DejaVuSans-69" x="449.992188"/>
      <use xlink:href="#DejaVuSans-6e" x="477.775391"/>
      <use xlink:href="#DejaVuSans-20" x="541.154297"/>
      <use xlink:href="#DejaVuSans-72" x="572.941406"/>
      <use xlink:href="#DejaVuSans-61" x="614.054688"/>
      <use xlink:href="#DejaVuSans-64" x="675.333984"/>
      <use xlink:href="#DejaVuSans-69" x="738.810547"/>
      <use xlink:href="#DejaVuSans-61" x="766.59375"/>
      <use xlink:href="#DejaVuSans-6e" x="827.873047"/>
      <use xlink:href="#DejaVuSans-74" x="891.251953"/>
     </g>
    </g>
   </g>
   <g id="line2d_17">
    <path d="M 73.832727 150.16783 
L 74.948379 152.118772 
L 77.179681 152.104435 
L 78.295333 152.658844 
L 79.410984 153.882147 
L 80.526635 154.208066 
L 81.642287 154.324121 
L 82.757938 155.282507 
L 83.87359 156.440367 
L 84.989241 157.152809 
L 86.104892 158.140527 
L 89.451846 162.165609 
L 90.567498 162.641798 
L 91.683149 162.577885 
L 92.7988 162.756626 
L 93.914452 162.493869 
L 95.030103 162.926043 
L 96.145754 162.485747 
L 97.261406 162.383514 
L 98.377057 163.336762 
L 99.492709 164.137173 
L 100.60836 166.495485 
L 101.724011 171.244924 
L 102.839663 174.433584 
L 105.070965 180.000491 
L 107.302268 186.849222 
L 110.649222 200.416189 
L 112.880525 211.528104 
L 116.227479 228.286286 
L 118.458782 236.804845 
L 120.690084 245.555403 
L 122.921387 253.277413 
L 126.268341 263.499769 
L 128.499644 268.613956 
L 129.615295 272.279662 
L 131.846598 285.572338 
L 132.962249 290.611509 
L 134.077901 294.24688 
L 135.193552 297.237869 
L 136.309203 300.850757 
L 138.540506 312.518294 
L 139.656157 315.94465 
L 140.771809 317.555085 
L 144.118763 321.362784 
L 145.234414 321.862818 
L 146.350066 321.87078 
L 147.465717 319.980437 
L 148.581368 317.461074 
L 149.69702 316.603014 
L 150.812671 316.866014 
L 151.928322 314.898235 
L 153.043974 304.514702 
L 154.159625 296.586215 
L 155.275276 291.671684 
L 157.506579 280.393365 
L 158.622231 273.566872 
L 163.084836 249.190735 
L 164.200487 243.082348 
L 166.43179 233.086511 
L 167.547441 229.288432 
L 168.663093 217.167363 
L 170.894396 204.369358 
L 172.010047 198.691153 
L 174.24135 188.954059 
L 175.357001 184.340418 
L 176.472652 180.549669 
L 177.588304 176.24155 
L 182.050909 161.219979 
L 183.16656 157.890522 
L 185.397863 154.073733 
L 186.513515 152.548934 
L 187.629166 151.544597 
L 190.97612 149.821095 
L 192.091771 149.545335 
L 193.207423 149.46964 
L 195.438725 148.996033 
L 196.554377 148.414976 
L 197.670028 147.290577 
L 198.785679 145.517375 
L 199.901331 144.995036 
L 201.016982 144.925513 
L 202.132634 145.216064 
L 203.248285 145.942821 
L 204.363936 148.816651 
L 205.479588 149.430535 
L 207.71089 149.390437 
L 208.826542 151.175587 
L 209.942193 155.007617 
L 211.057844 160.445732 
L 212.173496 162.832154 
L 214.404799 168.668903 
L 215.52045 170.87499 
L 216.636101 172.507906 
L 217.751753 172.840364 
L 218.867404 172.725307 
L 219.983055 172.846371 
L 221.098707 174.133545 
L 222.214358 175.930676 
L 223.330009 178.22052 
L 224.445661 182.016476 
L 225.561312 185.15425 
L 226.676963 187.572052 
L 227.792615 190.924408 
L 228.908266 194.70842 
L 230.023918 199.696657 
L 237.833477 240.093373 
L 240.06478 254.519655 
L 243.411734 270.452853 
L 244.527385 280.601111 
L 245.643037 289.619712 
L 246.758688 297.659952 
L 247.874339 303.993858 
L 250.105642 312.881221 
L 251.221293 316.326595 
L 255.683899 325.888977 
L 257.915201 334.905104 
L 260.581818 346.6 
M 266.776761 346.6 
L 269.071715 332.657465 
L 270.187366 324.327046 
L 272.418669 304.29594 
L 273.534321 294.373106 
L 274.649972 286.893198 
L 275.765623 278.353638 
L 276.881275 258.268579 
L 277.996926 244.594346 
L 279.112577 233.779928 
L 280.228229 224.914517 
L 281.34388 221.085136 
L 282.459531 213.642495 
L 283.575183 207.444784 
L 284.690834 202.312948 
L 285.806485 198.368974 
L 286.922137 194.97352 
L 288.037788 192.79253 
L 289.15344 189.857132 
L 291.384742 184.858214 
L 292.500394 183.62156 
L 293.616045 182.657943 
L 294.731696 182.082972 
L 295.847348 179.886159 
L 298.07865 172.229039 
L 299.194302 168.657865 
L 300.309953 166.274396 
L 301.425604 164.686636 
L 302.541256 165.207132 
L 303.656907 165.375844 
L 304.772559 166.980165 
L 305.88821 171.337914 
L 307.003861 173.246726 
L 308.119513 172.243492 
L 309.235164 167.777118 
L 310.350815 162.458609 
L 313.697769 141.81307 
L 314.813421 136.534403 
L 315.929072 129.365979 
L 317.044724 124.75254 
L 320.391678 107.828973 
L 323.738632 81.614511 
L 325.969934 64.443029 
L 327.085586 59.757816 
L 328.201237 53.821352 
L 329.316888 42.098752 
L 330.43254 34.049638 
L 332.663843 24.462972 
L 333.779494 20.280307 
L 334.895145 14.352749 
L 336.010797 5.325662 
L 337.081989 -1 
M 346.7993 -1 
L 347.16731 0.491771 
L 348.282962 3.302685 
L 349.398613 5.020058 
L 350.514264 7.054408 
L 351.629916 8.746784 
L 352.745567 9.515242 
L 356.092521 14.196989 
L 357.208172 16.735228 
L 358.323824 21.378971 
L 359.439475 25.295098 
L 360.555127 29.731373 
L 361.670778 34.922766 
L 362.786429 38.380243 
L 363.902081 55.888369 
L 365.017732 68.642015 
L 366.133383 79.078565 
L 367.249035 87.165612 
L 368.364686 94.323333 
L 369.480337 100.69069 
L 370.595989 105.366204 
L 371.71164 111.688388 
L 372.827291 116.944009 
L 373.942943 121.657126 
L 376.174246 126.874453 
L 378.405548 127.899079 
L 379.5212 129.416224 
L 380.636851 131.143249 
L 381.752502 134.211357 
L 382.868154 139.545247 
L 385.099456 152.197427 
L 386.215108 156.771617 
L 387.330759 151.143987 
L 388.44641 152.95914 
L 390.677713 160.564571 
L 391.793365 162.37872 
L 392.909016 163.967805 
L 394.024667 164.959923 
L 395.140319 163.877466 
L 396.25597 161.439932 
L 397.371621 158.617403 
L 398.487273 157.735097 
L 398.487273 157.735097 
" clip-path="url(#p4e87923d17)" style="fill: none; stroke-dasharray: 1.5,2.475; stroke-dashoffset: 0; stroke: #000000; stroke-width: 1.5"/>
   </g>
   <g id="line2d_18">
    <path d="M 73.832727 222.560562 
L 74.948379 220.60962 
L 77.179681 220.623955 
L 78.295333 220.069547 
L 79.410984 218.846244 
L 80.526635 218.520326 
L 81.642287 218.404271 
L 82.757938 217.445883 
L 83.87359 216.28802 
L 84.989241 215.575581 
L 86.104892 214.587864 
L 89.451846 210.56278 
L 90.567498 210.08659 
L 91.683149 210.150504 
L 92.7988 209.971764 
L 93.914452 210.234522 
L 95.030103 209.802347 
L 96.145754 210.242643 
L 97.261406 210.344875 
L 98.377057 209.391625 
L 99.492709 208.591214 
L 100.60836 206.232901 
L 101.724011 201.483461 
L 102.839663 198.294801 
L 105.070965 192.727893 
L 107.302268 185.879162 
L 110.649222 172.312193 
L 112.880525 161.20028 
L 116.227479 144.4421 
L 118.458782 135.92354 
L 120.690084 127.172982 
L 122.921387 119.450976 
L 126.268341 109.228621 
L 128.499644 104.114429 
L 129.615295 100.448723 
L 131.846598 87.156047 
L 132.962249 82.116877 
L 134.077901 78.481506 
L 135.193552 75.490516 
L 136.309203 71.877629 
L 138.540506 60.210091 
L 139.656157 56.783743 
L 140.771809 55.173316 
L 144.118763 51.365618 
L 145.234414 50.865583 
L 146.350066 50.857629 
L 147.465717 52.74798 
L 148.581368 55.267335 
L 149.69702 56.125388 
L 150.812671 55.86238 
L 151.928322 57.830151 
L 153.043974 68.213683 
L 154.159625 76.142171 
L 155.275276 81.056701 
L 157.506579 92.335021 
L 158.622231 99.161514 
L 163.084836 123.537651 
L 164.200487 129.646038 
L 166.43179 139.641875 
L 167.547441 143.439955 
L 168.663093 155.561025 
L 170.894396 168.35903 
L 172.010047 174.037235 
L 174.24135 183.774327 
L 175.357001 188.387969 
L 176.472652 192.178717 
L 177.588304 196.486837 
L 182.050909 211.508408 
L 183.16656 214.837866 
L 185.397863 218.654657 
L 186.513515 220.179456 
L 187.629166 221.183795 
L 190.97612 222.907299 
L 192.091771 223.183059 
L 193.207423 223.258754 
L 195.438725 223.732359 
L 196.554377 224.313418 
L 197.670028 225.437816 
L 198.785679 227.211018 
L 199.901331 227.733358 
L 201.016982 227.802879 
L 202.132634 227.512327 
L 203.248285 226.785573 
L 204.363936 223.911745 
L 205.479588 223.29786 
L 207.71089 223.337962 
L 208.826542 221.552813 
L 209.942193 217.720783 
L 211.057844 212.282667 
L 212.173496 209.896248 
L 214.404799 204.059497 
L 215.52045 201.853411 
L 216.636101 200.220496 
L 217.751753 199.888038 
L 218.867404 200.003096 
L 219.983055 199.882033 
L 221.098707 198.594859 
L 222.214358 196.797728 
L 223.330009 194.507883 
L 224.445661 190.711927 
L 225.561312 187.574153 
L 226.676963 185.156352 
L 227.792615 181.803995 
L 228.908266 178.019983 
L 230.023918 173.031745 
L 237.833477 132.635029 
L 240.06478 118.208746 
L 243.411734 102.275549 
L 244.527385 92.127291 
L 245.643037 83.108689 
L 246.758688 75.068449 
L 247.874339 68.734543 
L 250.105642 59.84718 
L 251.221293 56.401806 
L 255.683899 46.839416 
L 257.915201 37.823281 
L 261.262156 23.418951 
L 262.377807 19.522793 
L 264.60911 15.658295 
L 265.724761 19.862991 
L 269.071715 40.070921 
L 270.187366 48.401331 
L 272.418669 68.432437 
L 273.534321 78.355272 
L 274.649972 85.83518 
L 275.765623 94.37474 
L 276.881275 114.459799 
L 277.996926 128.134031 
L 279.112577 138.948449 
L 280.228229 147.81386 
L 281.34388 151.64325 
L 282.459531 159.085891 
L 283.575183 165.283602 
L 284.690834 170.415437 
L 285.806485 174.359411 
L 286.922137 177.754864 
L 288.037788 179.935854 
L 289.15344 182.871253 
L 291.384742 187.870171 
L 292.500394 189.106825 
L 293.616045 190.070441 
L 294.731696 190.645412 
L 295.847348 192.842224 
L 298.07865 200.499345 
L 299.194302 204.070519 
L 300.309953 206.453986 
L 301.425604 208.041747 
L 302.541256 207.521252 
L 303.656907 207.352539 
L 304.772559 205.748219 
L 305.88821 201.390469 
L 307.003861 199.481657 
L 308.119513 200.484891 
L 309.235164 204.951265 
L 310.350815 210.269774 
L 313.697769 230.915316 
L 314.813421 236.193983 
L 315.929072 243.362406 
L 317.044724 247.975846 
L 320.391678 264.899412 
L 323.738632 291.113875 
L 325.969934 308.285348 
L 327.085586 312.970553 
L 328.201237 318.907025 
L 329.316888 330.629634 
L 330.43254 338.678748 
L 332.276347 346.6 
M 359.649033 346.6 
L 360.555127 342.997013 
L 361.670778 337.805619 
L 362.786429 334.348143 
L 363.902081 316.840017 
L 365.017732 304.08637 
L 366.133383 293.649821 
L 367.249035 285.562774 
L 368.364686 278.405053 
L 369.480337 272.037695 
L 370.595989 267.362182 
L 371.71164 261.039997 
L 372.827291 255.784381 
L 373.942943 251.071267 
L 376.174246 245.853941 
L 378.405548 244.829311 
L 379.5212 243.312165 
L 380.636851 241.58514 
L 381.752502 238.517032 
L 382.868154 233.183147 
L 385.099456 220.530967 
L 386.215108 215.956776 
L 387.330759 221.584405 
L 388.44641 219.769253 
L 390.677713 212.163821 
L 391.793365 210.349673 
L 392.909016 208.760587 
L 394.024667 207.768469 
L 395.140319 208.850926 
L 396.25597 211.28846 
L 397.371621 214.110988 
L 398.487273 214.993293 
L 398.487273 214.993293 
" clip-path="url(#p4e87923d17)" style="fill: none; stroke: #000000; stroke-width: 1.5; stroke-linecap: square"/>
   </g>
   <g id="line2d_19">
    <path d="M 57.6 174.528 
L 414.72 174.528 
" clip-path="url(#p4e87923d17)" style="fill: none; stroke-dasharray: 5.55,2.4; stroke-dashoffset: 0; stroke: #000000; stroke-width: 1.5"/>
   </g>
   <g id="patch_3">
    <path d="M 57.6 307.584 
L 57.6 41.472 
" style="fill: none; stroke: #000000; stroke-width: 0.8; stroke-linejoin: miter; stroke-linecap: square"/>
   </g>
   <g id="patch_4">
    <path d="M 414.72 307.584 
L 414.72 41.472 
" style="fill: none; stroke: #000000; stroke-width: 0.8; stroke-linejoin: miter; stroke-linecap: square"/>
   </g>
   <g id="patch_5">
    <path d="M 57.6 307.584 
L 414.72 307.584 
" style="fill: none; stroke: #000000; stroke-width: 0.8; stroke-linejoin: miter; stroke-linecap: square"/>
   </g>
   <g id="patch_6">
    <path d="M 57.6 41.472 
L 414.72 41.472 
" style="fill: none; stroke: #000000; stroke-width: 0.8; stroke-linejoin: miter; stroke-linecap: square"/>
   </g>
   <g id="text_19">
    <!-- X axis -->
    <g transform="translate(218.1225 35.472) scale(0.12 -0.12)">
     <defs>
      <path id="DejaVuSans-58" d="M 403 4666 
L 1081 4666 
L 2241 2931 
L 3406 4666 
L 4084 4666 
L 2584 2425 
L 4184 0 
L 3506 0 
L 2194 1984 
L 872 0 
L 191 0 
L 1856 2491 
L 403 4666 
z
" transform="scale(0.015625)"/>
      <path id="DejaVuSans-73" d="M 2834 3397 
L 2834 2853 
Q 2591 2978 2328 3040 
Q 2066 3103 1784 3103 
Q 1356 3103 1142 2972 
Q 928 2841 928 2578 
Q 928 2378 1081 2264 
Q 1234 2150 1697 2047 
L 1894 2003 
Q 2506 1872 2764 1633 
Q 3022 1394 3022 966 
Q 3022 478 2636 193 
Q 2250 -91 1575 -91 
Q 1294 -91 989 -36 
Q 684 19 347 128 
L 347 722 
Q 666 556 975 473 
Q 1284 391 1588 391 
Q 1994 391 2212 530 
Q 2431 669 2431 922 
Q 2431 1156 2273 1281 
Q 2116 1406 1581 1522 
L 1381 1569 
Q 847 1681 609 1914 
Q 372 2147 372 2553 
Q 372 3047 722 3315 
Q 1072 3584 1716 3584 
Q 2034 3584 2315 3537 
Q 2597 3491 2834 3397 
z
" transform="scale(0.015625)"/>
     </defs>
     <use xlink:href="#DejaVuSans-58"/>
     <use xlink:href="#DejaVuSans-20" x="68.505859"/>
     <use xlink:href="#DejaVuSans-61" x="100.292969"/>
     <use xlink:href="#DejaVuSans-78" x="161.572266"/>
     <use xlink:href="#DejaVuSans-69" x="220.751953"/>
     <use xlink:href="#DejaVuSans-73" x="248.535156"/>
    </g>
   </g>
   <g id="legend_1">
    <g id="patch_7">
     <path d="M 330.977813 78.82825 
L 407.72 78.82825 
Q 409.72 78.82825 409.72 76.82825 
L 409.72 48.472 
Q 409.72 46.472 407.72 46.472 
L 330.977813 46.472 
Q 328.977813 46.472 328.977813 48.472 
L 328.977813 76.82825 
Q 328.977813 78.82825 330.977813 78.82825 
z
" style="fill: #ffffff; opacity: 0.8; stroke: #cccccc; stroke-linejoin: miter"/>
    </g>
    <g id="line2d_20">
     <path d="M 332.977813 54.570437 
L 342.977813 54.570437 
L 352.977813 54.570437 
" style="fill: none; stroke-dasharray: 1.5,2.475; stroke-dashoffset: 0; stroke: #000000; stroke-width: 1.5"/>
    </g>
    <g id="text_20">
     <!-- Bone: 5 -->
     <g transform="translate(360.977813 58.070437) scale(0.1 -0.1)">
      <defs>
       <path id="DejaVuSans-42" d="M 1259 2228 
L 1259 519 
L 2272 519 
Q 2781 519 3026 730 
Q 3272 941 3272 1375 
Q 3272 1813 3026 2020 
Q 2781 2228 2272 2228 
L 1259 2228 
z
M 1259 4147 
L 1259 2741 
L 2194 2741 
Q 2656 2741 2882 2914 
Q 3109 3088 3109 3444 
Q 3109 3797 2882 3972 
Q 2656 4147 2194 4147 
L 1259 4147 
z
M 628 4666 
L 2241 4666 
Q 2963 4666 3353 4366 
Q 3744 4066 3744 3513 
Q 3744 3084 3544 2831 
Q 3344 2578 2956 2516 
Q 3422 2416 3680 2098 
Q 3938 1781 3938 1306 
Q 3938 681 3513 340 
Q 3088 0 2303 0 
L 628 0 
L 628 4666 
z
" transform="scale(0.015625)"/>
       <path id="DejaVuSans-3a" d="M 750 794 
L 1409 794 
L 1409 0 
L 750 0 
L 750 794 
z
M 750 3309 
L 1409 3309 
L 1409 2516 
L 750 2516 
L 750 3309 
z
" transform="scale(0.015625)"/>
      </defs>
      <use xlink:href="#DejaVuSans-42"/>
      <use xlink:href="#DejaVuSans-6f" x="68.603516"/>
      <use xlink:href="#DejaVuSans-6e" x="129.785156"/>
      <use xlink:href="#DejaVuSans-65" x="193.164062"/>
      <use xlink:href="#DejaVuSans-3a" x="254.6875"/>
      <use xlink:href="#DejaVuSans-20" x="288.378906"/>
      <use xlink:href="#DejaVuSans-35" x="320.166016"/>
     </g>
    </g>
    <g id="line2d_21">
     <path d="M 332.977813 69.248562 
L 342.977813 69.248562 
L 352.977813 69.248562 
" style="fill: none; stroke: #000000; stroke-width: 1.5; stroke-linecap: square"/>
    </g>
    <g id="text_21">
     <!-- Bone: 18 -->
     <g transform="translate(360.977813 72.748562) scale(0.1 -0.1)">
      <defs>
       <path id="DejaVuSans-38" d="M 2034 2216 
Q 1584 2216 1326 1975 
Q 1069 1734 1069 1313 
Q 1069 891 1326 650 
Q 1584 409 2034 409 
Q 2484 409 2743 651 
Q 3003 894 3003 1313 
Q 3003 1734 2745 1975 
Q 2488 2216 2034 2216 
z
M 1403 2484 
Q 997 2584 770 2862 
Q 544 3141 544 3541 
Q 544 4100 942 4425 
Q 1341 4750 2034 4750 
Q 2731 4750 3128 4425 
Q 3525 4100 3525 3541 
Q 3525 3141 3298 2862 
Q 3072 2584 2669 2484 
Q 3125 2378 3379 2068 
Q 3634 1759 3634 1313 
Q 3634 634 3220 271 
Q 2806 -91 2034 -91 
Q 1263 -91 848 271 
Q 434 634 434 1313 
Q 434 1759 690 2068 
Q 947 2378 1403 2484 
z
M 1172 3481 
Q 1172 3119 1398 2916 
Q 1625 2713 2034 2713 
Q 2441 2713 2670 2916 
Q 2900 3119 2900 3481 
Q 2900 3844 2670 4047 
Q 2441 4250 2034 4250 
Q 1625 4250 1398 4047 
Q 1172 3844 1172 3481 
z
" transform="scale(0.015625)"/>
      </defs>
      <use xlink:href="#DejaVuSans-42"/>
      <use xlink:href="#DejaVuSans-6f" x="68.603516"/>
      <use xlink:href="#DejaVuSans-6e" x="129.785156"/>
      <use xlink:href="#DejaVuSans-65" x="193.164062"/>
      <use xlink:href="#DejaVuSans-3a" x="254.6875"/>
      <use xlink:href="#DejaVuSans-20" x="288.378906"/>
      <use xlink:href="#DejaVuSans-31" x="320.166016"/>
      <use xlink:href="#DejaVuSans-38" x="383.789062"/>
     </g>
    </g>
   </g>
  </g>
 </g>
 <defs>
  <clipPath id="p4e87923d17">
   <rect x="57.6" y="41.472" width="357.12" height="266.112"/>
  </clipPath>
 </defs>
</svg>
