<?xml version="1.0" encoding="utf-8" standalone="no"?>
<!DOCTYPE svg PUBLIC "-//W3C//DTD SVG 1.1//EN"
  "http://www.w3.org/Graphics/SVG/1.1/DTD/svg11.dtd">
<svg xmlns:xlink="http://www.w3.org/1999/xlink" width="460.8pt" height="345.6pt" viewBox="0 0 460.8 345.6" xmlns="http://www.w3.org/2000/svg" version="1.1">
 <metadata>
  <rdf:RDF xmlns:dc="http://purl.org/dc/elements/1.1/" xmlns:cc="http://creativecommons.org/ns#" xmlns:rdf="http://www.w3.org/1999/02/22-rdf-syntax-ns#">
   <cc:Work>
    <dc:type rdf:resource="http://purl.org/dc/dcmitype/StillImage"/>
    <dc:date>2025-11-26T21:39:42.232969</dc:date>
    <dc:format>image/svg+xml</dc:format>
    <dc:creator>
     <cc:Agent>
      <dc:title>Matplotlib v3.7.5, https://matplotlib.org/</dc:title>
     </cc:Agent>
    </dc:creator>
   </cc:Work>
  </rdf:RDF>
 </metadata>
 <defs>
  <style type="text/css">*{stroke-linejoin: round; stroke-linecap: butt}</style>
 </defs>
 <g id="figure_1">
  <g id="patch_1">
   <path d="M 0 345.6 
L 460.8 345.6 
L 460.8 0 
L 0 0 
z
" style="fill: #ffffff"/>
  </g>
  <g id="axes_1">
   <g id="patch_2">
    <path d="M 57.6 307.584 
L 414.72 307.584 
L 414.72 41.472 
L 57.6 41.472 
z
" style="fill: #ffffff"/>
   </g>
   <g id="matplotlib.axis_1">
    <g id="xtick_1">
     <g id="line2d_1">
      <defs>
       <path id="mcf9a7d8894" d="M 0 0 
L 0 3.5 
" style="stroke: #000000; stroke-width: 0.8"/>
      </defs>
      <g>
       <use xlink:href="#mcf9a7d8894" x="73.832727" y="307.584" style="stroke: #000000; stroke-width: 0.8"/>
      </g>
     </g>
     <g id="text_1">
      <!-- 0 -->
      <g transform="translate(70.651477 322.182437) scale(0.1 -0.1)">
       <defs>
        <path id="DejaVuSans-30" d="M 2034 4250 
Q 1547 4250 1301 3770 
Q 1056 3291 1056 2328 
Q 1056 1369 1301 889 
Q 1547 409 2034 409 
Q 2525 409 2770 889 
Q 3016 1369 3016 2328 
Q 3016 3291 2770 3770 
Q 2525 4250 2034 4250 
z
M 2034 4750 
Q 2819 4750 3233 4129 
Q 3647 3509 3647 2328 
Q 3647 1150 3233 529 
Q 2819 -91 2034 -91 
Q 1250 -91 836 529 
Q 422 1150 422 2328 
Q 422 3509 836 4129 
Q 1250 4750 2034 4750 
z
" transform="scale(0.015625)"/>
       </defs>
       <use xlink:href="#DejaVuSans-30"/>
      </g>
     </g>
    </g>
    <g id="xtick_2">
     <g id="line2d_2">
      <g>
       <use xlink:href="#mcf9a7d8894" x="121.505935" y="307.584" style="stroke: #000000; stroke-width: 0.8"/>
      </g>
     </g>
     <g id="text_2">
      <!-- 100 -->
      <g transform="translate(111.962185 322.182437) scale(0.1 -0.1)">
       <defs>
        <path id="DejaVuSans-31" d="M 794 531 
L 1825 531 
L 1825 4091 
L 703 3866 
L 703 4441 
L 1819 4666 
L 2450 4666 
L 2450 531 
L 3481 531 
L 3481 0 
L 794 0 
L 794 531 
z
" transform="scale(0.015625)"/>
       </defs>
       <use xlink:href="#DejaVuSans-31"/>
       <use xlink:href="#DejaVuSans-30" x="63.623047"/>
       <use xlink:href="#DejaVuSans-30" x="127.246094"/>
      </g>
     </g>
    </g>
    <g id="xtick_3">
     <g id="line2d_3">
      <g>
       <use xlink:href="#mcf9a7d8894" x="169.179143" y="307.584" style="stroke: #000000; stroke-width: 0.8"/>
      </g>
     </g>
     <g id="text_3">
      <!-- 200 -->
      <g transform="translate(159.635393 322.182437) scale(0.1 -0.1)">
       <defs>
        <path id="DejaVuSans-32" d="M 1228 531 
L 3431 531 
L 3431 0 
L 469 0 
L 469 531 
Q 828 903 1448 1529 
Q 2069 2156 2228 2338 
Q 2531 2678 2651 2914 
Q 2772 3150 2772 3378 
Q 2772 3750 2511 3984 
Q 2250 4219 1831 4219 
Q 1534 4219 1204 4116 
Q 875 4013 500 3803 
L 500 4441 
Q 881 4594 1212 4672 
Q 1544 4750 1819 4750 
Q 2544 4750 2975 4387 
Q 3406 4025 3406 3419 
Q 3406 3131 3298 2873 
Q 3191 2616 2906 2266 
Q 2828 2175 2409 1742 
Q 1991 1309 1228 531 
z
" transform="scale(0.015625)"/>
       </defs>
       <use xlink:href="#DejaVuSans-32"/>
       <use xlink:href="#DejaVuSans-30" x="63.623047"/>
       <use xlink:href="#DejaVuSans-30" x="127.246094"/>
      </g>
     </g>
    </g>
    <g id="xtick_4">
     <g id="line2d_4">
      <g>
       <use xlink:href="#mcf9a7d8894" x="216.852351" y="307.584" style="stroke: #000000; stroke-width: 0.8"/>
      </g>
     </g>
     <g id="text_4">
      <!-- 300 -->
      <g transform="translate(207.308601 322.182437) scale(0.1 -0.1)">
       <defs>
        <path id="DejaVuSans-33" d="M 2597 2516 
Q 3050 2419 3304 2112 
Q 3559 1806 3559 1356 
Q 3559 666 3084 287 
Q 2609 -91 1734 -91 
Q 1441 -91 1130 -33 
Q 819 25 488 141 
L 488 750 
Q 750 597 1062 519 
Q 1375 441 1716 441 
Q 2309 441 2620 675 
Q 2931 909 2931 1356 
Q 2931 1769 2642 2001 
Q 2353 2234 1838 2234 
L 1294 2234 
L 1294 2753 
L 1863 2753 
Q 2328 2753 2575 2939 
Q 2822 3125 2822 3475 
Q 2822 3834 2567 4026 
Q 2313 4219 1838 4219 
Q 1578 4219 1281 4162 
Q 984 4106 628 3988 
L 628 4550 
Q 988 4650 1302 4700 
Q 1616 4750 1894 4750 
Q 2613 4750 3031 4423 
Q 3450 4097 3450 3541 
Q 3450 3153 3228 2886 
Q 3006 2619 2597 2516 
z
" transform="scale(0.015625)"/>
       </defs>
       <use xlink:href="#DejaVuSans-33"/>
       <use xlink:href="#DejaVuSans-30" x="63.623047"/>
       <use xlink:href="#DejaVuSans-30" x="127.246094"/>
      </g>
     </g>
    </g>
    <g id="xtick_5">
     <g id="line2d_5">
      <g>
       <use xlink:href="#mcf9a7d8894" x="264.525559" y="307.584" style="stroke: #000000; stroke-width: 0.8"/>
      </g>
     </g>
     <g id="text_5">
      <!-- 400 -->
      <g transform="translate(254.981809 322.182437) scale(0.1 -0.1)">
       <defs>
        <path id="DejaVuSans-34" d="M 2419 4116 
L 825 1625 
L 2419 1625 
L 2419 4116 
z
M 2253 4666 
L 3047 4666 
L 3047 1625 
L 3713 1625 
L 3713 1100 
L 3047 1100 
L 3047 0 
L 2419 0 
L 2419 1100 
L 313 1100 
L 313 1709 
L 2253 4666 
z
" transform="scale(0.015625)"/>
       </defs>
       <use xlink:href="#DejaVuSans-34"/>
       <use xlink:href="#DejaVuSans-30" x="63.623047"/>
       <use xlink:href="#DejaVuSans-30" x="127.246094"/>
      </g>
     </g>
    </g>
    <g id="xtick_6">
     <g id="line2d_6">
      <g>
       <use xlink:href="#mcf9a7d8894" x="312.198767" y="307.584" style="stroke: #000000; stroke-width: 0.8"/>
      </g>
     </g>
     <g id="text_6">
      <!-- 500 -->
      <g transform="translate(302.655017 322.182437) scale(0.1 -0.1)">
       <defs>
        <path id="DejaVuSans-35" d="M 691 4666 
L 3169 4666 
L 3169 4134 
L 1269 4134 
L 1269 2991 
Q 1406 3038 1543 3061 
Q 1681 3084 1819 3084 
Q 2600 3084 3056 2656 
Q 3513 2228 3513 1497 
Q 3513 744 3044 326 
Q 2575 -91 1722 -91 
Q 1428 -91 1123 -41 
Q 819 9 494 109 
L 494 744 
Q 775 591 1075 516 
Q 1375 441 1709 441 
Q 2250 441 2565 725 
Q 2881 1009 2881 1497 
Q 2881 1984 2565 2268 
Q 2250 2553 1709 2553 
Q 1456 2553 1204 2497 
Q 953 2441 691 2322 
L 691 4666 
z
" transform="scale(0.015625)"/>
       </defs>
       <use xlink:href="#DejaVuSans-35"/>
       <use xlink:href="#DejaVuSans-30" x="63.623047"/>
       <use xlink:href="#DejaVuSans-30" x="127.246094"/>
      </g>
     </g>
    </g>
    <g id="xtick_7">
     <g id="line2d_7">
      <g>
       <use xlink:href="#mcf9a7d8894" x="359.871974" y="307.584" style="stroke: #000000; stroke-width: 0.8"/>
      </g>
     </g>
     <g id="text_7">
      <!-- 600 -->
      <g transform="translate(350.328224 322.182437) scale(0.1 -0.1)">
       <defs>
        <path id="DejaVuSans-36" d="M 2113 2584 
Q 1688 2584 1439 2293 
Q 1191 2003 1191 1497 
Q 1191 994 1439 701 
Q 1688 409 2113 409 
Q 2538 409 2786 701 
Q 3034 994 3034 1497 
Q 3034 2003 2786 2293 
Q 2538 2584 2113 2584 
z
M 3366 4563 
L 3366 3988 
Q 3128 4100 2886 4159 
Q 2644 4219 2406 4219 
Q 1781 4219 1451 3797 
Q 1122 3375 1075 2522 
Q 1259 2794 1537 2939 
Q 1816 3084 2150 3084 
Q 2853 3084 3261 2657 
Q 3669 2231 3669 1497 
Q 3669 778 3244 343 
Q 2819 -91 2113 -91 
Q 1303 -91 875 529 
Q 447 1150 447 2328 
Q 447 3434 972 4092 
Q 1497 4750 2381 4750 
Q 2619 4750 2861 4703 
Q 3103 4656 3366 4563 
z
" transform="scale(0.015625)"/>
       </defs>
       <use xlink:href="#DejaVuSans-36"/>
       <use xlink:href="#DejaVuSans-30" x="63.623047"/>
       <use xlink:href="#DejaVuSans-30" x="127.246094"/>
      </g>
     </g>
    </g>
    <g id="xtick_8">
     <g id="line2d_8">
      <g>
       <use xlink:href="#mcf9a7d8894" x="407.545182" y="307.584" style="stroke: #000000; stroke-width: 0.8"/>
      </g>
     </g>
     <g id="text_8">
      <!-- 700 -->
      <g transform="translate(398.001432 322.182437) scale(0.1 -0.1)">
       <defs>
        <path id="DejaVuSans-37" d="M 525 4666 
L 3525 4666 
L 3525 4397 
L 1831 0 
L 1172 0 
L 2766 4134 
L 525 4134 
L 525 4666 
z
" transform="scale(0.015625)"/>
       </defs>
       <use xlink:href="#DejaVuSans-37"/>
       <use xlink:href="#DejaVuSans-30" x="63.623047"/>
       <use xlink:href="#DejaVuSans-30" x="127.246094"/>
      </g>
     </g>
    </g>
    <g id="text_9">
     <!-- Frame index -->
     <g transform="translate(205.310781 335.860562) scale(0.1 -0.1)">
      <defs>
       <path id="DejaVuSans-46" d="M 628 4666 
L 3309 4666 
L 3309 4134 
L 1259 4134 
L 1259 2759 
L 3109 2759 
L 3109 2228 
L 1259 2228 
L 1259 0 
L 628 0 
L 628 4666 
z
" transform="scale(0.015625)"/>
       <path id="DejaVuSans-72" d="M 2631 2963 
Q 2534 3019 2420 3045 
Q 2306 3072 2169 3072 
Q 1681 3072 1420 2755 
Q 1159 2438 1159 1844 
L 1159 0 
L 581 0 
L 581 3500 
L 1159 3500 
L 1159 2956 
Q 1341 3275 1631 3429 
Q 1922 3584 2338 3584 
Q 2397 3584 2469 3576 
Q 2541 3569 2628 3553 
L 2631 2963 
z
" transform="scale(0.015625)"/>
       <path id="DejaVuSans-61" d="M 2194 1759 
Q 1497 1759 1228 1600 
Q 959 1441 959 1056 
Q 959 750 1161 570 
Q 1363 391 1709 391 
Q 2188 391 2477 730 
Q 2766 1069 2766 1631 
L 2766 1759 
L 2194 1759 
z
M 3341 1997 
L 3341 0 
L 2766 0 
L 2766 531 
Q 2569 213 2275 61 
Q 1981 -91 1556 -91 
Q 1019 -91 701 211 
Q 384 513 384 1019 
Q 384 1609 779 1909 
Q 1175 2209 1959 2209 
L 2766 2209 
L 2766 2266 
Q 2766 2663 2505 2880 
Q 2244 3097 1772 3097 
Q 1472 3097 1187 3025 
Q 903 2953 641 2809 
L 641 3341 
Q 956 3463 1253 3523 
Q 1550 3584 1831 3584 
Q 2591 3584 2966 3190 
Q 3341 2797 3341 1997 
z
" transform="scale(0.015625)"/>
       <path id="DejaVuSans-6d" d="M 3328 2828 
Q 3544 3216 3844 3400 
Q 4144 3584 4550 3584 
Q 5097 3584 5394 3201 
Q 5691 2819 5691 2113 
L 5691 0 
L 5113 0 
L 5113 2094 
Q 5113 2597 4934 2840 
Q 4756 3084 4391 3084 
Q 3944 3084 3684 2787 
Q 3425 2491 3425 1978 
L 3425 0 
L 2847 0 
L 2847 2094 
Q 2847 2600 2669 2842 
Q 2491 3084 2119 3084 
Q 1678 3084 1418 2786 
Q 1159 2488 1159 1978 
L 1159 0 
L 581 0 
L 581 3500 
L 1159 3500 
L 1159 2956 
Q 1356 3278 1631 3431 
Q 1906 3584 2284 3584 
Q 2666 3584 2933 3390 
Q 3200 3197 3328 2828 
z
" transform="scale(0.015625)"/>
       <path id="DejaVuSans-65" d="M 3597 1894 
L 3597 1613 
L 953 1613 
Q 991 1019 1311 708 
Q 1631 397 2203 397 
Q 2534 397 2845 478 
Q 3156 559 3463 722 
L 3463 178 
Q 3153 47 2828 -22 
Q 2503 -91 2169 -91 
Q 1331 -91 842 396 
Q 353 884 353 1716 
Q 353 2575 817 3079 
Q 1281 3584 2069 3584 
Q 2775 3584 3186 3129 
Q 3597 2675 3597 1894 
z
M 3022 2063 
Q 3016 2534 2758 2815 
Q 2500 3097 2075 3097 
Q 1594 3097 1305 2825 
Q 1016 2553 972 2059 
L 3022 2063 
z
" transform="scale(0.015625)"/>
       <path id="DejaVuSans-20" transform="scale(0.015625)"/>
       <path id="DejaVuSans-69" d="M 603 3500 
L 1178 3500 
L 1178 0 
L 603 0 
L 603 3500 
z
M 603 4863 
L 1178 4863 
L 1178 4134 
L 603 4134 
L 603 4863 
z
" transform="scale(0.015625)"/>
       <path id="DejaVuSans-6e" d="M 3513 2113 
L 3513 0 
L 2938 0 
L 2938 2094 
Q 2938 2591 2744 2837 
Q 2550 3084 2163 3084 
Q 1697 3084 1428 2787 
Q 1159 2491 1159 1978 
L 1159 0 
L 581 0 
L 581 3500 
L 1159 3500 
L 1159 2956 
Q 1366 3272 1645 3428 
Q 1925 3584 2291 3584 
Q 2894 3584 3203 3211 
Q 3513 2838 3513 2113 
z
" transform="scale(0.015625)"/>
       <path id="DejaVuSans-64" d="M 2906 2969 
L 2906 4863 
L 3481 4863 
L 3481 0 
L 2906 0 
L 2906 525 
Q 2725 213 2448 61 
Q 2172 -91 1784 -91 
Q 1150 -91 751 415 
Q 353 922 353 1747 
Q 353 2572 751 3078 
Q 1150 3584 1784 3584 
Q 2172 3584 2448 3432 
Q 2725 3281 2906 2969 
z
M 947 1747 
Q 947 1113 1208 752 
Q 1469 391 1925 391 
Q 2381 391 2643 752 
Q 2906 1113 2906 1747 
Q 2906 2381 2643 2742 
Q 2381 3103 1925 3103 
Q 1469 3103 1208 2742 
Q 947 2381 947 1747 
z
" transform="scale(0.015625)"/>
       <path id="DejaVuSans-78" d="M 3513 3500 
L 2247 1797 
L 3578 0 
L 2900 0 
L 1881 1375 
L 863 0 
L 184 0 
L 1544 1831 
L 300 3500 
L 978 3500 
L 1906 2253 
L 2834 3500 
L 3513 3500 
z
" transform="scale(0.015625)"/>
      </defs>
      <use xlink:href="#DejaVuSans-46"/>
      <use xlink:href="#DejaVuSans-72" x="50.269531"/>
      <use xlink:href="#DejaVuSans-61" x="91.382812"/>
      <use xlink:href="#DejaVuSans-6d" x="152.662109"/>
      <use xlink:href="#DejaVuSans-65" x="250.074219"/>
      <use xlink:href="#DejaVuSans-20" x="311.597656"/>
      <use xlink:href="#DejaVuSans-69" x="343.384766"/>
      <use xlink:href="#DejaVuSans-6e" x="371.167969"/>
      <use xlink:href="#DejaVuSans-64" x="434.546875"/>
      <use xlink:href="#DejaVuSans-65" x="498.023438"/>
      <use xlink:href="#DejaVuSans-78" x="557.796875"/>
     </g>
    </g>
   </g>
   <g id="matplotlib.axis_2">
    <g id="ytick_1">
     <g id="line2d_9">
      <defs>
       <path id="m4a3aa93d21" d="M 0 0 
L -3.5 0 
" style="stroke: #000000; stroke-width: 0.8"/>
      </defs>
      <g>
       <use xlink:href="#m4a3aa93d21" x="57.6" y="307.584" style="stroke: #000000; stroke-width: 0.8"/>
      </g>
     </g>
     <g id="text_10">
      <!-- −1.00 -->
      <g transform="translate(19.954687 311.383219) scale(0.1 -0.1)">
       <defs>
        <path id="DejaVuSans-2212" d="M 678 2272 
L 4684 2272 
L 4684 1741 
L 678 1741 
L 678 2272 
z
" transform="scale(0.015625)"/>
        <path id="DejaVuSans-2e" d="M 684 794 
L 1344 794 
L 1344 0 
L 684 0 
L 684 794 
z
" transform="scale(0.015625)"/>
       </defs>
       <use xlink:href="#DejaVuSans-2212"/>
       <use xlink:href="#DejaVuSans-31" x="83.789062"/>
       <use xlink:href="#DejaVuSans-2e" x="147.412109"/>
       <use xlink:href="#DejaVuSans-30" x="179.199219"/>
       <use xlink:href="#DejaVuSans-30" x="242.822266"/>
      </g>
     </g>
    </g>
    <g id="ytick_2">
     <g id="line2d_10">
      <g>
       <use xlink:href="#m4a3aa93d21" x="57.6" y="274.32" style="stroke: #000000; stroke-width: 0.8"/>
      </g>
     </g>
     <g id="text_11">
      <!-- −0.75 -->
      <g transform="translate(19.954687 278.119219) scale(0.1 -0.1)">
       <use xlink:href="#DejaVuSans-2212"/>
       <use xlink:href="#DejaVuSans-30" x="83.789062"/>
       <use xlink:href="#DejaVuSans-2e" x="147.412109"/>
       <use xlink:href="#DejaVuSans-37" x="179.199219"/>
       <use xlink:href="#DejaVuSans-35" x="242.822266"/>
      </g>
     </g>
    </g>
    <g id="ytick_3">
     <g id="line2d_11">
      <g>
       <use xlink:href="#m4a3aa93d21" x="57.6" y="241.056" style="stroke: #000000; stroke-width: 0.8"/>
      </g>
     </g>
     <g id="text_12">
      <!-- −0.50 -->
      <g transform="translate(19.954687 244.855219) scale(0.1 -0.1)">
       <use xlink:href="#DejaVuSans-2212"/>
       <use xlink:href="#DejaVuSans-30" x="83.789062"/>
       <use xlink:href="#DejaVuSans-2e" x="147.412109"/>
       <use xlink:href="#DejaVuSans-35" x="179.199219"/>
       <use xlink:href="#DejaVuSans-30" x="242.822266"/>
      </g>
     </g>
    </g>
    <g id="ytick_4">
     <g id="line2d_12">
      <g>
       <use xlink:href="#m4a3aa93d21" x="57.6" y="207.792" style="stroke: #000000; stroke-width: 0.8"/>
      </g>
     </g>
     <g id="text_13">
      <!-- −0.25 -->
      <g transform="translate(19.954687 211.591219) scale(0.1 -0.1)">
       <use xlink:href="#DejaVuSans-2212"/>
       <use xlink:href="#DejaVuSans-30" x="83.789062"/>
       <use xlink:href="#DejaVuSans-2e" x="147.412109"/>
       <use xlink:href="#DejaVuSans-32" x="179.199219"/>
       <use xlink:href="#DejaVuSans-35" x="242.822266"/>
      </g>
     </g>
    </g>
    <g id="ytick_5">
     <g id="line2d_13">
      <g>
       <use xlink:href="#m4a3aa93d21" x="57.6" y="174.528" style="stroke: #000000; stroke-width: 0.8"/>
      </g>
     </g>
     <g id="text_14">
      <!-- 0.00 -->
      <g transform="translate(28.334375 178.327219) scale(0.1 -0.1)">
       <use xlink:href="#DejaVuSans-30"/>
       <use xlink:href="#DejaVuSans-2e" x="63.623047"/>
       <use xlink:href="#DejaVuSans-30" x="95.410156"/>
       <use xlink:href="#DejaVuSans-30" x="159.033203"/>
      </g>
     </g>
    </g>
    <g id="ytick_6">
     <g id="line2d_14">
      <g>
       <use xlink:href="#m4a3aa93d21" x="57.6" y="141.264" style="stroke: #000000; stroke-width: 0.8"/>
      </g>
     </g>
     <g id="text_15">
      <!-- 0.25 -->
      <g transform="translate(28.334375 145.063219) scale(0.1 -0.1)">
       <use xlink:href="#DejaVuSans-30"/>
       <use xlink:href="#DejaVuSans-2e" x="63.623047"/>
       <use xlink:href="#DejaVuSans-32" x="95.410156"/>
       <use xlink:href="#DejaVuSans-35" x="159.033203"/>
      </g>
     </g>
    </g>
    <g id="ytick_7">
     <g id="line2d_15">
      <g>
       <use xlink:href="#m4a3aa93d21" x="57.6" y="108" style="stroke: #000000; stroke-width: 0.8"/>
      </g>
     </g>
     <g id="text_16">
      <!-- 0.50 -->
      <g transform="translate(28.334375 111.799219) scale(0.1 -0.1)">
       <use xlink:href="#DejaVuSans-30"/>
       <use xlink:href="#DejaVuSans-2e" x="63.623047"/>
       <use xlink:href="#DejaVuSans-35" x="95.410156"/>
       <use xlink:href="#DejaVuSans-30" x="159.033203"/>
      </g>
     </g>
    </g>
    <g id="ytick_8">
     <g id="line2d_16">
      <g>
       <use xlink:href="#m4a3aa93d21" x="57.6" y="74.736" style="stroke: #000000; stroke-width: 0.8"/>
      </g>
     </g>
     <g id="text_17">
      <!-- 0.75 -->
      <g transform="translate(28.334375 78.535219) scale(0.1 -0.1)">
       <use xlink:href="#DejaVuSans-30"/>
       <use xlink:href="#DejaVuSans-2e" x="63.623047"/>
       <use xlink:href="#DejaVuSans-37" x="95.410156"/>
       <use xlink:href="#DejaVuSans-35" x="159.033203"/>
      </g>
     </g>
    </g>
    <g id="ytick_9">
     <g id="line2d_17">
      <g>
       <use xlink:href="#m4a3aa93d21" x="57.6" y="41.472" style="stroke: #000000; stroke-width: 0.8"/>
      </g>
     </g>
     <g id="text_18">
      <!-- 1.00 -->
      <g transform="translate(28.334375 45.271219) scale(0.1 -0.1)">
       <use xlink:href="#DejaVuSans-31"/>
       <use xlink:href="#DejaVuSans-2e" x="63.623047"/>
       <use xlink:href="#DejaVuSans-30" x="95.410156"/>
       <use xlink:href="#DejaVuSans-30" x="159.033203"/>
      </g>
     </g>
    </g>
    <g id="text_19">
     <!-- Rotation in radiant -->
     <g transform="translate(13.875 221.049875) rotate(-90) scale(0.1 -0.1)">
      <defs>
       <path id="DejaVuSans-52" d="M 2841 2188 
Q 3044 2119 3236 1894 
Q 3428 1669 3622 1275 
L 4263 0 
L 3584 0 
L 2988 1197 
Q 2756 1666 2539 1819 
Q 2322 1972 1947 1972 
L 1259 1972 
L 1259 0 
L 628 0 
L 628 4666 
L 2053 4666 
Q 2853 4666 3247 4331 
Q 3641 3997 3641 3322 
Q 3641 2881 3436 2590 
Q 3231 2300 2841 2188 
z
M 1259 4147 
L 1259 2491 
L 2053 2491 
Q 2509 2491 2742 2702 
Q 2975 2913 2975 3322 
Q 2975 3731 2742 3939 
Q 2509 4147 2053 4147 
L 1259 4147 
z
" transform="scale(0.015625)"/>
       <path id="DejaVuSans-6f" d="M 1959 3097 
Q 1497 3097 1228 2736 
Q 959 2375 959 1747 
Q 959 1119 1226 758 
Q 1494 397 1959 397 
Q 2419 397 2687 759 
Q 2956 1122 2956 1747 
Q 2956 2369 2687 2733 
Q 2419 3097 1959 3097 
z
M 1959 3584 
Q 2709 3584 3137 3096 
Q 3566 2609 3566 1747 
Q 3566 888 3137 398 
Q 2709 -91 1959 -91 
Q 1206 -91 779 398 
Q 353 888 353 1747 
Q 353 2609 779 3096 
Q 1206 3584 1959 3584 
z
" transform="scale(0.015625)"/>
       <path id="DejaVuSans-74" d="M 1172 4494 
L 1172 3500 
L 2356 3500 
L 2356 3053 
L 1172 3053 
L 1172 1153 
Q 1172 725 1289 603 
Q 1406 481 1766 481 
L 2356 481 
L 2356 0 
L 1766 0 
Q 1100 0 847 248 
Q 594 497 594 1153 
L 594 3053 
L 172 3053 
L 172 3500 
L 594 3500 
L 594 4494 
L 1172 4494 
z
" transform="scale(0.015625)"/>
      </defs>
      <use xlink:href="#DejaVuSans-52"/>
      <use xlink:href="#DejaVuSans-6f" x="64.982422"/>
      <use xlink:href="#DejaVuSans-74" x="126.164062"/>
      <use xlink:href="#DejaVuSans-61" x="165.373047"/>
      <use xlink:href="#DejaVuSans-74" x="226.652344"/>
      <use xlink:href="#DejaVuSans-69" x="265.861328"/>
      <use xlink:href="#DejaVuSans-6f" x="293.644531"/>
      <use xlink:href="#DejaVuSans-6e" x="354.826172"/>
      <use xlink:href="#DejaVuSans-20" x="418.205078"/>
      <use xlink:href="#DejaVuSans-69" x="449.992188"/>
      <use xlink:href="#DejaVuSans-6e" x="477.775391"/>
      <use xlink:href="#DejaVuSans-20" x="541.154297"/>
      <use xlink:href="#DejaVuSans-72" x="572.941406"/>
      <use xlink:href="#DejaVuSans-61" x="614.054688"/>
      <use xlink:href="#DejaVuSans-64" x="675.333984"/>
      <use xlink:href="#DejaVuSans-69" x="738.810547"/>
      <use xlink:href="#DejaVuSans-61" x="766.59375"/>
      <use xlink:href="#DejaVuSans-6e" x="827.873047"/>
      <use xlink:href="#DejaVuSans-74" x="891.251953"/>
     </g>
    </g>
   </g>
   <g id="line2d_18">
    <path d="M 73.832727 104.860039 
L 125.796524 104.954764 
L 126.273256 105.142736 
L 126.749988 105.561637 
L 127.22672 106.33842 
L 127.703452 107.570601 
L 128.180184 109.29758 
L 129.133648 114.095381 
L 131.040577 124.925693 
L 131.994041 128.87922 
L 132.947505 132.031044 
L 134.377701 135.853737 
L 135.807897 139.765001 
L 140.098486 152.441102 
L 143.435611 160.775252 
L 143.912343 161.372116 
L 144.389075 161.687733 
L 145.342539 161.830386 
L 145.819271 161.889412 
L 146.296003 162.078006 
L 146.772735 162.442541 
L 148.679664 164.356204 
L 149.156396 164.503584 
L 149.633128 164.471223 
L 150.586592 164.049918 
L 151.540056 163.557143 
L 153.446984 162.841169 
L 153.923716 162.419988 
L 154.877181 161.103685 
L 155.830645 159.06611 
L 157.260841 155.060947 
L 159.167769 149.289924 
L 160.121233 145.618672 
L 162.981626 132.922126 
L 164.888554 125.428099 
L 165.365286 124.129232 
L 165.842018 123.236613 
L 166.795483 122.20351 
L 167.748947 121.5943 
L 168.225679 121.446539 
L 168.702411 121.453165 
L 169.179143 121.645471 
L 169.655875 122.039679 
L 170.132607 122.642701 
L 170.609339 123.467413 
L 171.086071 124.5409 
L 172.039535 127.546135 
L 172.993 131.680122 
L 174.423196 139.393506 
L 175.853392 147.12672 
L 177.283588 153.586506 
L 178.713785 158.860955 
L 181.097445 166.774266 
L 183.004373 172.032255 
L 184.434569 175.243884 
L 185.864766 177.819556 
L 186.81823 179.24488 
L 187.771694 180.206213 
L 188.248426 180.45836 
L 189.20189 180.593909 
L 191.585551 180.448391 
L 192.539015 180.856649 
L 193.969211 181.909097 
L 194.445943 182.053754 
L 194.922675 181.887079 
L 195.399407 181.339534 
L 196.352871 179.318536 
L 197.783068 175.857995 
L 199.689996 172.017738 
L 201.596924 168.483084 
L 203.027121 166.382468 
L 203.503853 165.888423 
L 204.457317 165.375459 
L 205.410781 164.986099 
L 206.364245 164.284241 
L 207.317709 163.198326 
L 208.747905 160.985921 
L 211.131566 157.16709 
L 213.515226 153.533832 
L 214.945423 150.786178 
L 216.852351 146.425891 
L 218.282547 143.265257 
L 219.712743 140.741272 
L 221.14294 138.382393 
L 221.619672 137.783027 
L 222.096404 137.419582 
L 222.573136 137.354581 
L 223.049868 137.61685 
L 223.5266 138.203021 
L 224.480064 140.183297 
L 225.91026 143.611796 
L 226.863724 145.150757 
L 228.770653 147.912025 
L 230.200849 150.132706 
L 230.677581 151.280621 
L 231.631045 154.715563 
L 232.584509 159.520203 
L 233.061241 162.762029 
L 233.537974 167.163881 
L 234.491438 179.938048 
L 235.444902 192.379095 
L 235.921634 196.047004 
L 236.398366 197.880383 
L 236.875098 198.367641 
L 237.35183 198.023212 
L 237.828562 197.209104 
L 238.782026 194.920607 
L 241.165687 188.795393 
L 243.549347 183.852297 
L 245.456276 180.167867 
L 246.40974 178.638419 
L 247.363204 177.424 
L 248.316668 176.499655 
L 249.270132 175.844842 
L 250.700328 174.997626 
L 251.17706 174.495844 
L 251.653793 173.795392 
L 252.607257 171.738332 
L 254.514185 166.823473 
L 255.467649 164.825272 
L 255.944381 163.539915 
L 257.85131 157.207802 
L 258.328042 156.653528 
L 258.804774 156.690845 
L 259.758238 157.269489 
L 260.23497 157.255957 
L 260.711702 156.930015 
L 261.665166 155.665184 
L 263.572095 152.766362 
L 264.525559 151.797476 
L 265.002291 151.550401 
L 265.479023 151.47791 
L 265.955755 151.565754 
L 266.909219 152.071686 
L 268.339415 153.189288 
L 269.769612 154.550107 
L 270.723076 155.794978 
L 271.67654 157.647982 
L 272.630004 160.140984 
L 273.583468 163.401252 
L 274.536932 167.646943 
L 275.967129 174.435127 
L 276.920593 177.55557 
L 277.397325 178.444336 
L 277.874057 178.871795 
L 278.350789 178.910323 
L 279.304253 178.353381 
L 281.211181 176.931093 
L 282.164646 175.789678 
L 282.641378 174.919904 
L 283.594842 172.398978 
L 285.50177 166.119212 
L 286.455234 163.974269 
L 286.931966 163.288389 
L 287.885431 162.493426 
L 289.315627 161.74629 
L 290.269091 160.919831 
L 291.699287 159.101758 
L 292.652751 157.991937 
L 293.606215 157.268654 
L 295.036412 156.618594 
L 296.466608 156.018035 
L 298.373536 154.848763 
L 298.850268 154.764077 
L 299.803732 154.988242 
L 300.280465 155.093643 
L 300.757197 154.981322 
L 301.233929 154.56122 
L 303.140857 151.85595 
L 303.617589 151.619305 
L 304.094321 151.675384 
L 305.047785 152.364737 
L 306.001249 153.012201 
L 306.477982 153.112342 
L 306.954714 153.056364 
L 309.338374 152.244527 
L 309.815106 152.32388 
L 310.291838 152.548664 
L 310.76857 152.923502 
L 311.722034 154.076357 
L 313.628963 157.139892 
L 315.059159 159.638535 
L 316.012623 161.680062 
L 316.966087 164.462025 
L 318.396284 169.920414 
L 319.82648 175.379102 
L 320.779944 177.980466 
L 321.733408 179.62846 
L 322.686872 180.868393 
L 323.163604 181.35006 
L 323.640336 181.632857 
L 324.117068 181.647066 
L 324.593801 181.388934 
L 325.547265 180.315344 
L 326.977461 178.188024 
L 330.314586 172.941267 
L 331.744782 170.98649 
L 332.698246 170.095242 
L 333.65171 169.547166 
L 336.988835 168.082929 
L 337.942299 167.013885 
L 340.325959 163.676308 
L 341.279423 162.306501 
L 343.663084 157.901941 
L 344.616548 157.096499 
L 345.09328 156.715272 
L 345.570012 156.189029 
L 346.046744 155.451867 
L 347.000208 153.370614 
L 348.430404 149.383391 
L 350.337333 144.006697 
L 351.290797 141.75636 
L 352.244261 139.985617 
L 353.197725 138.625908 
L 353.674457 138.201803 
L 354.151189 138.116418 
L 354.627922 138.503203 
L 355.104654 139.439051 
L 355.581386 140.933462 
L 356.53485 145.412227 
L 359.395242 162.732151 
L 360.348706 169.178989 
L 361.302171 177.168672 
L 363.685831 198.508247 
L 364.639295 204.643339 
L 365.592759 208.688418 
L 366.069491 209.91565 
L 366.546223 210.60551 
L 367.022956 210.769773 
L 367.499688 210.44058 
L 367.97642 209.670222 
L 368.453152 208.525776 
L 369.406616 205.410351 
L 370.836812 199.581998 
L 372.74374 191.649552 
L 373.697205 188.852303 
L 374.650669 186.981638 
L 376.557597 183.60502 
L 381.324918 174.222371 
L 381.80165 173.638838 
L 382.278382 173.35927 
L 382.755114 173.446607 
L 383.231846 173.878561 
L 384.18531 175.089566 
L 384.662042 175.322593 
L 385.138775 175.019232 
L 385.615507 174.146259 
L 386.092239 172.77147 
L 387.045703 168.776587 
L 387.999167 163.482339 
L 390.382827 149.385853 
L 391.336292 144.854416 
L 392.289756 141.305567 
L 392.766488 139.926921 
L 393.24322 138.893277 
L 393.719952 138.310688 
L 394.196684 138.257043 
L 394.673416 138.719563 
L 395.150148 139.599258 
L 396.103612 142.240675 
L 398.010541 149.381203 
L 398.487273 150.307836 
L 398.487273 150.307836 
" clip-path="url(#p74c7c38696)" style="fill: none; stroke-dasharray: 1.5,2.475; stroke-dashoffset: 0; stroke: #000000; stroke-width: 1.5"/>
   </g>
   <g id="line2d_19">
    <path d="M 73.832727 244.195961 
L 125.796524 244.138144 
L 126.273256 244.007316 
L 126.749988 243.68328 
L 127.22672 243.017541 
L 127.703452 241.86505 
L 128.180184 240.151912 
L 129.133648 235.295484 
L 132.470773 215.570719 
L 132.947505 213.88865 
L 133.424237 212.779011 
L 133.900969 212.208678 
L 134.377701 212.133612 
L 134.854433 212.472622 
L 136.28463 214.215534 
L 136.761362 214.500926 
L 137.238094 214.553209 
L 137.714826 214.364102 
L 138.191558 213.891948 
L 138.66829 213.089217 
L 139.621754 210.541021 
L 141.528682 203.863615 
L 142.958879 198.208012 
L 144.389075 192.517706 
L 145.342539 189.765916 
L 145.819271 188.816161 
L 146.296003 188.172565 
L 146.772735 187.842129 
L 147.249467 187.814418 
L 147.726199 188.056667 
L 148.202932 188.515349 
L 149.156396 189.855545 
L 150.10986 191.712943 
L 150.586592 192.98935 
L 151.063324 194.617894 
L 152.016788 199.180553 
L 154.400449 213.552904 
L 154.877181 215.053164 
L 156.307377 218.01052 
L 157.260841 221.097961 
L 158.691037 227.388851 
L 159.644501 231.463209 
L 160.597966 234.511166 
L 161.074698 235.525818 
L 161.55143 236.219283 
L 162.028162 236.648487 
L 162.504894 236.880413 
L 164.411822 237.226223 
L 164.888554 237.511583 
L 165.842018 238.456592 
L 167.272215 240.038386 
L 168.225679 240.722636 
L 169.655875 241.278903 
L 171.086071 241.620597 
L 171.562803 241.593168 
L 172.039535 241.432931 
L 172.516268 241.125046 
L 173.469732 240.123749 
L 174.423196 238.717437 
L 175.853392 235.950295 
L 180.620713 225.966905 
L 182.050909 223.224461 
L 183.004373 220.71701 
L 183.957837 217.07812 
L 184.911302 212.077621 
L 187.294962 196.97457 
L 190.155354 179.307371 
L 191.108819 174.60212 
L 192.062283 170.995548 
L 193.015747 168.285781 
L 193.969211 166.141214 
L 194.445943 165.411704 
L 194.922675 165.154644 
L 195.399407 165.541352 
L 195.876139 166.57589 
L 199.213264 176.761025 
L 202.073656 183.867413 
L 204.457317 190.086187 
L 205.410781 191.985793 
L 206.364245 193.154356 
L 206.840977 193.449498 
L 207.317709 193.556107 
L 207.794441 193.490816 
L 208.747905 192.979935 
L 210.178102 191.748513 
L 211.608298 190.256671 
L 213.038494 188.434999 
L 213.991958 186.92118 
L 214.945423 184.952945 
L 215.898887 182.341874 
L 216.852351 179.029312 
L 219.712743 167.81307 
L 220.666207 165.341456 
L 221.619672 163.630355 
L 222.573136 162.042028 
L 223.5266 159.907409 
L 225.433528 154.8757 
L 226.386992 152.964582 
L 227.340457 151.6429 
L 227.817189 151.300151 
L 228.293921 151.296927 
L 228.770653 151.762206 
L 229.247385 152.801244 
L 229.724117 154.461549 
L 230.200849 156.737217 
L 231.154313 162.929981 
L 232.584509 173.517523 
L 233.061241 176.088383 
L 233.537974 177.849532 
L 234.014706 178.931668 
L 234.491438 179.586586 
L 235.444902 180.384772 
L 236.398366 180.903353 
L 238.305294 181.787096 
L 239.735491 182.709354 
L 240.688955 183.574325 
L 245.933008 189.003536 
L 248.7934 191.862984 
L 250.700328 194.201203 
L 251.653793 194.8288 
L 252.607257 194.970606 
L 253.560721 195.07696 
L 254.037453 195.352086 
L 254.514185 195.841861 
L 255.467649 197.417402 
L 257.85131 202.576604 
L 258.328042 203.033812 
L 258.804774 203.252981 
L 262.61863 203.950272 
L 265.002291 204.035013 
L 266.432487 204.335678 
L 266.909219 204.289262 
L 267.385951 204.051274 
L 267.862683 203.556345 
L 268.339415 202.75848 
L 268.816147 201.637027 
L 269.769612 198.493036 
L 271.199808 192.379186 
L 274.0602 179.823676 
L 275.013664 176.285592 
L 275.967129 173.649971 
L 276.920593 171.919057 
L 277.397325 171.427277 
L 277.874057 171.175018 
L 278.350789 171.115123 
L 279.304253 171.36318 
L 280.257717 171.98587 
L 281.687913 173.3103 
L 282.641378 173.76153 
L 283.594842 173.994363 
L 284.548306 174.498646 
L 288.838895 177.7096 
L 289.792359 178.072504 
L 290.269091 178.062053 
L 290.745823 177.89152 
L 291.699287 177.183587 
L 292.652751 176.575902 
L 293.129483 176.538301 
L 293.606215 176.709632 
L 294.082948 177.060414 
L 295.036412 178.236193 
L 295.989876 180.106092 
L 297.420072 183.818761 
L 298.850268 188.173771 
L 300.280465 193.339207 
L 303.617589 206.532236 
L 304.571053 209.196122 
L 305.524517 211.004663 
L 306.477982 212.080941 
L 307.431446 212.664578 
L 310.76857 214.009613 
L 311.245302 213.975542 
L 311.722034 213.731482 
L 312.198767 213.242081 
L 312.675499 212.49023 
L 313.628963 210.204268 
L 314.582427 206.977883 
L 315.535891 202.884688 
L 318.396284 189.207477 
L 319.349748 185.089196 
L 320.303212 179.442165 
L 321.733408 170.197486 
L 323.163604 162.617832 
L 324.117068 158.483428 
L 325.070533 155.274482 
L 326.023997 152.866979 
L 326.977461 151.097826 
L 327.454193 150.495075 
L 327.930925 150.115842 
L 328.407657 149.959436 
L 328.884389 149.996451 
L 329.837853 150.450871 
L 332.221514 152.090548 
L 333.174978 153.018412 
L 334.128442 154.304408 
L 335.081906 156.051869 
L 337.942299 162.27237 
L 338.895763 163.443448 
L 339.849227 164.674625 
L 340.802691 166.719791 
L 341.756155 169.682046 
L 342.70962 173.845136 
L 343.663084 179.419144 
L 346.046744 194.374957 
L 347.000208 198.597797 
L 347.47694 200.129115 
L 347.953672 201.265273 
L 348.430404 202.021153 
L 348.907137 202.427808 
L 349.383869 202.52773 
L 349.860601 202.367478 
L 350.337333 201.992859 
L 351.290797 200.740627 
L 351.767529 199.860369 
L 352.244261 198.739095 
L 352.720993 197.300872 
L 353.674457 193.362836 
L 355.581386 184.081461 
L 356.53485 181.011617 
L 357.011582 180.089726 
L 357.965046 179.08005 
L 358.441778 178.639787 
L 358.91851 178.010573 
L 359.395242 177.097385 
L 360.348706 174.413998 
L 363.209099 164.853028 
L 364.162563 162.319269 
L 365.116027 160.321632 
L 366.069491 158.774155 
L 367.022956 157.656396 
L 367.97642 157.019196 
L 368.929884 156.817096 
L 369.883348 156.92784 
L 370.836812 157.233086 
L 371.790276 157.728429 
L 372.267008 158.117036 
L 372.74374 158.665963 
L 373.697205 160.326674 
L 377.034329 167.567867 
L 378.464525 169.880489 
L 379.894722 172.321192 
L 381.80165 176.325551 
L 383.231846 179.150357 
L 386.092239 183.958799 
L 386.568971 184.177302 
L 387.045703 183.889832 
L 387.522435 183.034982 
L 387.999167 181.644543 
L 389.906095 174.684129 
L 390.382827 173.849324 
L 390.859559 173.669449 
L 391.336292 174.134653 
L 391.813024 175.187663 
L 392.289756 176.771844 
L 392.766488 178.862579 
L 393.719952 184.50293 
L 395.150148 194.28282 
L 395.62688 196.610683 
L 396.103612 198.054149 
L 396.580344 198.691384 
L 397.057076 198.793683 
L 398.487273 198.424061 
L 398.487273 198.424061 
" clip-path="url(#p74c7c38696)" style="fill: none; stroke: #000000; stroke-width: 1.5; stroke-linecap: square"/>
   </g>
   <g id="line2d_20">
    <path d="M 57.6 174.528 
L 414.72 174.528 
" clip-path="url(#p74c7c38696)" style="fill: none; stroke-dasharray: 5.55,2.4; stroke-dashoffset: 0; stroke: #000000; stroke-width: 1.5"/>
   </g>
   <g id="patch_3">
    <path d="M 57.6 307.584 
L 57.6 41.472 
" style="fill: none; stroke: #000000; stroke-width: 0.8; stroke-linejoin: miter; stroke-linecap: square"/>
   </g>
   <g id="patch_4">
    <path d="M 414.72 307.584 
L 414.72 41.472 
" style="fill: none; stroke: #000000; stroke-width: 0.8; stroke-linejoin: miter; stroke-linecap: square"/>
   </g>
   <g id="patch_5">
    <path d="M 57.6 307.584 
L 414.72 307.584 
" style="fill: none; stroke: #000000; stroke-width: 0.8; stroke-linejoin: miter; stroke-linecap: square"/>
   </g>
   <g id="patch_6">
    <path d="M 57.6 41.472 
L 414.72 41.472 
" style="fill: none; stroke: #000000; stroke-width: 0.8; stroke-linejoin: miter; stroke-linecap: square"/>
   </g>
   <g id="text_20">
    <!-- Z axis -->
    <g transform="translate(218.1225 35.472) scale(0.12 -0.12)">
     <defs>
      <path id="DejaVuSans-5a" d="M 359 4666 
L 4025 4666 
L 4025 4184 
L 1075 531 
L 4097 531 
L 4097 0 
L 288 0 
L 288 481 
L 3238 4134 
L 359 4134 
L 359 4666 
z
" transform="scale(0.015625)"/>
      <path id="DejaVuSans-73" d="M 2834 3397 
L 2834 2853 
Q 2591 2978 2328 3040 
Q 2066 3103 1784 3103 
Q 1356 3103 1142 2972 
Q 928 2841 928 2578 
Q 928 2378 1081 2264 
Q 1234 2150 1697 2047 
L 1894 2003 
Q 2506 1872 2764 1633 
Q 3022 1394 3022 966 
Q 3022 478 2636 193 
Q 2250 -91 1575 -91 
Q 1294 -91 989 -36 
Q 684 19 347 128 
L 347 722 
Q 666 556 975 473 
Q 1284 391 1588 391 
Q 1994 391 2212 530 
Q 2431 669 2431 922 
Q 2431 1156 2273 1281 
Q 2116 1406 1581 1522 
L 1381 1569 
Q 847 1681 609 1914 
Q 372 2147 372 2553 
Q 372 3047 722 3315 
Q 1072 3584 1716 3584 
Q 2034 3584 2315 3537 
Q 2597 3491 2834 3397 
z
" transform="scale(0.015625)"/>
     </defs>
     <use xlink:href="#DejaVuSans-5a"/>
     <use xlink:href="#DejaVuSans-20" x="68.505859"/>
     <use xlink:href="#DejaVuSans-61" x="100.292969"/>
     <use xlink:href="#DejaVuSans-78" x="161.572266"/>
     <use xlink:href="#DejaVuSans-69" x="220.751953"/>
     <use xlink:href="#DejaVuSans-73" x="248.535156"/>
    </g>
   </g>
   <g id="legend_1">
    <g id="patch_7">
     <path d="M 330.977813 78.82825 
L 407.72 78.82825 
Q 409.72 78.82825 409.72 76.82825 
L 409.72 48.472 
Q 409.72 46.472 407.72 46.472 
L 330.977813 46.472 
Q 328.977813 46.472 328.977813 48.472 
L 328.977813 76.82825 
Q 328.977813 78.82825 330.977813 78.82825 
z
" style="fill: #ffffff; opacity: 0.8; stroke: #cccccc; stroke-linejoin: miter"/>
    </g>
    <g id="line2d_21">
     <path d="M 332.977813 54.570437 
L 342.977813 54.570437 
L 352.977813 54.570437 
" style="fill: none; stroke-dasharray: 1.5,2.475; stroke-dashoffset: 0; stroke: #000000; stroke-width: 1.5"/>
    </g>
    <g id="text_21">
     <!-- Bone: 6 -->
     <g transform="translate(360.977813 58.070437) scale(0.1 -0.1)">
      <defs>
       <path id="DejaVuSans-42" d="M 1259 2228 
L 1259 519 
L 2272 519 
Q 2781 519 3026 730 
Q 3272 941 3272 1375 
Q 3272 1813 3026 2020 
Q 2781 2228 2272 2228 
L 1259 2228 
z
M 1259 4147 
L 1259 2741 
L 2194 2741 
Q 2656 2741 2882 2914 
Q 3109 3088 3109 3444 
Q 3109 3797 2882 3972 
Q 2656 4147 2194 4147 
L 1259 4147 
z
M 628 4666 
L 2241 4666 
Q 2963 4666 3353 4366 
Q 3744 4066 3744 3513 
Q 3744 3084 3544 2831 
Q 3344 2578 2956 2516 
Q 3422 2416 3680 2098 
Q 3938 1781 3938 1306 
Q 3938 681 3513 340 
Q 3088 0 2303 0 
L 628 0 
L 628 4666 
z
" transform="scale(0.015625)"/>
       <path id="DejaVuSans-3a" d="M 750 794 
L 1409 794 
L 1409 0 
L 750 0 
L 750 794 
z
M 750 3309 
L 1409 3309 
L 1409 2516 
L 750 2516 
L 750 3309 
z
" transform="scale(0.015625)"/>
      </defs>
      <use xlink:href="#DejaVuSans-42"/>
      <use xlink:href="#DejaVuSans-6f" x="68.603516"/>
      <use xlink:href="#DejaVuSans-6e" x="129.785156"/>
      <use xlink:href="#DejaVuSans-65" x="193.164062"/>
      <use xlink:href="#DejaVuSans-3a" x="254.6875"/>
      <use xlink:href="#DejaVuSans-20" x="288.378906"/>
      <use xlink:href="#DejaVuSans-36" x="320.166016"/>
     </g>
    </g>
    <g id="line2d_22">
     <path d="M 332.977813 69.248562 
L 342.977813 69.248562 
L 352.977813 69.248562 
" style="fill: none; stroke: #000000; stroke-width: 1.5; stroke-linecap: square"/>
    </g>
    <g id="text_22">
     <!-- Bone: 19 -->
     <g transform="translate(360.977813 72.748562) scale(0.1 -0.1)">
      <defs>
       <path id="DejaVuSans-39" d="M 703 97 
L 703 672 
Q 941 559 1184 500 
Q 1428 441 1663 441 
Q 2288 441 2617 861 
Q 2947 1281 2994 2138 
Q 2813 1869 2534 1725 
Q 2256 1581 1919 1581 
Q 1219 1581 811 2004 
Q 403 2428 403 3163 
Q 403 3881 828 4315 
Q 1253 4750 1959 4750 
Q 2769 4750 3195 4129 
Q 3622 3509 3622 2328 
Q 3622 1225 3098 567 
Q 2575 -91 1691 -91 
Q 1453 -91 1209 -44 
Q 966 3 703 97 
z
M 1959 2075 
Q 2384 2075 2632 2365 
Q 2881 2656 2881 3163 
Q 2881 3666 2632 3958 
Q 2384 4250 1959 4250 
Q 1534 4250 1286 3958 
Q 1038 3666 1038 3163 
Q 1038 2656 1286 2365 
Q 1534 2075 1959 2075 
z
" transform="scale(0.015625)"/>
      </defs>
      <use xlink:href="#DejaVuSans-42"/>
      <use xlink:href="#DejaVuSans-6f" x="68.603516"/>
      <use xlink:href="#DejaVuSans-6e" x="129.785156"/>
      <use xlink:href="#DejaVuSans-65" x="193.164062"/>
      <use xlink:href="#DejaVuSans-3a" x="254.6875"/>
      <use xlink:href="#DejaVuSans-20" x="288.378906"/>
      <use xlink:href="#DejaVuSans-31" x="320.166016"/>
      <use xlink:href="#DejaVuSans-39" x="383.789062"/>
     </g>
    </g>
   </g>
  </g>
 </g>
 <defs>
  <clipPath id="p74c7c38696">
   <rect x="57.6" y="41.472" width="357.12" height="266.112"/>
  </clipPath>
 </defs>
</svg>
