<?xml version="1.0" encoding="utf-8" standalone="no"?>
<!DOCTYPE svg PUBLIC "-//W3C//DTD SVG 1.1//EN"
  "http://www.w3.org/Graphics/SVG/1.1/DTD/svg11.dtd">
<svg xmlns:xlink="http://www.w3.org/1999/xlink" width="460.8pt" height="345.6pt" viewBox="0 0 460.8 345.6" xmlns="http://www.w3.org/2000/svg" version="1.1">
 <metadata>
  <rdf:RDF xmlns:dc="http://purl.org/dc/elements/1.1/" xmlns:cc="http://creativecommons.org/ns#" xmlns:rdf="http://www.w3.org/1999/02/22-rdf-syntax-ns#">
   <cc:Work>
    <dc:type rdf:resource="http://purl.org/dc/dcmitype/StillImage"/>
    <dc:date>2025-12-07T20:47:06.430546</dc:date>
    <dc:format>image/svg+xml</dc:format>
    <dc:creator>
     <cc:Agent>
      <dc:title>Matplotlib v3.7.5, https://matplotlib.org/</dc:title>
     </cc:Agent>
    </dc:creator>
   </cc:Work>
  </rdf:RDF>
 </metadata>
 <defs>
  <style type="text/css">*{stroke-linejoin: round; stroke-linecap: butt}</style>
 </defs>
 <g id="figure_1">
  <g id="patch_1">
   <path d="M 0 345.6 
L 460.8 345.6 
L 460.8 0 
L 0 0 
z
" style="fill: #ffffff"/>
  </g>
  <g id="axes_1">
   <g id="patch_2">
    <path d="M 57.6 307.584 
L 414.72 307.584 
L 414.72 41.472 
L 57.6 41.472 
z
" style="fill: #ffffff"/>
   </g>
   <g id="matplotlib.axis_1">
    <g id="xtick_1">
     <g id="line2d_1">
      <defs>
       <path id="ma4bee3cedc" d="M 0 0 
L 0 3.5 
" style="stroke: #000000; stroke-width: 0.8"/>
      </defs>
      <g>
       <use xlink:href="#ma4bee3cedc" x="73.832727" y="307.584" style="stroke: #000000; stroke-width: 0.8"/>
      </g>
     </g>
     <g id="text_1">
      <!-- 0 -->
      <g transform="translate(70.651477 322.182437) scale(0.1 -0.1)">
       <defs>
        <path id="DejaVuSans-30" d="M 2034 4250 
Q 1547 4250 1301 3770 
Q 1056 3291 1056 2328 
Q 1056 1369 1301 889 
Q 1547 409 2034 409 
Q 2525 409 2770 889 
Q 3016 1369 3016 2328 
Q 3016 3291 2770 3770 
Q 2525 4250 2034 4250 
z
M 2034 4750 
Q 2819 4750 3233 4129 
Q 3647 3509 3647 2328 
Q 3647 1150 3233 529 
Q 2819 -91 2034 -91 
Q 1250 -91 836 529 
Q 422 1150 422 2328 
Q 422 3509 836 4129 
Q 1250 4750 2034 4750 
z
" transform="scale(0.015625)"/>
       </defs>
       <use xlink:href="#DejaVuSans-30"/>
      </g>
     </g>
    </g>
    <g id="xtick_2">
     <g id="line2d_2">
      <g>
       <use xlink:href="#ma4bee3cedc" x="114.980325" y="307.584" style="stroke: #000000; stroke-width: 0.8"/>
      </g>
     </g>
     <g id="text_2">
      <!-- 100 -->
      <g transform="translate(105.436575 322.182437) scale(0.1 -0.1)">
       <defs>
        <path id="DejaVuSans-31" d="M 794 531 
L 1825 531 
L 1825 4091 
L 703 3866 
L 703 4441 
L 1819 4666 
L 2450 4666 
L 2450 531 
L 3481 531 
L 3481 0 
L 794 0 
L 794 531 
z
" transform="scale(0.015625)"/>
       </defs>
       <use xlink:href="#DejaVuSans-31"/>
       <use xlink:href="#DejaVuSans-30" x="63.623047"/>
       <use xlink:href="#DejaVuSans-30" x="127.246094"/>
      </g>
     </g>
    </g>
    <g id="xtick_3">
     <g id="line2d_3">
      <g>
       <use xlink:href="#ma4bee3cedc" x="156.127923" y="307.584" style="stroke: #000000; stroke-width: 0.8"/>
      </g>
     </g>
     <g id="text_3">
      <!-- 200 -->
      <g transform="translate(146.584173 322.182437) scale(0.1 -0.1)">
       <defs>
        <path id="DejaVuSans-32" d="M 1228 531 
L 3431 531 
L 3431 0 
L 469 0 
L 469 531 
Q 828 903 1448 1529 
Q 2069 2156 2228 2338 
Q 2531 2678 2651 2914 
Q 2772 3150 2772 3378 
Q 2772 3750 2511 3984 
Q 2250 4219 1831 4219 
Q 1534 4219 1204 4116 
Q 875 4013 500 3803 
L 500 4441 
Q 881 4594 1212 4672 
Q 1544 4750 1819 4750 
Q 2544 4750 2975 4387 
Q 3406 4025 3406 3419 
Q 3406 3131 3298 2873 
Q 3191 2616 2906 2266 
Q 2828 2175 2409 1742 
Q 1991 1309 1228 531 
z
" transform="scale(0.015625)"/>
       </defs>
       <use xlink:href="#DejaVuSans-32"/>
       <use xlink:href="#DejaVuSans-30" x="63.623047"/>
       <use xlink:href="#DejaVuSans-30" x="127.246094"/>
      </g>
     </g>
    </g>
    <g id="xtick_4">
     <g id="line2d_4">
      <g>
       <use xlink:href="#ma4bee3cedc" x="197.27552" y="307.584" style="stroke: #000000; stroke-width: 0.8"/>
      </g>
     </g>
     <g id="text_4">
      <!-- 300 -->
      <g transform="translate(187.73177 322.182437) scale(0.1 -0.1)">
       <defs>
        <path id="DejaVuSans-33" d="M 2597 2516 
Q 3050 2419 3304 2112 
Q 3559 1806 3559 1356 
Q 3559 666 3084 287 
Q 2609 -91 1734 -91 
Q 1441 -91 1130 -33 
Q 819 25 488 141 
L 488 750 
Q 750 597 1062 519 
Q 1375 441 1716 441 
Q 2309 441 2620 675 
Q 2931 909 2931 1356 
Q 2931 1769 2642 2001 
Q 2353 2234 1838 2234 
L 1294 2234 
L 1294 2753 
L 1863 2753 
Q 2328 2753 2575 2939 
Q 2822 3125 2822 3475 
Q 2822 3834 2567 4026 
Q 2313 4219 1838 4219 
Q 1578 4219 1281 4162 
Q 984 4106 628 3988 
L 628 4550 
Q 988 4650 1302 4700 
Q 1616 4750 1894 4750 
Q 2613 4750 3031 4423 
Q 3450 4097 3450 3541 
Q 3450 3153 3228 2886 
Q 3006 2619 2597 2516 
z
" transform="scale(0.015625)"/>
       </defs>
       <use xlink:href="#DejaVuSans-33"/>
       <use xlink:href="#DejaVuSans-30" x="63.623047"/>
       <use xlink:href="#DejaVuSans-30" x="127.246094"/>
      </g>
     </g>
    </g>
    <g id="xtick_5">
     <g id="line2d_5">
      <g>
       <use xlink:href="#ma4bee3cedc" x="238.423118" y="307.584" style="stroke: #000000; stroke-width: 0.8"/>
      </g>
     </g>
     <g id="text_5">
      <!-- 400 -->
      <g transform="translate(228.879368 322.182437) scale(0.1 -0.1)">
       <defs>
        <path id="DejaVuSans-34" d="M 2419 4116 
L 825 1625 
L 2419 1625 
L 2419 4116 
z
M 2253 4666 
L 3047 4666 
L 3047 1625 
L 3713 1625 
L 3713 1100 
L 3047 1100 
L 3047 0 
L 2419 0 
L 2419 1100 
L 313 1100 
L 313 1709 
L 2253 4666 
z
" transform="scale(0.015625)"/>
       </defs>
       <use xlink:href="#DejaVuSans-34"/>
       <use xlink:href="#DejaVuSans-30" x="63.623047"/>
       <use xlink:href="#DejaVuSans-30" x="127.246094"/>
      </g>
     </g>
    </g>
    <g id="xtick_6">
     <g id="line2d_6">
      <g>
       <use xlink:href="#ma4bee3cedc" x="279.570716" y="307.584" style="stroke: #000000; stroke-width: 0.8"/>
      </g>
     </g>
     <g id="text_6">
      <!-- 500 -->
      <g transform="translate(270.026966 322.182437) scale(0.1 -0.1)">
       <defs>
        <path id="DejaVuSans-35" d="M 691 4666 
L 3169 4666 
L 3169 4134 
L 1269 4134 
L 1269 2991 
Q 1406 3038 1543 3061 
Q 1681 3084 1819 3084 
Q 2600 3084 3056 2656 
Q 3513 2228 3513 1497 
Q 3513 744 3044 326 
Q 2575 -91 1722 -91 
Q 1428 -91 1123 -41 
Q 819 9 494 109 
L 494 744 
Q 775 591 1075 516 
Q 1375 441 1709 441 
Q 2250 441 2565 725 
Q 2881 1009 2881 1497 
Q 2881 1984 2565 2268 
Q 2250 2553 1709 2553 
Q 1456 2553 1204 2497 
Q 953 2441 691 2322 
L 691 4666 
z
" transform="scale(0.015625)"/>
       </defs>
       <use xlink:href="#DejaVuSans-35"/>
       <use xlink:href="#DejaVuSans-30" x="63.623047"/>
       <use xlink:href="#DejaVuSans-30" x="127.246094"/>
      </g>
     </g>
    </g>
    <g id="xtick_7">
     <g id="line2d_7">
      <g>
       <use xlink:href="#ma4bee3cedc" x="320.718313" y="307.584" style="stroke: #000000; stroke-width: 0.8"/>
      </g>
     </g>
     <g id="text_7">
      <!-- 600 -->
      <g transform="translate(311.174563 322.182437) scale(0.1 -0.1)">
       <defs>
        <path id="DejaVuSans-36" d="M 2113 2584 
Q 1688 2584 1439 2293 
Q 1191 2003 1191 1497 
Q 1191 994 1439 701 
Q 1688 409 2113 409 
Q 2538 409 2786 701 
Q 3034 994 3034 1497 
Q 3034 2003 2786 2293 
Q 2538 2584 2113 2584 
z
M 3366 4563 
L 3366 3988 
Q 3128 4100 2886 4159 
Q 2644 4219 2406 4219 
Q 1781 4219 1451 3797 
Q 1122 3375 1075 2522 
Q 1259 2794 1537 2939 
Q 1816 3084 2150 3084 
Q 2853 3084 3261 2657 
Q 3669 2231 3669 1497 
Q 3669 778 3244 343 
Q 2819 -91 2113 -91 
Q 1303 -91 875 529 
Q 447 1150 447 2328 
Q 447 3434 972 4092 
Q 1497 4750 2381 4750 
Q 2619 4750 2861 4703 
Q 3103 4656 3366 4563 
z
" transform="scale(0.015625)"/>
       </defs>
       <use xlink:href="#DejaVuSans-36"/>
       <use xlink:href="#DejaVuSans-30" x="63.623047"/>
       <use xlink:href="#DejaVuSans-30" x="127.246094"/>
      </g>
     </g>
    </g>
    <g id="xtick_8">
     <g id="line2d_8">
      <g>
       <use xlink:href="#ma4bee3cedc" x="361.865911" y="307.584" style="stroke: #000000; stroke-width: 0.8"/>
      </g>
     </g>
     <g id="text_8">
      <!-- 700 -->
      <g transform="translate(352.322161 322.182437) scale(0.1 -0.1)">
       <defs>
        <path id="DejaVuSans-37" d="M 525 4666 
L 3525 4666 
L 3525 4397 
L 1831 0 
L 1172 0 
L 2766 4134 
L 525 4134 
L 525 4666 
z
" transform="scale(0.015625)"/>
       </defs>
       <use xlink:href="#DejaVuSans-37"/>
       <use xlink:href="#DejaVuSans-30" x="63.623047"/>
       <use xlink:href="#DejaVuSans-30" x="127.246094"/>
      </g>
     </g>
    </g>
    <g id="xtick_9">
     <g id="line2d_9">
      <g>
       <use xlink:href="#ma4bee3cedc" x="403.013508" y="307.584" style="stroke: #000000; stroke-width: 0.8"/>
      </g>
     </g>
     <g id="text_9">
      <!-- 800 -->
      <g transform="translate(393.469758 322.182437) scale(0.1 -0.1)">
       <defs>
        <path id="DejaVuSans-38" d="M 2034 2216 
Q 1584 2216 1326 1975 
Q 1069 1734 1069 1313 
Q 1069 891 1326 650 
Q 1584 409 2034 409 
Q 2484 409 2743 651 
Q 3003 894 3003 1313 
Q 3003 1734 2745 1975 
Q 2488 2216 2034 2216 
z
M 1403 2484 
Q 997 2584 770 2862 
Q 544 3141 544 3541 
Q 544 4100 942 4425 
Q 1341 4750 2034 4750 
Q 2731 4750 3128 4425 
Q 3525 4100 3525 3541 
Q 3525 3141 3298 2862 
Q 3072 2584 2669 2484 
Q 3125 2378 3379 2068 
Q 3634 1759 3634 1313 
Q 3634 634 3220 271 
Q 2806 -91 2034 -91 
Q 1263 -91 848 271 
Q 434 634 434 1313 
Q 434 1759 690 2068 
Q 947 2378 1403 2484 
z
M 1172 3481 
Q 1172 3119 1398 2916 
Q 1625 2713 2034 2713 
Q 2441 2713 2670 2916 
Q 2900 3119 2900 3481 
Q 2900 3844 2670 4047 
Q 2441 4250 2034 4250 
Q 1625 4250 1398 4047 
Q 1172 3844 1172 3481 
z
" transform="scale(0.015625)"/>
       </defs>
       <use xlink:href="#DejaVuSans-38"/>
       <use xlink:href="#DejaVuSans-30" x="63.623047"/>
       <use xlink:href="#DejaVuSans-30" x="127.246094"/>
      </g>
     </g>
    </g>
   </g>
   <g id="matplotlib.axis_2">
    <g id="ytick_1">
     <g id="line2d_10">
      <defs>
       <path id="m8a336775a0" d="M 0 0 
L -3.5 0 
" style="stroke: #000000; stroke-width: 0.8"/>
      </defs>
      <g>
       <use xlink:href="#m8a336775a0" x="57.6" y="289.988054" style="stroke: #000000; stroke-width: 0.8"/>
      </g>
     </g>
     <g id="text_10">
      <!-- 0.86 -->
      <g transform="translate(28.334375 293.787272) scale(0.1 -0.1)">
       <defs>
        <path id="DejaVuSans-2e" d="M 684 794 
L 1344 794 
L 1344 0 
L 684 0 
L 684 794 
z
" transform="scale(0.015625)"/>
       </defs>
       <use xlink:href="#DejaVuSans-30"/>
       <use xlink:href="#DejaVuSans-2e" x="63.623047"/>
       <use xlink:href="#DejaVuSans-38" x="95.410156"/>
       <use xlink:href="#DejaVuSans-36" x="159.033203"/>
      </g>
     </g>
    </g>
    <g id="ytick_2">
     <g id="line2d_11">
      <g>
       <use xlink:href="#m8a336775a0" x="57.6" y="242.136594" style="stroke: #000000; stroke-width: 0.8"/>
      </g>
     </g>
     <g id="text_11">
      <!-- 0.88 -->
      <g transform="translate(28.334375 245.935812) scale(0.1 -0.1)">
       <use xlink:href="#DejaVuSans-30"/>
       <use xlink:href="#DejaVuSans-2e" x="63.623047"/>
       <use xlink:href="#DejaVuSans-38" x="95.410156"/>
       <use xlink:href="#DejaVuSans-38" x="159.033203"/>
      </g>
     </g>
    </g>
    <g id="ytick_3">
     <g id="line2d_12">
      <g>
       <use xlink:href="#m8a336775a0" x="57.6" y="194.285133" style="stroke: #000000; stroke-width: 0.8"/>
      </g>
     </g>
     <g id="text_12">
      <!-- 0.90 -->
      <g transform="translate(28.334375 198.084352) scale(0.1 -0.1)">
       <defs>
        <path id="DejaVuSans-39" d="M 703 97 
L 703 672 
Q 941 559 1184 500 
Q 1428 441 1663 441 
Q 2288 441 2617 861 
Q 2947 1281 2994 2138 
Q 2813 1869 2534 1725 
Q 2256 1581 1919 1581 
Q 1219 1581 811 2004 
Q 403 2428 403 3163 
Q 403 3881 828 4315 
Q 1253 4750 1959 4750 
Q 2769 4750 3195 4129 
Q 3622 3509 3622 2328 
Q 3622 1225 3098 567 
Q 2575 -91 1691 -91 
Q 1453 -91 1209 -44 
Q 966 3 703 97 
z
M 1959 2075 
Q 2384 2075 2632 2365 
Q 2881 2656 2881 3163 
Q 2881 3666 2632 3958 
Q 2384 4250 1959 4250 
Q 1534 4250 1286 3958 
Q 1038 3666 1038 3163 
Q 1038 2656 1286 2365 
Q 1534 2075 1959 2075 
z
" transform="scale(0.015625)"/>
       </defs>
       <use xlink:href="#DejaVuSans-30"/>
       <use xlink:href="#DejaVuSans-2e" x="63.623047"/>
       <use xlink:href="#DejaVuSans-39" x="95.410156"/>
       <use xlink:href="#DejaVuSans-30" x="159.033203"/>
      </g>
     </g>
    </g>
    <g id="ytick_4">
     <g id="line2d_13">
      <g>
       <use xlink:href="#m8a336775a0" x="57.6" y="146.433673" style="stroke: #000000; stroke-width: 0.8"/>
      </g>
     </g>
     <g id="text_13">
      <!-- 0.92 -->
      <g transform="translate(28.334375 150.232892) scale(0.1 -0.1)">
       <use xlink:href="#DejaVuSans-30"/>
       <use xlink:href="#DejaVuSans-2e" x="63.623047"/>
       <use xlink:href="#DejaVuSans-39" x="95.410156"/>
       <use xlink:href="#DejaVuSans-32" x="159.033203"/>
      </g>
     </g>
    </g>
    <g id="ytick_5">
     <g id="line2d_14">
      <g>
       <use xlink:href="#m8a336775a0" x="57.6" y="98.582213" style="stroke: #000000; stroke-width: 0.8"/>
      </g>
     </g>
     <g id="text_14">
      <!-- 0.94 -->
      <g transform="translate(28.334375 102.381432) scale(0.1 -0.1)">
       <use xlink:href="#DejaVuSans-30"/>
       <use xlink:href="#DejaVuSans-2e" x="63.623047"/>
       <use xlink:href="#DejaVuSans-39" x="95.410156"/>
       <use xlink:href="#DejaVuSans-34" x="159.033203"/>
      </g>
     </g>
    </g>
    <g id="ytick_6">
     <g id="line2d_15">
      <g>
       <use xlink:href="#m8a336775a0" x="57.6" y="50.730753" style="stroke: #000000; stroke-width: 0.8"/>
      </g>
     </g>
     <g id="text_15">
      <!-- 0.96 -->
      <g transform="translate(28.334375 54.529972) scale(0.1 -0.1)">
       <use xlink:href="#DejaVuSans-30"/>
       <use xlink:href="#DejaVuSans-2e" x="63.623047"/>
       <use xlink:href="#DejaVuSans-39" x="95.410156"/>
       <use xlink:href="#DejaVuSans-36" x="159.033203"/>
      </g>
     </g>
    </g>
   </g>
   <g id="line2d_16">
    <path d="M 73.832727 295.488 
L 74.244203 295.079142 
L 75.890107 294.359682 
L 76.301583 293.250758 
L 77.947487 292.260628 
L 78.358963 292.15139 
L 78.770439 291.257235 
L 79.181915 290.731865 
L 80.004867 290.26853 
L 80.416343 289.564187 
L 80.827819 289.153189 
L 81.239295 289.192122 
L 81.650771 288.313796 
L 82.062247 287.872708 
L 82.473723 287.651808 
L 82.885199 287.77716 
L 83.296675 287.394257 
L 83.708151 286.796585 
L 84.119627 286.766922 
L 84.531103 286.402557 
L 84.942579 286.48798 
L 85.354055 286.210321 
L 86.588483 284.665444 
L 86.999959 283.66476 
L 87.411434 283.581049 
L 88.234386 282.87856 
L 88.645862 282.829217 
L 89.057338 282.16566 
L 89.468814 281.879587 
L 90.291766 280.447371 
L 90.703242 280.026105 
L 91.114718 279.351282 
L 91.526194 279.218371 
L 91.93767 278.645798 
L 92.349146 278.807516 
L 92.760622 278.069945 
L 93.583574 277.083094 
L 95.229478 274.784103 
L 95.640954 273.295556 
L 96.05243 273.203431 
L 96.463906 272.289881 
L 96.875382 272.245958 
L 97.286858 271.339253 
L 97.698334 271.092255 
L 98.10981 269.608699 
L 98.932762 268.802534 
L 99.344238 267.888984 
L 99.755714 267.532035 
L 100.16719 266.540336 
L 100.578666 266.170124 
L 100.990142 265.359395 
L 101.401618 265.449524 
L 101.813094 265.181134 
L 102.22457 264.127401 
L 103.047522 263.195169 
L 103.458998 262.966568 
L 103.870474 263.14112 
L 104.28195 262.318555 
L 104.693426 262.349643 
L 105.516377 261.895293 
L 105.927853 260.891187 
L 106.339329 260.628644 
L 106.750805 259.539829 
L 107.573757 258.721114 
L 108.396709 257.692907 
L 108.808185 257.47714 
L 110.042613 255.888197 
L 110.454089 255.783237 
L 111.277041 254.708539 
L 111.688517 254.327204 
L 112.099993 253.614162 
L 112.511469 253.242239 
L 112.922945 253.18762 
L 113.334421 252.845217 
L 113.745897 251.962043 
L 114.157373 251.565734 
L 114.568849 251.604809 
L 114.980325 250.929272 
L 115.391801 250.885349 
L 115.803277 249.666047 
L 117.037705 248.294866 
L 117.449181 248.401252 
L 118.272133 247.496687 
L 118.683609 246.719328 
L 119.095085 246.528946 
L 119.506561 245.644773 
L 119.918037 245.330749 
L 120.740989 244.067951 
L 121.152465 243.985238 
L 121.563941 242.800305 
L 122.386892 242.083412 
L 123.209844 240.579178 
L 123.62132 240.225509 
L 124.444272 238.798569 
L 124.855748 238.506079 
L 125.267224 237.751109 
L 125.6787 237.752821 
L 126.090176 237.1995 
L 126.501652 236.316754 
L 126.913128 236.212364 
L 127.324604 235.120696 
L 127.73608 234.700287 
L 128.147556 234.466694 
L 128.559032 233.699603 
L 128.970508 233.320835 
L 129.381984 232.480301 
L 130.204936 231.611102 
L 131.027888 230.5307 
L 131.439364 229.571944 
L 131.85084 229.408942 
L 132.262316 228.669945 
L 132.673792 227.271526 
L 133.085268 226.885628 
L 133.496744 226.243462 
L 133.90822 224.813384 
L 134.319696 225.294118 
L 134.731172 224.00565 
L 135.9656 222.543058 
L 136.788552 221.343007 
L 137.200028 220.321075 
L 137.611504 220.467677 
L 138.02298 219.068973 
L 138.434456 218.333969 
L 138.845932 218.241273 
L 139.257408 217.423556 
L 139.668884 217.29635 
L 140.080359 215.734787 
L 140.903311 214.944451 
L 141.726263 212.839407 
L 142.137739 212.32673 
L 142.549215 212.164014 
L 142.960691 210.994767 
L 143.372167 211.133097 
L 143.783643 210.700138 
L 144.195119 209.866021 
L 145.018071 208.734565 
L 145.429547 208.556733 
L 145.841023 207.854101 
L 146.663975 207.635054 
L 147.486927 206.865396 
L 147.898403 206.465807 
L 148.309879 205.883965 
L 148.721355 205.857297 
L 149.132831 205.625558 
L 149.955783 204.67436 
L 150.778735 203.243141 
L 151.190211 203.379903 
L 151.601687 202.404176 
L 152.013163 202.205237 
L 152.424639 201.801084 
L 152.836115 200.685316 
L 153.659067 200.051279 
L 154.070543 199.200762 
L 155.304971 197.434556 
L 155.716447 197.662302 
L 156.539399 195.64867 
L 156.950875 195.221558 
L 157.362351 195.087934 
L 158.596778 192.228349 
L 159.008254 192.168738 
L 159.41973 191.81236 
L 159.831206 190.397684 
L 160.242682 189.683358 
L 160.654158 189.321418 
L 161.065634 189.636582 
L 161.47711 188.541777 
L 161.888586 188.305903 
L 163.123014 186.67489 
L 163.945966 184.979703 
L 164.357442 184.721154 
L 164.768918 184.106084 
L 165.59187 183.448944 
L 166.003346 182.713512 
L 166.414822 181.58063 
L 166.826298 181.513604 
L 167.237774 181.001783 
L 167.64925 179.631743 
L 168.060726 179.564432 
L 168.472202 178.598117 
L 170.118106 176.078938 
L 170.529582 174.991834 
L 170.941058 175.126456 
L 172.175486 172.779549 
L 172.586962 172.262165 
L 172.998438 171.386264 
L 173.409914 171.154811 
L 173.82139 170.087101 
L 174.644342 169.006985 
L 175.055817 168.740592 
L 176.290245 166.517469 
L 176.701721 166.329368 
L 177.936149 164.262544 
L 178.347625 164.609795 
L 178.759101 163.504865 
L 179.170577 163.603835 
L 179.582053 162.490491 
L 180.405005 161.487383 
L 181.227957 159.646022 
L 181.639433 158.793652 
L 182.050909 158.550647 
L 182.462385 157.318367 
L 183.285337 156.708431 
L 184.519765 155.168402 
L 184.931241 154.11367 
L 185.754193 152.85458 
L 186.165669 152.508041 
L 187.811573 149.94223 
L 188.634525 148.421025 
L 189.046001 147.386971 
L 189.457477 146.670649 
L 189.868953 146.46515 
L 190.280429 145.538908 
L 190.691905 145.412557 
L 191.103381 144.21707 
L 191.514857 144.290086 
L 192.337809 142.792126 
L 192.749284 142.141547 
L 193.16076 142.001648 
L 193.572236 142.018475 
L 193.983712 141.773474 
L 194.395188 141.138581 
L 194.806664 141.639137 
L 195.21814 140.970588 
L 195.629616 140.806446 
L 196.041092 139.140351 
L 196.864044 137.448872 
L 197.27552 136.990386 
L 199.3329 133.390663 
L 199.744376 133.626253 
L 200.155852 132.401959 
L 200.567328 132.119309 
L 201.39028 130.509972 
L 201.801756 130.107531 
L 202.213232 129.372385 
L 202.624708 128.88666 
L 203.036184 127.958992 
L 203.44766 127.332085 
L 203.859136 127.153682 
L 204.270612 126.303308 
L 204.682088 126.259955 
L 205.093564 125.655152 
L 205.50504 124.792229 
L 205.916516 124.265433 
L 206.327992 124.155197 
L 206.739468 123.481514 
L 207.56242 121.510237 
L 207.973896 121.435653 
L 208.385372 120.320027 
L 208.796848 119.586307 
L 209.208324 119.724779 
L 210.031275 117.81297 
L 210.442751 117.861457 
L 210.854227 116.962026 
L 211.265703 116.773783 
L 212.500131 114.452117 
L 212.911607 113.702709 
L 213.323083 113.606591 
L 214.557511 111.846945 
L 214.968987 111.681234 
L 215.380463 110.562613 
L 215.791939 108.66863 
L 216.203415 108.364447 
L 216.614891 108.266047 
L 217.026367 107.437492 
L 217.437843 107.041753 
L 217.849319 106.910839 
L 218.260795 106.896578 
L 218.672271 105.290093 
L 219.083747 104.967228 
L 219.495223 104.477796 
L 219.906699 104.253187 
L 221.141127 102.08126 
L 221.552603 101.598673 
L 221.964079 101.296058 
L 222.375555 100.586866 
L 222.787031 100.609684 
L 223.198507 99.88452 
L 224.021459 100.179149 
L 224.432935 100.021281 
L 225.255887 98.420073 
L 225.667363 97.675942 
L 226.078839 97.54845 
L 226.490315 96.014981 
L 226.901791 95.045529 
L 227.724742 94.224247 
L 228.547694 92.550024 
L 228.95917 92.188226 
L 229.370646 91.670272 
L 229.782122 90.586162 
L 230.605074 89.72167 
L 231.01655 88.513206 
L 231.839502 87.155288 
L 232.250978 87.290338 
L 232.662454 86.524959 
L 233.485406 85.977913 
L 233.896882 85.006464 
L 234.308358 84.914053 
L 234.719834 83.577242 
L 235.13131 83.793294 
L 235.542786 83.154408 
L 235.954262 82.759097 
L 236.365738 81.760267 
L 236.777214 81.572024 
L 237.18869 81.239319 
L 237.600166 80.512015 
L 238.011642 80.858411 
L 238.423118 79.924896 
L 238.834594 79.3904 
L 239.24607 79.260341 
L 239.657546 78.341372 
L 240.069022 78.630439 
L 240.480498 78.507939 
L 241.30345 77.801599 
L 241.714926 77.183391 
L 242.126402 77.017823 
L 242.537878 76.708648 
L 242.949354 77.286782 
L 243.772306 76.005588 
L 244.183782 76.125094 
L 244.595258 75.436295 
L 245.006733 75.551808 
L 245.418209 74.696727 
L 246.241161 74.307264 
L 247.064113 73.154559 
L 247.475589 73.041043 
L 247.887065 72.236874 
L 248.298541 71.838283 
L 248.710017 71.790652 
L 249.121493 71.976043 
L 250.355921 71.145919 
L 250.767397 71.188702 
L 251.178873 70.874678 
L 251.590349 70.274724 
L 252.413301 69.588635 
L 252.824777 68.848782 
L 253.647729 68.575116 
L 254.059205 68.785607 
L 254.470681 68.032919 
L 254.882157 68.348084 
L 255.293633 68.163263 
L 255.705109 68.909106 
L 256.116585 68.739829 
L 256.528061 68.219594 
L 256.939537 68.205903 
L 257.351013 67.623775 
L 257.762489 67.298628 
L 258.173965 66.763133 
L 258.585441 67.069884 
L 259.408393 66.357555 
L 260.231345 66.103854 
L 260.642821 65.708401 
L 261.054297 64.365029 
L 261.465773 65.110872 
L 261.877249 64.296577 
L 262.288725 64.525321 
L 262.7002 64.472128 
L 263.111676 63.433368 
L 263.523152 63.189936 
L 263.934628 62.63633 
L 264.346104 62.385909 
L 264.75758 61.855548 
L 265.169056 62.480744 
L 266.403484 60.796395 
L 266.81496 61.376669 
L 267.226436 60.334486 
L 267.637912 60.122713 
L 268.049388 59.462436 
L 268.460864 60.118292 
L 268.87234 59.294585 
L 269.283816 59.082527 
L 269.695292 58.656698 
L 270.106768 59.060137 
L 270.92972 58.723439 
L 271.341196 59.093793 
L 272.164148 58.319144 
L 272.575624 58.241992 
L 273.398576 57.735162 
L 273.810052 58.224309 
L 274.221528 57.877913 
L 274.633004 58.339109 
L 275.04448 57.639329 
L 275.455956 57.812456 
L 275.867432 57.596119 
L 276.278908 57.763113 
L 276.690384 58.15386 
L 277.10186 57.743861 
L 277.924812 58.672385 
L 278.336288 57.85153 
L 278.747764 57.482888 
L 279.570716 57.432547 
L 280.393667 57.042655 
L 280.805143 57.223198 
L 281.216619 56.73619 
L 281.628095 56.619393 
L 282.039571 56.085752 
L 282.451047 56.100726 
L 282.862523 55.605447 
L 283.273999 56.4842 
L 283.685475 56.00304 
L 284.096951 55.752334 
L 284.508427 55.845742 
L 284.919903 55.702991 
L 285.331379 55.389823 
L 285.742855 55.559527 
L 286.154331 55.13869 
L 286.977283 54.995653 
L 287.388759 54.377588 
L 287.800235 54.274197 
L 288.211711 54.322827 
L 288.623187 53.907123 
L 289.034663 54.230559 
L 289.446139 53.901133 
L 289.857615 53.766654 
L 290.269091 53.961029 
L 290.680567 54.463866 
L 291.092043 53.568 
L 291.503519 53.977857 
L 291.914995 53.775495 
L 292.326471 54.309992 
L 292.737947 54.554708 
L 293.149423 54.204889 
L 293.560899 54.028911 
L 293.972375 54.290597 
L 294.383851 55.206001 
L 294.795327 55.111737 
L 295.206803 54.875434 
L 295.618279 54.93262 
L 296.029755 54.673073 
L 296.441231 54.865594 
L 296.852707 55.332209 
L 297.675658 55.220404 
L 298.087134 55.730943 
L 298.910086 54.856182 
L 299.321562 54.811118 
L 299.733038 55.302547 
L 300.144514 54.972123 
L 300.55599 55.648372 
L 300.967466 55.774438 
L 301.378942 55.276877 
L 301.790418 55.154091 
L 302.201894 55.570936 
L 302.61337 55.1163 
L 303.436322 55.393531 
L 303.847798 55.472964 
L 304.259274 55.279444 
L 304.67075 55.504338 
L 305.082226 55.449006 
L 305.493702 55.999189 
L 305.905178 55.516032 
L 306.316654 55.605732 
L 307.551082 55.266467 
L 308.374034 55.964963 
L 309.196986 55.98664 
L 309.608462 55.706984 
L 310.019938 56.102438 
L 310.431414 55.960685 
L 310.84289 56.149213 
L 311.254366 56.184152 
L 311.665842 55.867134 
L 312.077318 56.166469 
L 312.488794 55.994626 
L 312.90027 55.997193 
L 313.311746 56.379241 
L 313.723222 56.386942 
L 314.134698 56.680145 
L 314.546174 56.406336 
L 314.957649 57.051212 
L 315.369125 57.062335 
L 315.780601 56.721216 
L 316.192077 57.372651 
L 316.603553 57.668279 
L 317.015029 57.168578 
L 317.426505 58.157853 
L 317.837981 57.610094 
L 318.249457 58.190083 
L 318.660933 57.754129 
L 319.483885 59.108339 
L 319.895361 58.960882 
L 320.306837 58.532914 
L 320.718313 59.418084 
L 321.129789 59.571246 
L 321.541265 59.30029 
L 321.952741 60.114299 
L 322.364217 60.075082 
L 322.775693 59.883416 
L 324.010121 60.579488 
L 324.421597 60.443867 
L 324.833073 61.204826 
L 325.244549 60.563373 
L 325.656025 60.771439 
L 326.067501 61.438561 
L 326.478977 61.166607 
L 326.890453 61.851698 
L 327.301929 61.871948 
L 327.713405 62.364233 
L 328.124881 61.975482 
L 328.536357 62.36081 
L 328.947833 62.450796 
L 329.359309 62.354535 
L 330.182261 62.846392 
L 331.416689 64.592633 
L 331.828165 65.010475 
L 332.239641 64.765046 
L 332.651116 65.39509 
L 333.062592 66.402762 
L 333.474068 65.811222 
L 333.885544 66.339729 
L 334.29702 66.673147 
L 334.708496 66.821318 
L 335.119972 67.516249 
L 335.531448 67.445372 
L 336.3544 68.34295 
L 337.177352 69.222131 
L 337.588828 69.45387 
L 338.000304 69.934033 
L 338.41178 69.488524 
L 339.234732 70.191726 
L 339.646208 70.888368 
L 340.46916 71.711219 
L 340.880636 71.726478 
L 341.292112 72.088133 
L 342.115064 73.368757 
L 342.938016 73.769487 
L 343.349492 73.818402 
L 343.760968 74.475256 
L 344.172444 74.674053 
L 344.58392 75.529418 
L 344.995396 75.461109 
L 345.406872 76.063772 
L 345.818348 76.126948 
L 346.6413 77.023812 
L 347.052776 77.092692 
L 347.464252 76.96192 
L 347.875728 77.33969 
L 348.287204 77.336553 
L 349.110156 77.939216 
L 349.521632 77.950767 
L 349.933108 79.137127 
L 350.344583 79.106324 
L 350.756059 79.507624 
L 351.167535 79.309541 
L 351.579011 79.874128 
L 351.990487 79.996201 
L 352.401963 80.674446 
L 352.813439 80.363132 
L 354.047867 81.71178 
L 354.459343 81.558476 
L 355.282295 82.825125 
L 355.693771 82.842951 
L 356.928199 83.766483 
L 357.339675 84.364013 
L 357.751151 84.389112 
L 358.162627 84.721675 
L 358.574103 85.79081 
L 358.985579 85.975916 
L 359.397055 85.769562 
L 359.808531 86.563606 
L 361.454435 88.103492 
L 361.865911 88.09465 
L 362.688863 88.853755 
L 363.511815 89.161647 
L 364.334767 90.141081 
L 364.746243 90.395923 
L 365.569195 91.879764 
L 365.980671 91.61551 
L 366.392147 92.381888 
L 366.803623 92.819268 
L 367.215099 93.697023 
L 367.626574 93.768613 
L 368.03805 93.626718 
L 368.449526 94.560233 
L 368.861002 94.066522 
L 369.272478 95.453532 
L 369.683954 95.803351 
L 370.09543 95.768126 
L 370.506906 96.366084 
L 370.918382 96.576574 
L 371.741334 98.076672 
L 372.15281 98.075531 
L 372.975762 99.41163 
L 373.387238 99.308381 
L 373.798714 100.781099 
L 374.21019 100.850834 
L 375.856094 101.750694 
L 377.090522 102.887141 
L 377.501998 103.101481 
L 377.913474 103.788711 
L 378.32495 104.229372 
L 378.736426 104.440575 
L 379.147902 105.501582 
L 379.559378 105.540371 
L 379.970854 106.329709 
L 380.38233 106.714752 
L 380.793806 107.369325 
L 381.205282 107.318414 
L 381.616758 108.372861 
L 382.028234 108.532012 
L 382.43971 108.99991 
L 382.851186 108.813949 
L 383.262662 109.608848 
L 383.674138 109.816914 
L 384.085614 109.645926 
L 384.908566 110.54493 
L 385.731517 112.133446 
L 386.142993 112.585657 
L 386.554469 112.750227 
L 386.965945 113.131277 
L 387.377421 114.518715 
L 387.788897 114.09802 
L 388.200373 114.781828 
L 388.611849 115.024119 
L 389.846277 116.566572 
L 390.257753 117.224853 
L 391.492181 118.290994 
L 391.903657 118.346754 
L 392.315133 118.886527 
L 392.726609 119.224366 
L 393.138085 120.128076 
L 393.549561 120.350403 
L 393.961037 120.833703 
L 394.783989 122.409954 
L 395.195465 122.651961 
L 395.606941 123.486648 
L 396.018417 123.654784 
L 398.075797 126.412689 
L 398.487273 127.528742 
L 398.487273 127.528742 
" clip-path="url(#p46040363eb)" style="fill: none; stroke: #000000; stroke-width: 1.5; stroke-linecap: square"/>
   </g>
   <g id="patch_3">
    <path d="M 57.6 307.584 
L 57.6 41.472 
" style="fill: none; stroke: #000000; stroke-width: 0.8; stroke-linejoin: miter; stroke-linecap: square"/>
   </g>
   <g id="patch_4">
    <path d="M 414.72 307.584 
L 414.72 41.472 
" style="fill: none; stroke: #000000; stroke-width: 0.8; stroke-linejoin: miter; stroke-linecap: square"/>
   </g>
   <g id="patch_5">
    <path d="M 57.6 307.584 
L 414.72 307.584 
" style="fill: none; stroke: #000000; stroke-width: 0.8; stroke-linejoin: miter; stroke-linecap: square"/>
   </g>
   <g id="patch_6">
    <path d="M 57.6 41.472 
L 414.72 41.472 
" style="fill: none; stroke: #000000; stroke-width: 0.8; stroke-linejoin: miter; stroke-linecap: square"/>
   </g>
   <g id="text_16">
    <!-- Displacement X axis -->
    <g transform="translate(174.968437 35.472) scale(0.12 -0.12)">
     <defs>
      <path id="DejaVuSans-44" d="M 1259 4147 
L 1259 519 
L 2022 519 
Q 2988 519 3436 956 
Q 3884 1394 3884 2338 
Q 3884 3275 3436 3711 
Q 2988 4147 2022 4147 
L 1259 4147 
z
M 628 4666 
L 1925 4666 
Q 3281 4666 3915 4102 
Q 4550 3538 4550 2338 
Q 4550 1131 3912 565 
Q 3275 0 1925 0 
L 628 0 
L 628 4666 
z
" transform="scale(0.015625)"/>
      <path id="DejaVuSans-69" d="M 603 3500 
L 1178 3500 
L 1178 0 
L 603 0 
L 603 3500 
z
M 603 4863 
L 1178 4863 
L 1178 4134 
L 603 4134 
L 603 4863 
z
" transform="scale(0.015625)"/>
      <path id="DejaVuSans-73" d="M 2834 3397 
L 2834 2853 
Q 2591 2978 2328 3040 
Q 2066 3103 1784 3103 
Q 1356 3103 1142 2972 
Q 928 2841 928 2578 
Q 928 2378 1081 2264 
Q 1234 2150 1697 2047 
L 1894 2003 
Q 2506 1872 2764 1633 
Q 3022 1394 3022 966 
Q 3022 478 2636 193 
Q 2250 -91 1575 -91 
Q 1294 -91 989 -36 
Q 684 19 347 128 
L 347 722 
Q 666 556 975 473 
Q 1284 391 1588 391 
Q 1994 391 2212 530 
Q 2431 669 2431 922 
Q 2431 1156 2273 1281 
Q 2116 1406 1581 1522 
L 1381 1569 
Q 847 1681 609 1914 
Q 372 2147 372 2553 
Q 372 3047 722 3315 
Q 1072 3584 1716 3584 
Q 2034 3584 2315 3537 
Q 2597 3491 2834 3397 
z
" transform="scale(0.015625)"/>
      <path id="DejaVuSans-70" d="M 1159 525 
L 1159 -1331 
L 581 -1331 
L 581 3500 
L 1159 3500 
L 1159 2969 
Q 1341 3281 1617 3432 
Q 1894 3584 2278 3584 
Q 2916 3584 3314 3078 
Q 3713 2572 3713 1747 
Q 3713 922 3314 415 
Q 2916 -91 2278 -91 
Q 1894 -91 1617 61 
Q 1341 213 1159 525 
z
M 3116 1747 
Q 3116 2381 2855 2742 
Q 2594 3103 2138 3103 
Q 1681 3103 1420 2742 
Q 1159 2381 1159 1747 
Q 1159 1113 1420 752 
Q 1681 391 2138 391 
Q 2594 391 2855 752 
Q 3116 1113 3116 1747 
z
" transform="scale(0.015625)"/>
      <path id="DejaVuSans-6c" d="M 603 4863 
L 1178 4863 
L 1178 0 
L 603 0 
L 603 4863 
z
" transform="scale(0.015625)"/>
      <path id="DejaVuSans-61" d="M 2194 1759 
Q 1497 1759 1228 1600 
Q 959 1441 959 1056 
Q 959 750 1161 570 
Q 1363 391 1709 391 
Q 2188 391 2477 730 
Q 2766 1069 2766 1631 
L 2766 1759 
L 2194 1759 
z
M 3341 1997 
L 3341 0 
L 2766 0 
L 2766 531 
Q 2569 213 2275 61 
Q 1981 -91 1556 -91 
Q 1019 -91 701 211 
Q 384 513 384 1019 
Q 384 1609 779 1909 
Q 1175 2209 1959 2209 
L 2766 2209 
L 2766 2266 
Q 2766 2663 2505 2880 
Q 2244 3097 1772 3097 
Q 1472 3097 1187 3025 
Q 903 2953 641 2809 
L 641 3341 
Q 956 3463 1253 3523 
Q 1550 3584 1831 3584 
Q 2591 3584 2966 3190 
Q 3341 2797 3341 1997 
z
" transform="scale(0.015625)"/>
      <path id="DejaVuSans-63" d="M 3122 3366 
L 3122 2828 
Q 2878 2963 2633 3030 
Q 2388 3097 2138 3097 
Q 1578 3097 1268 2742 
Q 959 2388 959 1747 
Q 959 1106 1268 751 
Q 1578 397 2138 397 
Q 2388 397 2633 464 
Q 2878 531 3122 666 
L 3122 134 
Q 2881 22 2623 -34 
Q 2366 -91 2075 -91 
Q 1284 -91 818 406 
Q 353 903 353 1747 
Q 353 2603 823 3093 
Q 1294 3584 2113 3584 
Q 2378 3584 2631 3529 
Q 2884 3475 3122 3366 
z
" transform="scale(0.015625)"/>
      <path id="DejaVuSans-65" d="M 3597 1894 
L 3597 1613 
L 953 1613 
Q 991 1019 1311 708 
Q 1631 397 2203 397 
Q 2534 397 2845 478 
Q 3156 559 3463 722 
L 3463 178 
Q 3153 47 2828 -22 
Q 2503 -91 2169 -91 
Q 1331 -91 842 396 
Q 353 884 353 1716 
Q 353 2575 817 3079 
Q 1281 3584 2069 3584 
Q 2775 3584 3186 3129 
Q 3597 2675 3597 1894 
z
M 3022 2063 
Q 3016 2534 2758 2815 
Q 2500 3097 2075 3097 
Q 1594 3097 1305 2825 
Q 1016 2553 972 2059 
L 3022 2063 
z
" transform="scale(0.015625)"/>
      <path id="DejaVuSans-6d" d="M 3328 2828 
Q 3544 3216 3844 3400 
Q 4144 3584 4550 3584 
Q 5097 3584 5394 3201 
Q 5691 2819 5691 2113 
L 5691 0 
L 5113 0 
L 5113 2094 
Q 5113 2597 4934 2840 
Q 4756 3084 4391 3084 
Q 3944 3084 3684 2787 
Q 3425 2491 3425 1978 
L 3425 0 
L 2847 0 
L 2847 2094 
Q 2847 2600 2669 2842 
Q 2491 3084 2119 3084 
Q 1678 3084 1418 2786 
Q 1159 2488 1159 1978 
L 1159 0 
L 581 0 
L 581 3500 
L 1159 3500 
L 1159 2956 
Q 1356 3278 1631 3431 
Q 1906 3584 2284 3584 
Q 2666 3584 2933 3390 
Q 3200 3197 3328 2828 
z
" transform="scale(0.015625)"/>
      <path id="DejaVuSans-6e" d="M 3513 2113 
L 3513 0 
L 2938 0 
L 2938 2094 
Q 2938 2591 2744 2837 
Q 2550 3084 2163 3084 
Q 1697 3084 1428 2787 
Q 1159 2491 1159 1978 
L 1159 0 
L 581 0 
L 581 3500 
L 1159 3500 
L 1159 2956 
Q 1366 3272 1645 3428 
Q 1925 3584 2291 3584 
Q 2894 3584 3203 3211 
Q 3513 2838 3513 2113 
z
" transform="scale(0.015625)"/>
      <path id="DejaVuSans-74" d="M 1172 4494 
L 1172 3500 
L 2356 3500 
L 2356 3053 
L 1172 3053 
L 1172 1153 
Q 1172 725 1289 603 
Q 1406 481 1766 481 
L 2356 481 
L 2356 0 
L 1766 0 
Q 1100 0 847 248 
Q 594 497 594 1153 
L 594 3053 
L 172 3053 
L 172 3500 
L 594 3500 
L 594 4494 
L 1172 4494 
z
" transform="scale(0.015625)"/>
      <path id="DejaVuSans-20" transform="scale(0.015625)"/>
      <path id="DejaVuSans-58" d="M 403 4666 
L 1081 4666 
L 2241 2931 
L 3406 4666 
L 4084 4666 
L 2584 2425 
L 4184 0 
L 3506 0 
L 2194 1984 
L 872 0 
L 191 0 
L 1856 2491 
L 403 4666 
z
" transform="scale(0.015625)"/>
      <path id="DejaVuSans-78" d="M 3513 3500 
L 2247 1797 
L 3578 0 
L 2900 0 
L 1881 1375 
L 863 0 
L 184 0 
L 1544 1831 
L 300 3500 
L 978 3500 
L 1906 2253 
L 2834 3500 
L 3513 3500 
z
" transform="scale(0.015625)"/>
     </defs>
     <use xlink:href="#DejaVuSans-44"/>
     <use xlink:href="#DejaVuSans-69" x="77.001953"/>
     <use xlink:href="#DejaVuSans-73" x="104.785156"/>
     <use xlink:href="#DejaVuSans-70" x="156.884766"/>
     <use xlink:href="#DejaVuSans-6c" x="220.361328"/>
     <use xlink:href="#DejaVuSans-61" x="248.144531"/>
     <use xlink:href="#DejaVuSans-63" x="309.423828"/>
     <use xlink:href="#DejaVuSans-65" x="364.404297"/>
     <use xlink:href="#DejaVuSans-6d" x="425.927734"/>
     <use xlink:href="#DejaVuSans-65" x="523.339844"/>
     <use xlink:href="#DejaVuSans-6e" x="584.863281"/>
     <use xlink:href="#DejaVuSans-74" x="648.242188"/>
     <use xlink:href="#DejaVuSans-20" x="687.451172"/>
     <use xlink:href="#DejaVuSans-58" x="719.238281"/>
     <use xlink:href="#DejaVuSans-20" x="787.744141"/>
     <use xlink:href="#DejaVuSans-61" x="819.53125"/>
     <use xlink:href="#DejaVuSans-78" x="880.810547"/>
     <use xlink:href="#DejaVuSans-69" x="939.990234"/>
     <use xlink:href="#DejaVuSans-73" x="967.773438"/>
    </g>
   </g>
  </g>
 </g>
 <defs>
  <clipPath id="p46040363eb">
   <rect x="57.6" y="41.472" width="357.12" height="266.112"/>
  </clipPath>
 </defs>
</svg>
