<?xml version="1.0" encoding="utf-8" standalone="no"?>
<!DOCTYPE svg PUBLIC "-//W3C//DTD SVG 1.1//EN"
  "http://www.w3.org/Graphics/SVG/1.1/DTD/svg11.dtd">
<svg xmlns:xlink="http://www.w3.org/1999/xlink" width="460.8pt" height="345.6pt" viewBox="0 0 460.8 345.6" xmlns="http://www.w3.org/2000/svg" version="1.1">
 <metadata>
  <rdf:RDF xmlns:dc="http://purl.org/dc/elements/1.1/" xmlns:cc="http://creativecommons.org/ns#" xmlns:rdf="http://www.w3.org/1999/02/22-rdf-syntax-ns#">
   <cc:Work>
    <dc:type rdf:resource="http://purl.org/dc/dcmitype/StillImage"/>
    <dc:date>2025-11-25T20:19:06.390239</dc:date>
    <dc:format>image/svg+xml</dc:format>
    <dc:creator>
     <cc:Agent>
      <dc:title>Matplotlib v3.7.5, https://matplotlib.org/</dc:title>
     </cc:Agent>
    </dc:creator>
   </cc:Work>
  </rdf:RDF>
 </metadata>
 <defs>
  <style type="text/css">*{stroke-linejoin: round; stroke-linecap: butt}</style>
 </defs>
 <g id="figure_1">
  <g id="patch_1">
   <path d="M 0 345.6 
L 460.8 345.6 
L 460.8 0 
L 0 0 
z
" style="fill: #ffffff"/>
  </g>
  <g id="axes_1">
   <g id="patch_2">
    <path d="M 57.6 307.584 
L 414.72 307.584 
L 414.72 41.472 
L 57.6 41.472 
z
" style="fill: #ffffff"/>
   </g>
   <g id="matplotlib.axis_1">
    <g id="xtick_1">
     <g id="line2d_1">
      <defs>
       <path id="m23de2bd798" d="M 0 0 
L 0 3.5 
" style="stroke: #000000; stroke-width: 0.8"/>
      </defs>
      <g>
       <use xlink:href="#m23de2bd798" x="73.832727" y="307.584" style="stroke: #000000; stroke-width: 0.8"/>
      </g>
     </g>
     <g id="text_1">
      <!-- 0 -->
      <g transform="translate(70.651477 322.182437) scale(0.1 -0.1)">
       <defs>
        <path id="DejaVuSans-30" d="M 2034 4250 
Q 1547 4250 1301 3770 
Q 1056 3291 1056 2328 
Q 1056 1369 1301 889 
Q 1547 409 2034 409 
Q 2525 409 2770 889 
Q 3016 1369 3016 2328 
Q 3016 3291 2770 3770 
Q 2525 4250 2034 4250 
z
M 2034 4750 
Q 2819 4750 3233 4129 
Q 3647 3509 3647 2328 
Q 3647 1150 3233 529 
Q 2819 -91 2034 -91 
Q 1250 -91 836 529 
Q 422 1150 422 2328 
Q 422 3509 836 4129 
Q 1250 4750 2034 4750 
z
" transform="scale(0.015625)"/>
       </defs>
       <use xlink:href="#DejaVuSans-30"/>
      </g>
     </g>
    </g>
    <g id="xtick_2">
     <g id="line2d_2">
      <g>
       <use xlink:href="#m23de2bd798" x="137.365906" y="307.584" style="stroke: #000000; stroke-width: 0.8"/>
      </g>
     </g>
     <g id="text_2">
      <!-- 100 -->
      <g transform="translate(127.822156 322.182437) scale(0.1 -0.1)">
       <defs>
        <path id="DejaVuSans-31" d="M 794 531 
L 1825 531 
L 1825 4091 
L 703 3866 
L 703 4441 
L 1819 4666 
L 2450 4666 
L 2450 531 
L 3481 531 
L 3481 0 
L 794 0 
L 794 531 
z
" transform="scale(0.015625)"/>
       </defs>
       <use xlink:href="#DejaVuSans-31"/>
       <use xlink:href="#DejaVuSans-30" x="63.623047"/>
       <use xlink:href="#DejaVuSans-30" x="127.246094"/>
      </g>
     </g>
    </g>
    <g id="xtick_3">
     <g id="line2d_3">
      <g>
       <use xlink:href="#m23de2bd798" x="200.899086" y="307.584" style="stroke: #000000; stroke-width: 0.8"/>
      </g>
     </g>
     <g id="text_3">
      <!-- 200 -->
      <g transform="translate(191.355336 322.182437) scale(0.1 -0.1)">
       <defs>
        <path id="DejaVuSans-32" d="M 1228 531 
L 3431 531 
L 3431 0 
L 469 0 
L 469 531 
Q 828 903 1448 1529 
Q 2069 2156 2228 2338 
Q 2531 2678 2651 2914 
Q 2772 3150 2772 3378 
Q 2772 3750 2511 3984 
Q 2250 4219 1831 4219 
Q 1534 4219 1204 4116 
Q 875 4013 500 3803 
L 500 4441 
Q 881 4594 1212 4672 
Q 1544 4750 1819 4750 
Q 2544 4750 2975 4387 
Q 3406 4025 3406 3419 
Q 3406 3131 3298 2873 
Q 3191 2616 2906 2266 
Q 2828 2175 2409 1742 
Q 1991 1309 1228 531 
z
" transform="scale(0.015625)"/>
       </defs>
       <use xlink:href="#DejaVuSans-32"/>
       <use xlink:href="#DejaVuSans-30" x="63.623047"/>
       <use xlink:href="#DejaVuSans-30" x="127.246094"/>
      </g>
     </g>
    </g>
    <g id="xtick_4">
     <g id="line2d_4">
      <g>
       <use xlink:href="#m23de2bd798" x="264.432265" y="307.584" style="stroke: #000000; stroke-width: 0.8"/>
      </g>
     </g>
     <g id="text_4">
      <!-- 300 -->
      <g transform="translate(254.888515 322.182437) scale(0.1 -0.1)">
       <defs>
        <path id="DejaVuSans-33" d="M 2597 2516 
Q 3050 2419 3304 2112 
Q 3559 1806 3559 1356 
Q 3559 666 3084 287 
Q 2609 -91 1734 -91 
Q 1441 -91 1130 -33 
Q 819 25 488 141 
L 488 750 
Q 750 597 1062 519 
Q 1375 441 1716 441 
Q 2309 441 2620 675 
Q 2931 909 2931 1356 
Q 2931 1769 2642 2001 
Q 2353 2234 1838 2234 
L 1294 2234 
L 1294 2753 
L 1863 2753 
Q 2328 2753 2575 2939 
Q 2822 3125 2822 3475 
Q 2822 3834 2567 4026 
Q 2313 4219 1838 4219 
Q 1578 4219 1281 4162 
Q 984 4106 628 3988 
L 628 4550 
Q 988 4650 1302 4700 
Q 1616 4750 1894 4750 
Q 2613 4750 3031 4423 
Q 3450 4097 3450 3541 
Q 3450 3153 3228 2886 
Q 3006 2619 2597 2516 
z
" transform="scale(0.015625)"/>
       </defs>
       <use xlink:href="#DejaVuSans-33"/>
       <use xlink:href="#DejaVuSans-30" x="63.623047"/>
       <use xlink:href="#DejaVuSans-30" x="127.246094"/>
      </g>
     </g>
    </g>
    <g id="xtick_5">
     <g id="line2d_5">
      <g>
       <use xlink:href="#m23de2bd798" x="327.965444" y="307.584" style="stroke: #000000; stroke-width: 0.8"/>
      </g>
     </g>
     <g id="text_5">
      <!-- 400 -->
      <g transform="translate(318.421694 322.182437) scale(0.1 -0.1)">
       <defs>
        <path id="DejaVuSans-34" d="M 2419 4116 
L 825 1625 
L 2419 1625 
L 2419 4116 
z
M 2253 4666 
L 3047 4666 
L 3047 1625 
L 3713 1625 
L 3713 1100 
L 3047 1100 
L 3047 0 
L 2419 0 
L 2419 1100 
L 313 1100 
L 313 1709 
L 2253 4666 
z
" transform="scale(0.015625)"/>
       </defs>
       <use xlink:href="#DejaVuSans-34"/>
       <use xlink:href="#DejaVuSans-30" x="63.623047"/>
       <use xlink:href="#DejaVuSans-30" x="127.246094"/>
      </g>
     </g>
    </g>
    <g id="xtick_6">
     <g id="line2d_6">
      <g>
       <use xlink:href="#m23de2bd798" x="391.498623" y="307.584" style="stroke: #000000; stroke-width: 0.8"/>
      </g>
     </g>
     <g id="text_6">
      <!-- 500 -->
      <g transform="translate(381.954873 322.182437) scale(0.1 -0.1)">
       <defs>
        <path id="DejaVuSans-35" d="M 691 4666 
L 3169 4666 
L 3169 4134 
L 1269 4134 
L 1269 2991 
Q 1406 3038 1543 3061 
Q 1681 3084 1819 3084 
Q 2600 3084 3056 2656 
Q 3513 2228 3513 1497 
Q 3513 744 3044 326 
Q 2575 -91 1722 -91 
Q 1428 -91 1123 -41 
Q 819 9 494 109 
L 494 744 
Q 775 591 1075 516 
Q 1375 441 1709 441 
Q 2250 441 2565 725 
Q 2881 1009 2881 1497 
Q 2881 1984 2565 2268 
Q 2250 2553 1709 2553 
Q 1456 2553 1204 2497 
Q 953 2441 691 2322 
L 691 4666 
z
" transform="scale(0.015625)"/>
       </defs>
       <use xlink:href="#DejaVuSans-35"/>
       <use xlink:href="#DejaVuSans-30" x="63.623047"/>
       <use xlink:href="#DejaVuSans-30" x="127.246094"/>
      </g>
     </g>
    </g>
    <g id="text_7">
     <!-- Frame index -->
     <g transform="translate(205.310781 335.860562) scale(0.1 -0.1)">
      <defs>
       <path id="DejaVuSans-46" d="M 628 4666 
L 3309 4666 
L 3309 4134 
L 1259 4134 
L 1259 2759 
L 3109 2759 
L 3109 2228 
L 1259 2228 
L 1259 0 
L 628 0 
L 628 4666 
z
" transform="scale(0.015625)"/>
       <path id="DejaVuSans-72" d="M 2631 2963 
Q 2534 3019 2420 3045 
Q 2306 3072 2169 3072 
Q 1681 3072 1420 2755 
Q 1159 2438 1159 1844 
L 1159 0 
L 581 0 
L 581 3500 
L 1159 3500 
L 1159 2956 
Q 1341 3275 1631 3429 
Q 1922 3584 2338 3584 
Q 2397 3584 2469 3576 
Q 2541 3569 2628 3553 
L 2631 2963 
z
" transform="scale(0.015625)"/>
       <path id="DejaVuSans-61" d="M 2194 1759 
Q 1497 1759 1228 1600 
Q 959 1441 959 1056 
Q 959 750 1161 570 
Q 1363 391 1709 391 
Q 2188 391 2477 730 
Q 2766 1069 2766 1631 
L 2766 1759 
L 2194 1759 
z
M 3341 1997 
L 3341 0 
L 2766 0 
L 2766 531 
Q 2569 213 2275 61 
Q 1981 -91 1556 -91 
Q 1019 -91 701 211 
Q 384 513 384 1019 
Q 384 1609 779 1909 
Q 1175 2209 1959 2209 
L 2766 2209 
L 2766 2266 
Q 2766 2663 2505 2880 
Q 2244 3097 1772 3097 
Q 1472 3097 1187 3025 
Q 903 2953 641 2809 
L 641 3341 
Q 956 3463 1253 3523 
Q 1550 3584 1831 3584 
Q 2591 3584 2966 3190 
Q 3341 2797 3341 1997 
z
" transform="scale(0.015625)"/>
       <path id="DejaVuSans-6d" d="M 3328 2828 
Q 3544 3216 3844 3400 
Q 4144 3584 4550 3584 
Q 5097 3584 5394 3201 
Q 5691 2819 5691 2113 
L 5691 0 
L 5113 0 
L 5113 2094 
Q 5113 2597 4934 2840 
Q 4756 3084 4391 3084 
Q 3944 3084 3684 2787 
Q 3425 2491 3425 1978 
L 3425 0 
L 2847 0 
L 2847 2094 
Q 2847 2600 2669 2842 
Q 2491 3084 2119 3084 
Q 1678 3084 1418 2786 
Q 1159 2488 1159 1978 
L 1159 0 
L 581 0 
L 581 3500 
L 1159 3500 
L 1159 2956 
Q 1356 3278 1631 3431 
Q 1906 3584 2284 3584 
Q 2666 3584 2933 3390 
Q 3200 3197 3328 2828 
z
" transform="scale(0.015625)"/>
       <path id="DejaVuSans-65" d="M 3597 1894 
L 3597 1613 
L 953 1613 
Q 991 1019 1311 708 
Q 1631 397 2203 397 
Q 2534 397 2845 478 
Q 3156 559 3463 722 
L 3463 178 
Q 3153 47 2828 -22 
Q 2503 -91 2169 -91 
Q 1331 -91 842 396 
Q 353 884 353 1716 
Q 353 2575 817 3079 
Q 1281 3584 2069 3584 
Q 2775 3584 3186 3129 
Q 3597 2675 3597 1894 
z
M 3022 2063 
Q 3016 2534 2758 2815 
Q 2500 3097 2075 3097 
Q 1594 3097 1305 2825 
Q 1016 2553 972 2059 
L 3022 2063 
z
" transform="scale(0.015625)"/>
       <path id="DejaVuSans-20" transform="scale(0.015625)"/>
       <path id="DejaVuSans-69" d="M 603 3500 
L 1178 3500 
L 1178 0 
L 603 0 
L 603 3500 
z
M 603 4863 
L 1178 4863 
L 1178 4134 
L 603 4134 
L 603 4863 
z
" transform="scale(0.015625)"/>
       <path id="DejaVuSans-6e" d="M 3513 2113 
L 3513 0 
L 2938 0 
L 2938 2094 
Q 2938 2591 2744 2837 
Q 2550 3084 2163 3084 
Q 1697 3084 1428 2787 
Q 1159 2491 1159 1978 
L 1159 0 
L 581 0 
L 581 3500 
L 1159 3500 
L 1159 2956 
Q 1366 3272 1645 3428 
Q 1925 3584 2291 3584 
Q 2894 3584 3203 3211 
Q 3513 2838 3513 2113 
z
" transform="scale(0.015625)"/>
       <path id="DejaVuSans-64" d="M 2906 2969 
L 2906 4863 
L 3481 4863 
L 3481 0 
L 2906 0 
L 2906 525 
Q 2725 213 2448 61 
Q 2172 -91 1784 -91 
Q 1150 -91 751 415 
Q 353 922 353 1747 
Q 353 2572 751 3078 
Q 1150 3584 1784 3584 
Q 2172 3584 2448 3432 
Q 2725 3281 2906 2969 
z
M 947 1747 
Q 947 1113 1208 752 
Q 1469 391 1925 391 
Q 2381 391 2643 752 
Q 2906 1113 2906 1747 
Q 2906 2381 2643 2742 
Q 2381 3103 1925 3103 
Q 1469 3103 1208 2742 
Q 947 2381 947 1747 
z
" transform="scale(0.015625)"/>
       <path id="DejaVuSans-78" d="M 3513 3500 
L 2247 1797 
L 3578 0 
L 2900 0 
L 1881 1375 
L 863 0 
L 184 0 
L 1544 1831 
L 300 3500 
L 978 3500 
L 1906 2253 
L 2834 3500 
L 3513 3500 
z
" transform="scale(0.015625)"/>
      </defs>
      <use xlink:href="#DejaVuSans-46"/>
      <use xlink:href="#DejaVuSans-72" x="50.269531"/>
      <use xlink:href="#DejaVuSans-61" x="91.382812"/>
      <use xlink:href="#DejaVuSans-6d" x="152.662109"/>
      <use xlink:href="#DejaVuSans-65" x="250.074219"/>
      <use xlink:href="#DejaVuSans-20" x="311.597656"/>
      <use xlink:href="#DejaVuSans-69" x="343.384766"/>
      <use xlink:href="#DejaVuSans-6e" x="371.167969"/>
      <use xlink:href="#DejaVuSans-64" x="434.546875"/>
      <use xlink:href="#DejaVuSans-65" x="498.023438"/>
      <use xlink:href="#DejaVuSans-78" x="557.796875"/>
     </g>
    </g>
   </g>
   <g id="matplotlib.axis_2">
    <g id="ytick_1">
     <g id="line2d_7">
      <defs>
       <path id="m43d06f3ab0" d="M 0 0 
L -3.5 0 
" style="stroke: #000000; stroke-width: 0.8"/>
      </defs>
      <g>
       <use xlink:href="#m43d06f3ab0" x="57.6" y="264.849038" style="stroke: #000000; stroke-width: 0.8"/>
      </g>
     </g>
     <g id="text_8">
      <!-- 0.15 -->
      <g transform="translate(28.334375 268.648257) scale(0.1 -0.1)">
       <defs>
        <path id="DejaVuSans-2e" d="M 684 794 
L 1344 794 
L 1344 0 
L 684 0 
L 684 794 
z
" transform="scale(0.015625)"/>
       </defs>
       <use xlink:href="#DejaVuSans-30"/>
       <use xlink:href="#DejaVuSans-2e" x="63.623047"/>
       <use xlink:href="#DejaVuSans-31" x="95.410156"/>
       <use xlink:href="#DejaVuSans-35" x="159.033203"/>
      </g>
     </g>
    </g>
    <g id="ytick_2">
     <g id="line2d_8">
      <g>
       <use xlink:href="#m43d06f3ab0" x="57.6" y="217.306984" style="stroke: #000000; stroke-width: 0.8"/>
      </g>
     </g>
     <g id="text_9">
      <!-- 0.20 -->
      <g transform="translate(28.334375 221.106203) scale(0.1 -0.1)">
       <use xlink:href="#DejaVuSans-30"/>
       <use xlink:href="#DejaVuSans-2e" x="63.623047"/>
       <use xlink:href="#DejaVuSans-32" x="95.410156"/>
       <use xlink:href="#DejaVuSans-30" x="159.033203"/>
      </g>
     </g>
    </g>
    <g id="ytick_3">
     <g id="line2d_9">
      <g>
       <use xlink:href="#m43d06f3ab0" x="57.6" y="169.76493" style="stroke: #000000; stroke-width: 0.8"/>
      </g>
     </g>
     <g id="text_10">
      <!-- 0.25 -->
      <g transform="translate(28.334375 173.564148) scale(0.1 -0.1)">
       <use xlink:href="#DejaVuSans-30"/>
       <use xlink:href="#DejaVuSans-2e" x="63.623047"/>
       <use xlink:href="#DejaVuSans-32" x="95.410156"/>
       <use xlink:href="#DejaVuSans-35" x="159.033203"/>
      </g>
     </g>
    </g>
    <g id="ytick_4">
     <g id="line2d_10">
      <g>
       <use xlink:href="#m43d06f3ab0" x="57.6" y="122.222875" style="stroke: #000000; stroke-width: 0.8"/>
      </g>
     </g>
     <g id="text_11">
      <!-- 0.30 -->
      <g transform="translate(28.334375 126.022094) scale(0.1 -0.1)">
       <use xlink:href="#DejaVuSans-30"/>
       <use xlink:href="#DejaVuSans-2e" x="63.623047"/>
       <use xlink:href="#DejaVuSans-33" x="95.410156"/>
       <use xlink:href="#DejaVuSans-30" x="159.033203"/>
      </g>
     </g>
    </g>
    <g id="ytick_5">
     <g id="line2d_11">
      <g>
       <use xlink:href="#m43d06f3ab0" x="57.6" y="74.680821" style="stroke: #000000; stroke-width: 0.8"/>
      </g>
     </g>
     <g id="text_12">
      <!-- 0.35 -->
      <g transform="translate(28.334375 78.48004) scale(0.1 -0.1)">
       <use xlink:href="#DejaVuSans-30"/>
       <use xlink:href="#DejaVuSans-2e" x="63.623047"/>
       <use xlink:href="#DejaVuSans-33" x="95.410156"/>
       <use xlink:href="#DejaVuSans-35" x="159.033203"/>
      </g>
     </g>
    </g>
    <g id="text_13">
     <!-- IOU loss -->
     <g transform="translate(22.254687 194.845188) rotate(-90) scale(0.1 -0.1)">
      <defs>
       <path id="DejaVuSans-49" d="M 628 4666 
L 1259 4666 
L 1259 0 
L 628 0 
L 628 4666 
z
" transform="scale(0.015625)"/>
       <path id="DejaVuSans-4f" d="M 2522 4238 
Q 1834 4238 1429 3725 
Q 1025 3213 1025 2328 
Q 1025 1447 1429 934 
Q 1834 422 2522 422 
Q 3209 422 3611 934 
Q 4013 1447 4013 2328 
Q 4013 3213 3611 3725 
Q 3209 4238 2522 4238 
z
M 2522 4750 
Q 3503 4750 4090 4092 
Q 4678 3434 4678 2328 
Q 4678 1225 4090 567 
Q 3503 -91 2522 -91 
Q 1538 -91 948 565 
Q 359 1222 359 2328 
Q 359 3434 948 4092 
Q 1538 4750 2522 4750 
z
" transform="scale(0.015625)"/>
       <path id="DejaVuSans-55" d="M 556 4666 
L 1191 4666 
L 1191 1831 
Q 1191 1081 1462 751 
Q 1734 422 2344 422 
Q 2950 422 3222 751 
Q 3494 1081 3494 1831 
L 3494 4666 
L 4128 4666 
L 4128 1753 
Q 4128 841 3676 375 
Q 3225 -91 2344 -91 
Q 1459 -91 1007 375 
Q 556 841 556 1753 
L 556 4666 
z
" transform="scale(0.015625)"/>
       <path id="DejaVuSans-6c" d="M 603 4863 
L 1178 4863 
L 1178 0 
L 603 0 
L 603 4863 
z
" transform="scale(0.015625)"/>
       <path id="DejaVuSans-6f" d="M 1959 3097 
Q 1497 3097 1228 2736 
Q 959 2375 959 1747 
Q 959 1119 1226 758 
Q 1494 397 1959 397 
Q 2419 397 2687 759 
Q 2956 1122 2956 1747 
Q 2956 2369 2687 2733 
Q 2419 3097 1959 3097 
z
M 1959 3584 
Q 2709 3584 3137 3096 
Q 3566 2609 3566 1747 
Q 3566 888 3137 398 
Q 2709 -91 1959 -91 
Q 1206 -91 779 398 
Q 353 888 353 1747 
Q 353 2609 779 3096 
Q 1206 3584 1959 3584 
z
" transform="scale(0.015625)"/>
       <path id="DejaVuSans-73" d="M 2834 3397 
L 2834 2853 
Q 2591 2978 2328 3040 
Q 2066 3103 1784 3103 
Q 1356 3103 1142 2972 
Q 928 2841 928 2578 
Q 928 2378 1081 2264 
Q 1234 2150 1697 2047 
L 1894 2003 
Q 2506 1872 2764 1633 
Q 3022 1394 3022 966 
Q 3022 478 2636 193 
Q 2250 -91 1575 -91 
Q 1294 -91 989 -36 
Q 684 19 347 128 
L 347 722 
Q 666 556 975 473 
Q 1284 391 1588 391 
Q 1994 391 2212 530 
Q 2431 669 2431 922 
Q 2431 1156 2273 1281 
Q 2116 1406 1581 1522 
L 1381 1569 
Q 847 1681 609 1914 
Q 372 2147 372 2553 
Q 372 3047 722 3315 
Q 1072 3584 1716 3584 
Q 2034 3584 2315 3537 
Q 2597 3491 2834 3397 
z
" transform="scale(0.015625)"/>
      </defs>
      <use xlink:href="#DejaVuSans-49"/>
      <use xlink:href="#DejaVuSans-4f" x="29.492188"/>
      <use xlink:href="#DejaVuSans-55" x="108.203125"/>
      <use xlink:href="#DejaVuSans-20" x="181.396484"/>
      <use xlink:href="#DejaVuSans-6c" x="213.183594"/>
      <use xlink:href="#DejaVuSans-6f" x="240.966797"/>
      <use xlink:href="#DejaVuSans-73" x="302.148438"/>
      <use xlink:href="#DejaVuSans-73" x="354.248047"/>
     </g>
    </g>
   </g>
   <g id="line2d_12">
    <path d="M 73.832727 129.100603 
L 74.468059 160.87224 
L 75.103391 170.931235 
L 75.738723 173.192096 
L 76.374054 173.326358 
L 77.009386 174.687794 
L 77.644718 185.3332 
L 78.28005 191.060673 
L 78.915382 205.359378 
L 79.550713 206.099831 
L 80.186045 199.181966 
L 80.821377 204.25207 
L 81.456709 205.658223 
L 82.092041 201.718435 
L 82.727372 201.674172 
L 83.362704 203.853875 
L 83.998036 202.467502 
L 84.633368 199.853446 
L 85.2687 194.53658 
L 85.904031 190.5128 
L 86.539363 192.404313 
L 87.174695 186.854515 
L 87.810027 176.897761 
L 88.445358 174.701169 
L 89.08069 174.937389 
L 90.351354 190.510703 
L 90.986686 200.34283 
L 91.622017 201.703076 
L 92.257349 197.735178 
L 92.892681 206.366711 
L 93.528013 208.771752 
L 94.163345 203.91055 
L 94.798676 209.303246 
L 95.434008 206.55368 
L 96.06934 212.329667 
L 97.340004 203.225581 
L 97.975335 191.423107 
L 98.610667 193.128161 
L 99.245999 193.575153 
L 99.881331 189.209399 
L 100.516663 189.092876 
L 101.151994 191.502735 
L 101.787326 197.239729 
L 102.422658 194.553922 
L 104.328653 206.346535 
L 104.963985 203.581384 
L 105.599317 203.293931 
L 106.234649 198.477841 
L 106.86998 176.989517 
L 107.505312 168.580318 
L 108.140644 140.535713 
L 108.775976 138.415008 
L 110.046639 110.251216 
L 110.681971 104.309684 
L 111.317303 100.963959 
L 111.952635 105.397608 
L 112.587967 104.88187 
L 113.223298 100.027582 
L 113.85863 90.213478 
L 114.493962 98.970658 
L 115.129294 95.890227 
L 115.764626 99.728227 
L 116.399957 97.228029 
L 117.035289 107.302326 
L 117.670621 128.191657 
L 118.941284 139.397518 
L 119.576616 153.231718 
L 120.211948 158.300122 
L 120.84728 168.525684 
L 121.482612 166.097123 
L 122.117943 167.32407 
L 122.753275 169.980633 
L 123.388607 170.722276 
L 124.023939 193.022463 
L 124.659271 203.827465 
L 125.294602 205.434868 
L 125.929934 207.89715 
L 126.565266 214.675596 
L 127.200598 218.256124 
L 127.83593 207.253441 
L 128.471261 205.536486 
L 129.106593 200.640768 
L 130.377257 210.035594 
L 131.012589 204.793142 
L 131.64792 212.264661 
L 132.918584 208.448594 
L 133.553916 202.994122 
L 134.189247 187.368837 
L 134.824579 188.661016 
L 135.459911 184.419947 
L 136.095243 176.139342 
L 136.730575 178.239361 
L 137.365906 179.172337 
L 138.001238 188.465943 
L 138.63657 191.442603 
L 139.271902 197.600632 
L 139.907234 191.06243 
L 140.542565 187.265236 
L 141.177897 198.416066 
L 141.813229 207.15324 
L 142.448561 207.736195 
L 143.083893 224.068892 
L 143.719224 222.275426 
L 144.989888 233.232146 
L 145.62522 240.693746 
L 146.260552 240.245394 
L 146.895883 237.390527 
L 148.166547 217.033484 
L 148.801879 224.437616 
L 149.43721 219.151582 
L 150.072542 220.523276 
L 150.707874 224.707387 
L 151.343206 224.7508 
L 151.978538 226.140686 
L 152.613869 223.434307 
L 153.249201 227.010471 
L 153.884533 219.460968 
L 154.519865 222.107499 
L 155.155197 215.916939 
L 155.790528 216.5059 
L 156.42586 211.743538 
L 157.061192 215.094024 
L 157.696524 214.803851 
L 158.331856 210.755304 
L 158.967187 215.462182 
L 159.602519 208.843955 
L 160.237851 206.155768 
L 160.873183 207.630723 
L 161.508514 208.119995 
L 162.143846 205.674035 
L 162.779178 211.654559 
L 163.41451 208.668491 
L 164.049842 207.762152 
L 164.685173 212.829593 
L 165.955837 193.396401 
L 166.591169 193.061965 
L 167.226501 173.988883 
L 167.861832 181.638927 
L 168.497164 139.827054 
L 169.132496 153.877071 
L 169.767828 159.344464 
L 170.40316 155.989445 
L 171.038491 139.401315 
L 171.673823 135.109635 
L 172.309155 129.890193 
L 172.944487 117.907324 
L 173.579819 115.919294 
L 174.21515 98.811573 
L 174.850482 93.390766 
L 175.485814 99.43607 
L 176.121146 78.227265 
L 177.391809 103.99599 
L 178.027141 88.409583 
L 178.662473 88.64977 
L 179.297805 80.471633 
L 179.933136 77.442322 
L 180.568468 77.233136 
L 181.2038 73.864175 
L 181.839132 65.917383 
L 182.474464 67.531134 
L 183.109795 67.210016 
L 183.745127 75.617855 
L 184.380459 79.220146 
L 185.015791 69.396577 
L 185.651123 79.606213 
L 186.286454 83.82739 
L 186.921786 83.285411 
L 187.557118 97.614266 
L 188.19245 102.781965 
L 188.827782 106.968797 
L 189.463113 125.723311 
L 190.098445 132.380586 
L 190.733777 140.207511 
L 191.369109 53.568 
L 192.00444 94.601221 
L 192.639772 87.711296 
L 193.275104 113.187751 
L 194.545768 138.255639 
L 195.181099 135.709762 
L 195.816431 146.225044 
L 196.451763 150.175203 
L 197.087095 159.093509 
L 197.722427 157.034467 
L 198.357758 158.16042 
L 198.99309 152.106388 
L 199.628422 162.635668 
L 200.263754 160.151226 
L 200.899086 164.812198 
L 201.534417 158.18309 
L 202.169749 158.09241 
L 202.805081 126.457473 
L 203.440413 127.321646 
L 204.075745 119.396164 
L 204.711076 124.388002 
L 205.346408 124.057816 
L 205.98174 133.716858 
L 206.617072 128.7172 
L 207.252403 136.938523 
L 207.887735 130.651899 
L 208.523067 129.072719 
L 209.158399 134.964832 
L 209.793731 155.680625 
L 210.429062 150.213798 
L 211.064394 151.717261 
L 211.699726 91.935534 
L 212.335058 101.072944 
L 212.97039 83.363792 
L 213.605721 97.675645 
L 214.241053 82.378222 
L 214.876385 99.360069 
L 215.511717 108.599323 
L 216.147049 115.917424 
L 216.78238 111.292441 
L 218.053044 122.198891 
L 218.688376 124.799572 
L 219.323708 137.942286 
L 219.959039 136.760622 
L 220.594371 145.337804 
L 221.229703 149.02522 
L 221.865035 146.154711 
L 222.500366 149.226868 
L 223.135698 137.942739 
L 223.77103 138.802379 
L 224.406362 133.894136 
L 225.041694 125.823341 
L 225.677025 135.040096 
L 226.312357 124.5714 
L 226.947689 131.828633 
L 227.583021 123.408325 
L 228.218353 128.949509 
L 228.853684 130.312985 
L 229.489016 122.765183 
L 230.124348 124.771575 
L 230.75968 114.921312 
L 231.395012 114.074708 
L 232.030343 108.520943 
L 232.665675 132.159215 
L 233.301007 119.203698 
L 233.936339 158.297572 
L 234.571671 155.176902 
L 235.207002 152.893711 
L 235.842334 154.463029 
L 236.477666 146.36809 
L 237.112998 135.032671 
L 237.748329 132.965467 
L 238.383661 116.861452 
L 239.018993 128.660015 
L 239.654325 124.44904 
L 240.289657 137.769542 
L 240.924988 134.963018 
L 241.56032 130.867829 
L 242.195652 133.658597 
L 242.830984 130.022812 
L 243.466316 132.116823 
L 244.101647 138.100124 
L 244.736979 139.602907 
L 245.372311 140.75476 
L 246.007643 140.461639 
L 246.642975 141.935914 
L 247.913638 149.184249 
L 248.54897 145.059815 
L 249.184302 142.772657 
L 249.819634 136.830331 
L 250.454965 143.542071 
L 251.090297 141.95507 
L 251.725629 147.365336 
L 252.360961 143.929271 
L 252.996292 158.869475 
L 253.631624 161.801022 
L 254.266956 170.794536 
L 254.902288 172.757459 
L 255.53762 175.16573 
L 256.172951 172.496813 
L 256.808283 175.327876 
L 257.443615 174.434005 
L 258.078947 189.522129 
L 258.714279 190.893427 
L 259.34961 190.562391 
L 259.984942 188.617377 
L 260.620274 187.369347 
L 261.255606 193.718879 
L 261.890938 194.92361 
L 262.526269 191.132367 
L 263.161601 202.203966 
L 263.796933 199.8157 
L 264.432265 205.040243 
L 265.067597 206.448889 
L 265.702928 206.14245 
L 266.33826 201.608543 
L 266.973592 204.363493 
L 267.608924 201.769895 
L 268.244255 195.30809 
L 268.879587 193.236069 
L 269.514919 194.036767 
L 270.150251 196.827422 
L 270.785583 212.178119 
L 271.420914 216.014759 
L 272.056246 211.708003 
L 272.691578 217.514821 
L 273.32691 205.283944 
L 273.962242 201.400774 
L 274.597573 206.72172 
L 275.232905 205.220922 
L 275.868237 221.881198 
L 276.503569 221.790348 
L 277.138901 220.644332 
L 277.774232 215.42115 
L 278.409564 216.74467 
L 279.044896 215.338291 
L 279.680228 212.296285 
L 280.31556 217.225951 
L 280.950891 212.394106 
L 281.586223 216.295921 
L 282.221555 218.379164 
L 282.856887 206.869981 
L 283.492218 220.031907 
L 284.12755 208.883628 
L 284.762882 211.199293 
L 285.398214 226.346642 
L 286.033546 219.530451 
L 286.668877 220.12678 
L 287.304209 223.612832 
L 287.939541 210.761255 
L 288.574873 217.91891 
L 289.210205 214.41886 
L 289.845536 205.205733 
L 290.480868 213.744263 
L 291.1162 211.03641 
L 291.751532 211.859325 
L 292.386864 212.471523 
L 293.022195 207.945324 
L 293.657527 206.656261 
L 294.292859 204.230874 
L 294.928191 199.42663 
L 295.563523 197.419217 
L 296.198854 196.356569 
L 296.834186 193.081858 
L 297.469518 187.155967 
L 298.10485 184.764188 
L 298.740181 181.407865 
L 299.375513 174.074065 
L 300.010845 162.155748 
L 300.646177 161.533462 
L 301.281509 151.174375 
L 301.91684 148.2133 
L 302.552172 148.175045 
L 303.822836 142.306339 
L 304.458168 136.748436 
L 305.728831 128.267658 
L 306.364163 122.582747 
L 306.999495 113.867619 
L 307.634827 112.228761 
L 308.270158 101.494772 
L 308.90549 102.298304 
L 309.540822 102.02842 
L 310.176154 100.01381 
L 310.811486 88.778591 
L 311.446817 85.26477 
L 312.082149 87.597891 
L 312.717481 84.056355 
L 313.352813 82.48681 
L 313.988144 83.410095 
L 314.623476 78.321968 
L 315.258808 85.275368 
L 315.89414 90.098768 
L 316.529472 99.662144 
L 317.164803 87.779362 
L 317.800135 91.962114 
L 318.435467 77.693674 
L 319.070799 66.139944 
L 319.706131 63.204826 
L 320.341462 61.772207 
L 320.976794 59.586497 
L 321.612126 108.052244 
L 322.247458 114.119821 
L 322.88279 114.790281 
L 323.518121 117.541376 
L 324.153453 130.452291 
L 324.788785 128.461768 
L 325.424117 119.430056 
L 326.059448 124.451137 
L 326.69478 123.938572 
L 327.330112 121.013769 
L 327.965444 126.755524 
L 328.600776 127.73724 
L 329.236107 135.599984 
L 329.871439 139.79815 
L 330.506771 139.147527 
L 331.142103 142.754238 
L 331.777435 137.555539 
L 332.412766 147.539893 
L 333.048098 144.437755 
L 333.68343 149.696416 
L 334.318762 153.064075 
L 334.954094 153.091052 
L 335.589425 158.024061 
L 336.860089 162.537962 
L 337.495421 167.333308 
L 338.130753 169.127738 
L 338.766084 170.159158 
L 339.401416 173.841246 
L 340.036748 170.358085 
L 340.67208 172.837937 
L 341.307411 171.217498 
L 341.942743 170.727717 
L 342.578075 172.679475 
L 343.848739 166.250994 
L 344.48407 170.08072 
L 345.119402 170.742112 
L 345.754734 169.130005 
L 346.390066 172.902942 
L 347.025398 172.09244 
L 347.660729 178.755383 
L 348.296061 181.61161 
L 348.931393 187.226017 
L 349.566725 195.604045 
L 350.202057 192.982167 
L 351.47272 200.944941 
L 352.108052 196.852415 
L 352.743384 196.591485 
L 353.378716 200.449492 
L 354.014047 193.512981 
L 354.649379 202.561015 
L 355.284711 198.478521 
L 355.920043 201.144095 
L 356.555374 199.19194 
L 357.190706 193.886693 
L 357.826038 195.259747 
L 358.46137 195.832047 
L 359.096702 194.296166 
L 359.732033 192.323212 
L 360.367365 184.70638 
L 361.002697 182.527074 
L 361.638029 181.398853 
L 362.273361 181.22866 
L 362.908692 190.813572 
L 363.544024 191.453088 
L 364.179356 190.879825 
L 365.45002 192.4751 
L 366.085351 194.838315 
L 366.720683 188.981398 
L 367.356015 196.750571 
L 367.991347 195.942165 
L 368.626679 198.126459 
L 369.26201 196.514861 
L 369.897342 190.281002 
L 370.532674 193.889186 
L 371.168006 192.831583 
L 371.803337 197.074976 
L 372.438669 193.878078 
L 373.074001 196.765363 
L 373.709333 201.800556 
L 374.344665 201.554532 
L 374.979996 202.23423 
L 375.615328 205.68605 
L 376.25066 205.235657 
L 376.885992 204.63519 
L 377.521324 205.300549 
L 378.156655 203.325102 
L 378.791987 207.983069 
L 379.427319 206.226328 
L 380.062651 207.999845 
L 380.697983 213.433063 
L 381.333314 213.391408 
L 381.968646 208.217475 
L 382.603978 207.220796 
L 383.23931 215.749295 
L 383.874642 214.305625 
L 385.145305 220.212756 
L 385.780637 221.149416 
L 386.415969 230.343671 
L 387.0513 230.013485 
L 387.686632 226.038672 
L 388.321964 226.647244 
L 388.957296 222.443579 
L 389.592628 220.195527 
L 390.227959 214.568084 
L 390.863291 219.335831 
L 391.498623 220.678621 
L 392.133955 223.301632 
L 392.769287 221.22723 
L 393.404618 228.665537 
L 394.675282 238.524755 
L 395.310614 231.94569 
L 395.945946 230.333186 
L 396.581277 215.418033 
L 397.216609 218.416569 
L 397.851941 214.965543 
L 398.487273 197.557106 
L 398.487273 197.557106 
" clip-path="url(#p58173c4f21)" style="fill: none; stroke: #000000; stroke-width: 1.5; stroke-linecap: square"/>
   </g>
   <g id="line2d_13">
    <path d="M 73.832727 193.776347 
L 74.468059 203.702441 
L 75.103391 205.409705 
L 75.738723 200.177171 
L 76.374054 196.98067 
L 78.915382 222.828966 
L 79.550713 227.7486 
L 80.821377 222.010246 
L 81.456709 231.822083 
L 82.092041 228.647515 
L 82.727372 227.242156 
L 83.362704 224.240672 
L 83.998036 220.474819 
L 84.633368 219.434671 
L 85.2687 215.843035 
L 85.904031 217.063408 
L 86.539363 218.528502 
L 87.174695 210.501799 
L 87.810027 208.516887 
L 88.445358 205.034632 
L 89.08069 205.106609 
L 89.716022 207.38793 
L 90.351354 208.670758 
L 90.986686 214.680073 
L 91.622017 217.370754 
L 92.257349 214.981639 
L 92.892681 222.900433 
L 93.528013 223.783365 
L 94.163345 220.801944 
L 94.798676 223.3332 
L 95.434008 215.913198 
L 96.06934 224.44181 
L 96.704672 218.963422 
L 97.340004 214.622605 
L 97.975335 205.647398 
L 98.610667 210.24478 
L 99.245999 207.27203 
L 99.881331 199.634115 
L 100.516663 199.437341 
L 101.151994 205.288704 
L 101.787326 208.803603 
L 102.422658 203.158195 
L 103.05799 210.991524 
L 103.693321 210.517441 
L 104.328653 224.398454 
L 104.963985 222.220792 
L 105.599317 228.950724 
L 106.234649 228.662704 
L 106.86998 221.803497 
L 107.505312 220.676014 
L 108.140644 213.122884 
L 108.775976 216.082258 
L 109.411308 215.391226 
L 110.046639 211.643961 
L 110.681971 215.681739 
L 111.317303 215.851026 
L 111.952635 213.001373 
L 112.587967 213.634881 
L 113.223298 207.275261 
L 113.85863 203.546926 
L 114.493962 209.448899 
L 115.129294 201.160077 
L 115.764626 219.322852 
L 116.399957 214.39364 
L 117.035289 229.711183 
L 118.305953 237.26726 
L 118.941284 237.840296 
L 119.576616 227.972068 
L 120.211948 237.599089 
L 120.84728 240.177384 
L 122.117943 236.26412 
L 122.753275 242.319342 
L 123.388607 241.493367 
L 124.023939 236.958157 
L 124.659271 247.165583 
L 125.294602 241.832168 
L 125.929934 245.340832 
L 126.565266 246.175025 
L 127.200598 248.313582 
L 127.83593 248.0331 
L 128.471261 248.403071 
L 129.106593 247.537254 
L 130.377257 249.757196 
L 131.012589 242.096498 
L 131.64792 243.827622 
L 132.283252 237.472195 
L 132.918584 235.886328 
L 133.553916 227.596712 
L 134.189247 228.325037 
L 135.459911 224.98923 
L 136.095243 217.512497 
L 136.730575 218.284688 
L 137.365906 226.392775 
L 138.001238 224.772563 
L 138.63657 229.849922 
L 139.271902 229.961004 
L 139.907234 227.616945 
L 140.542565 236.618903 
L 141.177897 233.848878 
L 141.813229 241.147766 
L 142.448561 243.981323 
L 143.083893 247.961973 
L 143.719224 254.527266 
L 144.989888 264.770963 
L 145.62522 266.802859 
L 146.260552 264.054087 
L 146.895883 259.7874 
L 148.166547 241.233345 
L 148.801879 245.869096 
L 149.43721 242.487836 
L 150.072542 244.172486 
L 150.707874 240.55461 
L 151.343206 240.615932 
L 151.978538 242.090207 
L 152.613869 241.304754 
L 153.249201 235.209464 
L 153.884533 236.295405 
L 154.519865 235.801543 
L 155.155197 239.617157 
L 155.790528 235.491533 
L 156.42586 236.126968 
L 157.061192 233.26173 
L 157.696524 231.185741 
L 158.331856 234.324944 
L 158.967187 228.741538 
L 159.602519 224.373971 
L 160.237851 228.724026 
L 160.873183 224.287542 
L 161.508514 229.890898 
L 162.143846 231.768582 
L 162.779178 228.010436 
L 163.41451 233.109275 
L 164.049842 231.390903 
L 164.685173 229.203379 
L 165.320505 230.437921 
L 165.955837 234.275524 
L 166.591169 230.590545 
L 167.226501 232.565766 
L 167.861832 231.749823 
L 168.497164 244.118419 
L 169.132496 232.903547 
L 169.767828 223.931229 
L 170.40316 225.883497 
L 171.038491 226.867027 
L 171.673823 226.483171 
L 172.309155 225.536082 
L 172.944487 216.266054 
L 173.579819 204.455249 
L 174.21515 197.178067 
L 174.850482 197.92005 
L 176.121146 189.888474 
L 176.756477 199.074001 
L 177.391809 200.809375 
L 178.027141 200.226761 
L 178.662473 205.141747 
L 179.297805 195.290861 
L 180.568468 186.110492 
L 181.2038 179.039719 
L 181.839132 174.716301 
L 182.474464 180.831995 
L 183.109795 179.246808 
L 183.745127 178.401677 
L 185.015791 169.104614 
L 185.651123 169.326439 
L 186.286454 169.202265 
L 186.921786 173.367334 
L 187.557118 174.232697 
L 188.19245 177.549008 
L 188.827782 181.763044 
L 189.463113 193.771927 
L 190.098445 200.398881 
L 190.733777 195.688717 
L 191.369109 174.878334 
L 192.00444 185.831653 
L 192.639772 187.226754 
L 193.275104 189.377836 
L 193.910436 184.817122 
L 194.545768 194.687901 
L 195.816431 198.333888 
L 196.451763 198.327427 
L 197.722427 195.445243 
L 198.357758 198.218895 
L 198.99309 199.092646 
L 199.628422 201.787861 
L 200.263754 201.61319 
L 200.899086 199.672994 
L 201.534417 200.974808 
L 202.169749 194.663304 
L 203.440413 174.347917 
L 204.075745 174.103139 
L 204.711076 178.602191 
L 205.346408 178.344266 
L 206.617072 172.583808 
L 207.252403 170.064058 
L 207.887735 171.804703 
L 208.523067 168.049844 
L 209.158399 157.695802 
L 209.793731 177.558983 
L 210.429062 173.972618 
L 211.064394 176.938113 
L 211.699726 154.758473 
L 212.335058 162.320728 
L 212.97039 149.005327 
L 213.605721 140.532426 
L 214.241053 147.01061 
L 214.876385 148.836267 
L 215.511717 151.704566 
L 216.147049 144.441609 
L 216.78238 153.239426 
L 217.417712 155.497793 
L 218.053044 155.968588 
L 218.688376 157.75174 
L 219.323708 160.228644 
L 219.959039 164.919256 
L 220.594371 170.457833 
L 221.229703 170.258905 
L 221.865035 169.325475 
L 222.500366 165.761893 
L 223.135698 167.222396 
L 224.406362 157.492737 
L 225.041694 158.229903 
L 225.677025 158.685396 
L 226.312357 151.911428 
L 226.947689 154.511372 
L 227.583021 158.745018 
L 228.218353 157.290635 
L 228.853684 164.766121 
L 229.489016 166.271794 
L 230.124348 162.313644 
L 230.75968 161.912275 
L 231.395012 159.272658 
L 232.030343 155.312921 
L 232.665675 180.543125 
L 233.301007 173.58264 
L 233.936339 209.112706 
L 234.571671 207.285405 
L 235.207002 207.299801 
L 235.842334 207.438257 
L 236.477666 208.205573 
L 237.112998 204.711531 
L 237.748329 206.926542 
L 238.383661 200.269607 
L 239.018993 206.302045 
L 240.289657 212.185827 
L 240.924988 211.824356 
L 241.56032 209.698211 
L 242.195652 209.71799 
L 242.830984 212.684053 
L 243.466316 214.22696 
L 244.101647 214.546435 
L 244.736979 215.171555 
L 245.372311 221.145789 
L 246.007643 220.258039 
L 246.642975 224.153337 
L 247.278306 225.743681 
L 247.913638 223.360177 
L 248.54897 218.936672 
L 249.184302 212.531881 
L 249.819634 215.095384 
L 250.454965 219.057842 
L 251.090297 219.855876 
L 251.725629 220.187082 
L 252.360961 224.563094 
L 252.996292 225.532625 
L 253.631624 227.941917 
L 254.266956 232.440346 
L 254.902288 230.84507 
L 255.53762 234.769896 
L 256.172951 226.66861 
L 256.808283 223.622693 
L 257.443615 224.249287 
L 258.078947 222.32887 
L 258.714279 223.106728 
L 259.34961 217.89658 
L 259.984942 217.749453 
L 260.620274 217.152047 
L 261.255606 221.354294 
L 261.890938 221.834895 
L 262.526269 215.164301 
L 263.161601 224.219986 
L 263.796933 224.254218 
L 264.432265 224.695826 
L 265.067597 224.337472 
L 266.33826 219.942532 
L 266.973592 219.275359 
L 267.608924 220.328939 
L 268.244255 214.842219 
L 268.879587 215.645014 
L 269.514919 207.065792 
L 270.150251 214.141098 
L 270.785583 232.854296 
L 271.420914 231.619811 
L 272.056246 227.429522 
L 272.691578 234.481649 
L 273.32691 221.931015 
L 273.962242 219.371422 
L 274.597573 227.589458 
L 275.232905 230.45515 
L 275.868237 219.066626 
L 276.503569 239.209213 
L 277.138901 239.154352 
L 277.774232 233.837486 
L 278.409564 222.836731 
L 279.044896 222.919022 
L 279.680228 235.134427 
L 280.31556 237.454569 
L 280.950891 239.116437 
L 281.586223 237.522692 
L 282.221555 238.944883 
L 282.856887 234.981122 
L 283.492218 238.189695 
L 284.12755 238.590667 
L 284.762882 232.173408 
L 285.398214 244.505336 
L 286.033546 232.37687 
L 287.304209 244.288896 
L 287.939541 240.997125 
L 288.574873 238.959392 
L 289.210205 234.952841 
L 289.845536 232.350686 
L 290.480868 238.456122 
L 291.1162 230.740789 
L 291.751532 235.603352 
L 292.386864 233.975206 
L 293.022195 230.960743 
L 293.657527 230.712452 
L 294.292859 226.705448 
L 294.928191 230.183452 
L 295.563523 226.545569 
L 296.198854 224.523365 
L 296.834186 226.426043 
L 298.10485 221.562743 
L 298.740181 224.517244 
L 300.010845 221.691905 
L 300.646177 221.289459 
L 301.281509 216.771704 
L 301.91684 219.052458 
L 302.552172 216.653424 
L 303.187504 216.998969 
L 303.822836 215.505765 
L 304.458168 212.270328 
L 305.093499 216.668613 
L 305.728831 214.295367 
L 306.999495 214.996601 
L 308.270158 204.169892 
L 309.540822 196.826968 
L 310.176154 188.224452 
L 310.811486 191.093998 
L 311.446817 188.711117 
L 312.082149 192.135676 
L 312.717481 182.210603 
L 313.352813 181.120695 
L 313.988144 186.927965 
L 314.623476 171.08794 
L 315.258808 195.558365 
L 315.89414 184.309601 
L 316.529472 184.313682 
L 317.164803 194.58855 
L 317.800135 195.575027 
L 318.435467 190.227557 
L 319.070799 185.894335 
L 319.706131 194.03178 
L 320.341462 204.75619 
L 320.976794 204.744119 
L 321.612126 245.484616 
L 322.247458 252.956588 
L 322.88279 253.648981 
L 323.518121 260.657751 
L 324.153453 254.804858 
L 324.788785 253.69109 
L 325.424117 259.266958 
L 326.059448 256.769934 
L 326.69478 261.446378 
L 327.330112 260.841264 
L 327.965444 254.543588 
L 328.600776 260.344625 
L 329.236107 254.502783 
L 329.871439 261.840946 
L 330.506771 259.410061 
L 331.142103 260.621026 
L 331.777435 255.29668 
L 332.412766 258.818946 
L 333.048098 259.062703 
L 333.68343 249.01714 
L 334.318762 254.436473 
L 334.954094 257.237443 
L 336.224757 252.729039 
L 336.860089 254.960033 
L 337.495421 259.21068 
L 338.130753 259.293142 
L 338.766084 261.885662 
L 339.401416 259.905 
L 340.036748 259.1357 
L 340.67208 257.157078 
L 341.307411 260.004237 
L 341.942743 259.531968 
L 342.578075 254.250864 
L 343.848739 251.744602 
L 344.48407 250.494532 
L 345.119402 257.607131 
L 346.390066 251.835055 
L 347.025398 252.379414 
L 347.660729 248.25124 
L 348.296061 256.074594 
L 349.566725 256.696144 
L 350.202057 254.801911 
L 350.837388 257.763269 
L 351.47272 256.790564 
L 352.108052 261.730431 
L 352.743384 252.881777 
L 353.378716 263.681452 
L 354.014047 248.760631 
L 354.649379 257.510727 
L 355.284711 262.87843 
L 355.920043 263.991688 
L 356.555374 256.595773 
L 357.190706 260.053317 
L 357.826038 259.129126 
L 358.46137 254.325958 
L 359.096702 259.065027 
L 359.732033 260.471689 
L 360.367365 249.878933 
L 361.002697 252.361165 
L 361.638029 253.347755 
L 362.273361 236.450353 
L 362.908692 271.597752 
L 363.544024 274.976235 
L 364.179356 276.557342 
L 364.814688 277.48193 
L 365.45002 270.292141 
L 366.085351 279.556162 
L 366.720683 264.684988 
L 367.356015 277.896901 
L 368.626679 284.846617 
L 369.26201 281.773213 
L 369.897342 272.46646 
L 370.532674 272.591087 
L 371.168006 282.509529 
L 371.803337 275.367233 
L 372.438669 279.508725 
L 373.074001 278.532336 
L 373.709333 271.624843 
L 374.344665 281.310182 
L 374.979996 278.063298 
L 376.25066 284.234759 
L 376.885992 283.901909 
L 377.521324 287.64362 
L 378.156655 280.209959 
L 378.791987 275.071845 
L 379.427319 279.093188 
L 380.062651 279.946763 
L 380.697983 285.3224 
L 381.333314 282.988202 
L 381.968646 281.67664 
L 382.603978 270.005821 
L 383.23931 290.074221 
L 383.874642 289.411129 
L 384.509973 278.17778 
L 386.415969 289.369699 
L 387.0513 295.488 
L 387.686632 289.688891 
L 388.321964 287.471499 
L 388.957296 277.106858 
L 389.592628 282.601455 
L 390.227959 286.406698 
L 390.863291 280.818871 
L 391.498623 286.9009 
L 392.133955 282.03488 
L 392.769287 275.997454 
L 393.404618 285.15079 
L 394.03995 284.728281 
L 394.675282 286.128142 
L 395.310614 286.081216 
L 395.945946 274.782522 
L 396.581277 277.308903 
L 397.216609 270.967305 
L 397.851941 252.743605 
L 398.487273 278.79763 
L 398.487273 278.79763 
" clip-path="url(#p58173c4f21)" style="fill: none; stroke-dasharray: 1.5,2.475; stroke-dashoffset: 0; stroke: #808080; stroke-width: 1.5"/>
   </g>
   <g id="patch_3">
    <path d="M 57.6 307.584 
L 57.6 41.472 
" style="fill: none; stroke: #000000; stroke-width: 0.8; stroke-linejoin: miter; stroke-linecap: square"/>
   </g>
   <g id="patch_4">
    <path d="M 414.72 307.584 
L 414.72 41.472 
" style="fill: none; stroke: #000000; stroke-width: 0.8; stroke-linejoin: miter; stroke-linecap: square"/>
   </g>
   <g id="patch_5">
    <path d="M 57.6 307.584 
L 414.72 307.584 
" style="fill: none; stroke: #000000; stroke-width: 0.8; stroke-linejoin: miter; stroke-linecap: square"/>
   </g>
   <g id="patch_6">
    <path d="M 57.6 41.472 
L 414.72 41.472 
" style="fill: none; stroke: #000000; stroke-width: 0.8; stroke-linejoin: miter; stroke-linecap: square"/>
   </g>
   <g id="legend_1">
    <g id="patch_7">
     <path d="M 64.6 302.584 
L 243.003125 302.584 
Q 245.003125 302.584 245.003125 300.584 
L 245.003125 272.22775 
Q 245.003125 270.22775 243.003125 270.22775 
L 64.6 270.22775 
Q 62.6 270.22775 62.6 272.22775 
L 62.6 300.584 
Q 62.6 302.584 64.6 302.584 
z
" style="fill: #ffffff; opacity: 0.8; stroke: #cccccc; stroke-linejoin: miter"/>
    </g>
    <g id="line2d_14">
     <path d="M 66.6 278.326187 
L 76.6 278.326187 
L 86.6 278.326187 
" style="fill: none; stroke: #000000; stroke-width: 1.5; stroke-linecap: square"/>
    </g>
    <g id="text_14">
     <!-- fixed template -->
     <g transform="translate(94.6 281.826187) scale(0.1 -0.1)">
      <defs>
       <path id="DejaVuSans-66" d="M 2375 4863 
L 2375 4384 
L 1825 4384 
Q 1516 4384 1395 4259 
Q 1275 4134 1275 3809 
L 1275 3500 
L 2222 3500 
L 2222 3053 
L 1275 3053 
L 1275 0 
L 697 0 
L 697 3053 
L 147 3053 
L 147 3500 
L 697 3500 
L 697 3744 
Q 697 4328 969 4595 
Q 1241 4863 1831 4863 
L 2375 4863 
z
" transform="scale(0.015625)"/>
       <path id="DejaVuSans-74" d="M 1172 4494 
L 1172 3500 
L 2356 3500 
L 2356 3053 
L 1172 3053 
L 1172 1153 
Q 1172 725 1289 603 
Q 1406 481 1766 481 
L 2356 481 
L 2356 0 
L 1766 0 
Q 1100 0 847 248 
Q 594 497 594 1153 
L 594 3053 
L 172 3053 
L 172 3500 
L 594 3500 
L 594 4494 
L 1172 4494 
z
" transform="scale(0.015625)"/>
       <path id="DejaVuSans-70" d="M 1159 525 
L 1159 -1331 
L 581 -1331 
L 581 3500 
L 1159 3500 
L 1159 2969 
Q 1341 3281 1617 3432 
Q 1894 3584 2278 3584 
Q 2916 3584 3314 3078 
Q 3713 2572 3713 1747 
Q 3713 922 3314 415 
Q 2916 -91 2278 -91 
Q 1894 -91 1617 61 
Q 1341 213 1159 525 
z
M 3116 1747 
Q 3116 2381 2855 2742 
Q 2594 3103 2138 3103 
Q 1681 3103 1420 2742 
Q 1159 2381 1159 1747 
Q 1159 1113 1420 752 
Q 1681 391 2138 391 
Q 2594 391 2855 752 
Q 3116 1113 3116 1747 
z
" transform="scale(0.015625)"/>
      </defs>
      <use xlink:href="#DejaVuSans-66"/>
      <use xlink:href="#DejaVuSans-69" x="35.205078"/>
      <use xlink:href="#DejaVuSans-78" x="62.988281"/>
      <use xlink:href="#DejaVuSans-65" x="119.042969"/>
      <use xlink:href="#DejaVuSans-64" x="180.566406"/>
      <use xlink:href="#DejaVuSans-20" x="244.042969"/>
      <use xlink:href="#DejaVuSans-74" x="275.830078"/>
      <use xlink:href="#DejaVuSans-65" x="315.039062"/>
      <use xlink:href="#DejaVuSans-6d" x="376.5625"/>
      <use xlink:href="#DejaVuSans-70" x="473.974609"/>
      <use xlink:href="#DejaVuSans-6c" x="537.451172"/>
      <use xlink:href="#DejaVuSans-61" x="565.234375"/>
      <use xlink:href="#DejaVuSans-74" x="626.513672"/>
      <use xlink:href="#DejaVuSans-65" x="665.722656"/>
     </g>
    </g>
    <g id="line2d_15">
     <path d="M 66.6 293.004312 
L 76.6 293.004312 
L 86.6 293.004312 
" style="fill: none; stroke-dasharray: 1.5,2.475; stroke-dashoffset: 0; stroke: #808080; stroke-width: 1.5"/>
    </g>
    <g id="text_15">
     <!-- size&amp;shape varying template -->
     <g transform="translate(94.6 296.504312) scale(0.1 -0.1)">
      <defs>
       <path id="DejaVuSans-7a" d="M 353 3500 
L 3084 3500 
L 3084 2975 
L 922 459 
L 3084 459 
L 3084 0 
L 275 0 
L 275 525 
L 2438 3041 
L 353 3041 
L 353 3500 
z
" transform="scale(0.015625)"/>
       <path id="DejaVuSans-26" d="M 1556 2509 
Q 1272 2256 1139 2004 
Q 1006 1753 1006 1478 
Q 1006 1022 1337 719 
Q 1669 416 2169 416 
Q 2466 416 2725 514 
Q 2984 613 3213 813 
L 1556 2509 
z
M 1997 2859 
L 3584 1234 
Q 3769 1513 3872 1830 
Q 3975 2147 3994 2503 
L 4575 2503 
Q 4538 2091 4375 1687 
Q 4213 1284 3922 891 
L 4794 0 
L 4006 0 
L 3559 459 
Q 3234 181 2878 45 
Q 2522 -91 2113 -91 
Q 1359 -91 881 339 
Q 403 769 403 1441 
Q 403 1841 612 2192 
Q 822 2544 1241 2853 
Q 1091 3050 1012 3245 
Q 934 3441 934 3628 
Q 934 4134 1281 4442 
Q 1628 4750 2203 4750 
Q 2463 4750 2720 4694 
Q 2978 4638 3244 4525 
L 3244 3956 
Q 2972 4103 2725 4179 
Q 2478 4256 2266 4256 
Q 1938 4256 1733 4082 
Q 1528 3909 1528 3634 
Q 1528 3475 1620 3314 
Q 1713 3153 1997 2859 
z
" transform="scale(0.015625)"/>
       <path id="DejaVuSans-68" d="M 3513 2113 
L 3513 0 
L 2938 0 
L 2938 2094 
Q 2938 2591 2744 2837 
Q 2550 3084 2163 3084 
Q 1697 3084 1428 2787 
Q 1159 2491 1159 1978 
L 1159 0 
L 581 0 
L 581 4863 
L 1159 4863 
L 1159 2956 
Q 1366 3272 1645 3428 
Q 1925 3584 2291 3584 
Q 2894 3584 3203 3211 
Q 3513 2838 3513 2113 
z
" transform="scale(0.015625)"/>
       <path id="DejaVuSans-76" d="M 191 3500 
L 800 3500 
L 1894 563 
L 2988 3500 
L 3597 3500 
L 2284 0 
L 1503 0 
L 191 3500 
z
" transform="scale(0.015625)"/>
       <path id="DejaVuSans-79" d="M 2059 -325 
Q 1816 -950 1584 -1140 
Q 1353 -1331 966 -1331 
L 506 -1331 
L 506 -850 
L 844 -850 
Q 1081 -850 1212 -737 
Q 1344 -625 1503 -206 
L 1606 56 
L 191 3500 
L 800 3500 
L 1894 763 
L 2988 3500 
L 3597 3500 
L 2059 -325 
z
" transform="scale(0.015625)"/>
       <path id="DejaVuSans-67" d="M 2906 1791 
Q 2906 2416 2648 2759 
Q 2391 3103 1925 3103 
Q 1463 3103 1205 2759 
Q 947 2416 947 1791 
Q 947 1169 1205 825 
Q 1463 481 1925 481 
Q 2391 481 2648 825 
Q 2906 1169 2906 1791 
z
M 3481 434 
Q 3481 -459 3084 -895 
Q 2688 -1331 1869 -1331 
Q 1566 -1331 1297 -1286 
Q 1028 -1241 775 -1147 
L 775 -588 
Q 1028 -725 1275 -790 
Q 1522 -856 1778 -856 
Q 2344 -856 2625 -561 
Q 2906 -266 2906 331 
L 2906 616 
Q 2728 306 2450 153 
Q 2172 0 1784 0 
Q 1141 0 747 490 
Q 353 981 353 1791 
Q 353 2603 747 3093 
Q 1141 3584 1784 3584 
Q 2172 3584 2450 3431 
Q 2728 3278 2906 2969 
L 2906 3500 
L 3481 3500 
L 3481 434 
z
" transform="scale(0.015625)"/>
      </defs>
      <use xlink:href="#DejaVuSans-73"/>
      <use xlink:href="#DejaVuSans-69" x="52.099609"/>
      <use xlink:href="#DejaVuSans-7a" x="79.882812"/>
      <use xlink:href="#DejaVuSans-65" x="132.373047"/>
      <use xlink:href="#DejaVuSans-26" x="193.896484"/>
      <use xlink:href="#DejaVuSans-73" x="271.875"/>
      <use xlink:href="#DejaVuSans-68" x="323.974609"/>
      <use xlink:href="#DejaVuSans-61" x="387.353516"/>
      <use xlink:href="#DejaVuSans-70" x="448.632812"/>
      <use xlink:href="#DejaVuSans-65" x="512.109375"/>
      <use xlink:href="#DejaVuSans-20" x="573.632812"/>
      <use xlink:href="#DejaVuSans-76" x="605.419922"/>
      <use xlink:href="#DejaVuSans-61" x="664.599609"/>
      <use xlink:href="#DejaVuSans-72" x="725.878906"/>
      <use xlink:href="#DejaVuSans-79" x="766.992188"/>
      <use xlink:href="#DejaVuSans-69" x="826.171875"/>
      <use xlink:href="#DejaVuSans-6e" x="853.955078"/>
      <use xlink:href="#DejaVuSans-67" x="917.333984"/>
      <use xlink:href="#DejaVuSans-20" x="980.810547"/>
      <use xlink:href="#DejaVuSans-74" x="1012.597656"/>
      <use xlink:href="#DejaVuSans-65" x="1051.806641"/>
      <use xlink:href="#DejaVuSans-6d" x="1113.330078"/>
      <use xlink:href="#DejaVuSans-70" x="1210.742188"/>
      <use xlink:href="#DejaVuSans-6c" x="1274.21875"/>
      <use xlink:href="#DejaVuSans-61" x="1302.001953"/>
      <use xlink:href="#DejaVuSans-74" x="1363.28125"/>
      <use xlink:href="#DejaVuSans-65" x="1402.490234"/>
     </g>
    </g>
   </g>
  </g>
 </g>
 <defs>
  <clipPath id="p58173c4f21">
   <rect x="57.6" y="41.472" width="357.12" height="266.112"/>
  </clipPath>
 </defs>
</svg>
