<?xml version="1.0" encoding="utf-8" standalone="no"?>
<!DOCTYPE svg PUBLIC "-//W3C//DTD SVG 1.1//EN"
  "http://www.w3.org/Graphics/SVG/1.1/DTD/svg11.dtd">
<svg xmlns:xlink="http://www.w3.org/1999/xlink" width="460.8pt" height="345.6pt" viewBox="0 0 460.8 345.6" xmlns="http://www.w3.org/2000/svg" version="1.1">
 <metadata>
  <rdf:RDF xmlns:dc="http://purl.org/dc/elements/1.1/" xmlns:cc="http://creativecommons.org/ns#" xmlns:rdf="http://www.w3.org/1999/02/22-rdf-syntax-ns#">
   <cc:Work>
    <dc:type rdf:resource="http://purl.org/dc/dcmitype/StillImage"/>
    <dc:date>2025-12-03T07:56:54.418113</dc:date>
    <dc:format>image/svg+xml</dc:format>
    <dc:creator>
     <cc:Agent>
      <dc:title>Matplotlib v3.7.5, https://matplotlib.org/</dc:title>
     </cc:Agent>
    </dc:creator>
   </cc:Work>
  </rdf:RDF>
 </metadata>
 <defs>
  <style type="text/css">*{stroke-linejoin: round; stroke-linecap: butt}</style>
 </defs>
 <g id="figure_1">
  <g id="patch_1">
   <path d="M 0 345.6 
L 460.8 345.6 
L 460.8 0 
L 0 0 
z
" style="fill: #ffffff"/>
  </g>
  <g id="axes_1">
   <g id="patch_2">
    <path d="M 57.6 307.584 
L 414.72 307.584 
L 414.72 41.472 
L 57.6 41.472 
z
" style="fill: #ffffff"/>
   </g>
   <g id="PolyCollection_1">
    <path d="M 73.832727 138.457493 
L 73.832727 122.066862 
L 75.136561 152.145942 
L 75.136561 157.320937 
L 75.136561 157.320937 
L 73.832727 138.457493 
z
" clip-path="url(#p8049d0f674)" style="fill: #008000; fill-opacity: 0.2"/>
    <path d="M 81.655728 196.601864 
L 81.655728 182.624528 
L 81.655728 196.601864 
L 81.655728 196.601864 
z
" clip-path="url(#p8049d0f674)" style="fill: #008000; fill-opacity: 0.2"/>
    <path d="M 106.428565 135.015528 
L 106.428565 128.323369 
L 107.732399 93.186445 
L 109.036232 125.652834 
L 109.036232 147.469893 
L 109.036232 147.469893 
L 107.732399 142.936692 
L 106.428565 135.015528 
z
" clip-path="url(#p8049d0f674)" style="fill: #008000; fill-opacity: 0.2"/>
    <path d="M 114.251566 161.767183 
L 114.251566 145.839352 
L 115.5554 145.663842 
L 116.859233 145.013484 
L 118.163067 147.093469 
L 118.163067 165.043364 
L 118.163067 165.043364 
L 116.859233 159.871997 
L 115.5554 159.512123 
L 114.251566 161.767183 
z
" clip-path="url(#p8049d0f674)" style="fill: #008000; fill-opacity: 0.2"/>
    <path d="M 122.074567 171.945583 
L 122.074567 153.161111 
L 122.074567 171.945583 
L 122.074567 171.945583 
z
" clip-path="url(#p8049d0f674)" style="fill: #008000; fill-opacity: 0.2"/>
    <path d="M 132.505235 165.890572 
L 132.505235 137.46076 
L 132.505235 165.890572 
L 132.505235 165.890572 
z
" clip-path="url(#p8049d0f674)" style="fill: #008000; fill-opacity: 0.2"/>
    <path d="M 140.328237 173.962856 
L 140.328237 148.828097 
L 141.63207 178.900645 
L 142.935904 176.398652 
L 142.935904 177.899847 
L 142.935904 177.899847 
L 141.63207 179.635201 
L 140.328237 173.962856 
z
" clip-path="url(#p8049d0f674)" style="fill: #008000; fill-opacity: 0.2"/>
    <path d="M 146.847404 193.870794 
L 146.847404 191.317846 
L 146.847404 193.870794 
L 146.847404 193.870794 
z
" clip-path="url(#p8049d0f674)" style="fill: #008000; fill-opacity: 0.2"/>
    <path d="M 155.974239 218.728859 
L 155.974239 217.655187 
L 157.278072 193.446754 
L 157.278072 220.79607 
L 157.278072 220.79607 
L 155.974239 218.728859 
z
" clip-path="url(#p8049d0f674)" style="fill: #008000; fill-opacity: 0.2"/>
    <path d="M 159.885739 220.446067 
L 159.885739 218.975212 
L 161.189573 213.782215 
L 162.493406 208.304106 
L 163.79724 212.109575 
L 165.101073 203.817794 
L 166.404907 195.22232 
L 167.70874 179.229889 
L 169.012574 167.053813 
L 170.316407 171.730442 
L 171.620241 165.215825 
L 172.924074 134.39522 
L 174.227908 141.614199 
L 175.531742 93.831432 
L 176.835575 124.480447 
L 178.139409 74.818028 
L 179.443242 107.571126 
L 180.747076 92.176793 
L 182.050909 83.391582 
L 183.354743 89.322038 
L 184.658576 53.568 
L 185.96241 65.331214 
L 187.266243 61.579023 
L 188.570077 73.389562 
L 189.87391 67.713297 
L 191.177744 88.43999 
L 192.481577 100.874176 
L 193.785411 87.496389 
L 195.089244 109.041111 
L 196.393078 97.61469 
L 197.696911 100.404118 
L 199.000745 98.083441 
L 200.304578 128.555494 
L 201.608412 111.280928 
L 202.912245 114.300304 
L 204.216079 110.686169 
L 205.519912 145.353906 
L 206.823746 137.561653 
L 208.127579 155.652797 
L 209.431413 152.837528 
L 210.735246 150.801964 
L 210.735246 189.180083 
L 210.735246 189.180083 
L 209.431413 183.588452 
L 208.127579 176.92431 
L 206.823746 174.285712 
L 205.519912 175.034786 
L 204.216079 168.226926 
L 202.912245 169.244854 
L 201.608412 166.25785 
L 200.304578 160.711221 
L 199.000745 157.684151 
L 197.696911 162.848404 
L 196.393078 158.765081 
L 195.089244 156.856541 
L 193.785411 152.311435 
L 192.481577 157.52911 
L 191.177744 151.723499 
L 189.87391 145.020016 
L 188.570077 143.511852 
L 187.266243 144.076561 
L 185.96241 144.437161 
L 184.658576 140.968051 
L 183.354743 144.175712 
L 182.050909 146.333073 
L 180.747076 151.586314 
L 179.443242 162.02181 
L 178.139409 162.691911 
L 176.835575 172.886716 
L 175.531742 170.952335 
L 174.227908 186.013941 
L 172.924074 190.486607 
L 171.620241 202.118442 
L 170.316407 205.285456 
L 169.012574 209.271805 
L 167.70874 216.635663 
L 166.404907 220.548702 
L 165.101073 221.14288 
L 163.79724 225.724278 
L 162.493406 224.576714 
L 161.189573 221.400555 
L 159.885739 220.446067 
z
" clip-path="url(#p8049d0f674)" style="fill: #008000; fill-opacity: 0.2"/>
    <path d="M 238.11575 159.483524 
L 238.11575 150.78556 
L 238.11575 159.483524 
L 238.11575 159.483524 
z
" clip-path="url(#p8049d0f674)" style="fill: #008000; fill-opacity: 0.2"/>
    <path d="M 240.723417 147.137746 
L 240.723417 135.560784 
L 240.723417 147.137746 
L 240.723417 147.137746 
z
" clip-path="url(#p8049d0f674)" style="fill: #008000; fill-opacity: 0.2"/>
    <path d="M 244.634918 135.712196 
L 244.634918 118.065996 
L 245.938751 133.150974 
L 247.242585 122.315682 
L 247.242585 136.127961 
L 247.242585 136.127961 
L 245.938751 140.186024 
L 244.634918 135.712196 
z
" clip-path="url(#p8049d0f674)" style="fill: #008000; fill-opacity: 0.2"/>
    <path d="M 251.154085 140.941194 
L 251.154085 125.904122 
L 251.154085 140.941194 
L 251.154085 140.941194 
z
" clip-path="url(#p8049d0f674)" style="fill: #008000; fill-opacity: 0.2"/>
    <path d="M 256.369419 144.871798 
L 256.369419 140.679309 
L 257.673253 143.870275 
L 258.977087 151.60838 
L 260.28092 147.899449 
L 261.584754 150.102539 
L 262.888587 154.323191 
L 262.888587 164.293854 
L 262.888587 164.293854 
L 261.584754 165.605024 
L 260.28092 163.38524 
L 258.977087 157.754413 
L 257.673253 154.292851 
L 256.369419 144.871798 
z
" clip-path="url(#p8049d0f674)" style="fill: #008000; fill-opacity: 0.2"/>
    <path d="M 265.496254 160.903716 
L 265.496254 156.473294 
L 266.800088 138.387957 
L 268.103921 129.766642 
L 268.103921 156.549943 
L 268.103921 156.549943 
L 266.800088 161.111888 
L 265.496254 160.903716 
z
" clip-path="url(#p8049d0f674)" style="fill: #008000; fill-opacity: 0.2"/>
    <path d="M 270.711588 148.039973 
L 270.711588 135.382371 
L 272.015422 123.207893 
L 273.319255 118.053221 
L 274.623089 132.441532 
L 275.926922 115.087267 
L 277.230756 130.204182 
L 278.534589 170.083206 
L 279.838423 168.68842 
L 281.142256 204.582691 
L 281.142256 207.662168 
L 281.142256 207.662168 
L 279.838423 204.990617 
L 278.534589 209.989522 
L 277.230756 135.58677 
L 275.926922 135.899464 
L 274.623089 147.477007 
L 273.319255 140.852931 
L 272.015422 147.025675 
L 270.711588 148.039973 
z
" clip-path="url(#p8049d0f674)" style="fill: #008000; fill-opacity: 0.2"/>
    <path d="M 285.053757 210.790857 
L 285.053757 203.999256 
L 286.35759 216.37552 
L 287.661424 216.009258 
L 288.965257 213.655483 
L 290.269091 189.043334 
L 290.269091 217.004103 
L 290.269091 217.004103 
L 288.965257 220.116968 
L 287.661424 219.864664 
L 286.35759 217.440917 
L 285.053757 210.790857 
z
" clip-path="url(#p8049d0f674)" style="fill: #008000; fill-opacity: 0.2"/>
    <path d="M 292.876758 224.355476 
L 292.876758 213.739536 
L 294.180591 225.87177 
L 294.180591 232.194183 
L 294.180591 232.194183 
L 292.876758 224.355476 
z
" clip-path="url(#p8049d0f674)" style="fill: #008000; fill-opacity: 0.2"/>
    <path d="M 305.915093 272.263815 
L 305.915093 271.355636 
L 305.915093 272.263815 
L 305.915093 272.263815 
z
" clip-path="url(#p8049d0f674)" style="fill: #008000; fill-opacity: 0.2"/>
    <path d="M 311.130427 263.706084 
L 311.130427 251.022207 
L 312.434261 259.949538 
L 313.738094 211.545737 
L 315.041928 230.757733 
L 316.345761 228.042196 
L 317.649595 206.085629 
L 318.953428 198.927621 
L 320.257262 183.67657 
L 321.561095 176.295146 
L 322.864929 175.862251 
L 324.168762 171.391037 
L 325.472596 160.261341 
L 326.776429 158.70411 
L 328.080263 161.793894 
L 329.384096 182.421291 
L 330.68793 180.668516 
L 331.991763 181.299422 
L 333.295597 184.381512 
L 334.59943 190.354212 
L 335.903264 196.507068 
L 337.207097 213.868881 
L 337.207097 216.703602 
L 337.207097 216.703602 
L 335.903264 220.306705 
L 334.59943 221.37878 
L 333.295597 225.489539 
L 331.991763 225.7131 
L 330.68793 224.457966 
L 329.384096 223.221124 
L 328.080263 215.996483 
L 326.776429 214.336472 
L 325.472596 216.953294 
L 324.168762 215.741856 
L 322.864929 227.336383 
L 321.561095 227.444244 
L 320.257262 234.166308 
L 318.953428 245.457432 
L 317.649595 245.409381 
L 316.345761 251.224863 
L 315.041928 256.210412 
L 313.738094 258.290253 
L 312.434261 263.611289 
L 311.130427 263.706084 
z
" clip-path="url(#p8049d0f674)" style="fill: #008000; fill-opacity: 0.2"/>
    <path d="M 341.118598 239.658499 
L 341.118598 236.516309 
L 341.118598 239.658499 
L 341.118598 239.658499 
z
" clip-path="url(#p8049d0f674)" style="fill: #008000; fill-opacity: 0.2"/>
    <path d="M 348.941599 247.380344 
L 348.941599 235.544836 
L 348.941599 247.380344 
L 348.941599 247.380344 
z
" clip-path="url(#p8049d0f674)" style="fill: #008000; fill-opacity: 0.2"/>
    <path d="M 355.460767 217.135336 
L 355.460767 206.696211 
L 355.460767 217.135336 
L 355.460767 217.135336 
z
" clip-path="url(#p8049d0f674)" style="fill: #008000; fill-opacity: 0.2"/>
    <path d="M 359.372267 235.450186 
L 359.372267 233.02731 
L 360.676101 225.380662 
L 361.979934 238.90086 
L 361.979934 241.223859 
L 361.979934 241.223859 
L 360.676101 236.494824 
L 359.372267 235.450186 
z
" clip-path="url(#p8049d0f674)" style="fill: #008000; fill-opacity: 0.2"/>
    <path d="M 364.587601 235.927212 
L 364.587601 229.883524 
L 365.891435 220.482069 
L 367.195268 198.662397 
L 368.499102 201.34919 
L 369.802935 176.409685 
L 371.106769 165.240358 
L 372.410602 153.472209 
L 373.714436 159.465669 
L 375.018269 145.281176 
L 376.322103 180.209781 
L 377.625936 180.254639 
L 378.92977 167.7409 
L 380.233604 129.975976 
L 381.537437 127.756483 
L 382.841271 128.99739 
L 384.145104 142.54967 
L 385.448938 143.283065 
L 386.752771 177.329477 
L 388.056605 171.089084 
L 389.360438 201.91956 
L 390.664272 172.718755 
L 391.968105 198.003909 
L 393.271939 217.094108 
L 393.271939 217.624847 
L 393.271939 217.624847 
L 391.968105 213.076838 
L 390.664272 219.706575 
L 389.360438 213.057675 
L 388.056605 208.824974 
L 386.752771 192.156344 
L 385.448938 192.413294 
L 384.145104 188.951587 
L 382.841271 179.20579 
L 381.537437 183.615453 
L 380.233604 183.324679 
L 378.92977 181.912472 
L 377.625936 185.235833 
L 376.322103 188.547435 
L 375.018269 188.106846 
L 373.714436 192.908902 
L 372.410602 185.394213 
L 371.106769 199.623853 
L 369.802935 207.89531 
L 368.499102 217.750128 
L 367.195268 221.237966 
L 365.891435 223.17075 
L 364.587601 235.927212 
z
" clip-path="url(#p8049d0f674)" style="fill: #008000; fill-opacity: 0.2"/>
    <path d="M 397.183439 244.153957 
L 397.183439 226.671508 
L 398.487273 236.149321 
L 398.487273 236.670624 
L 398.487273 236.670624 
L 397.183439 244.153957 
z
" clip-path="url(#p8049d0f674)" style="fill: #008000; fill-opacity: 0.2"/>
   </g>
   <g id="PolyCollection_2">
    <path d="M 76.440394 170.423628 
L 76.440394 180.847946 
L 77.744228 183.3466 
L 79.048061 191.89591 
L 80.351895 202.615212 
L 80.351895 189.956594 
L 80.351895 189.956594 
L 79.048061 188.030632 
L 77.744228 178.802801 
L 76.440394 170.423628 
z
" clip-path="url(#p8049d0f674)" style="fill: #ff0000; fill-opacity: 0.2"/>
    <path d="M 82.959562 193.154383 
L 82.959562 206.596625 
L 84.263395 213.84609 
L 85.567229 216.62042 
L 86.871062 205.110527 
L 88.174896 209.383876 
L 89.478729 220.455648 
L 90.782563 220.380596 
L 92.086396 210.091576 
L 93.39023 214.033358 
L 94.694064 223.782784 
L 95.997897 214.234273 
L 97.301731 226.713171 
L 98.605564 213.162778 
L 99.909398 205.487241 
L 101.213231 199.98097 
L 102.517065 201.063207 
L 103.820898 148.872955 
L 105.124732 155.806967 
L 105.124732 146.268037 
L 105.124732 146.268037 
L 103.820898 136.713138 
L 102.517065 181.959362 
L 101.213231 184.578942 
L 99.909398 184.256085 
L 98.605564 190.793495 
L 97.301731 197.584224 
L 95.997897 201.732582 
L 94.694064 197.748266 
L 93.39023 203.842763 
L 92.086396 210.033508 
L 90.782563 207.788465 
L 89.478729 206.169537 
L 88.174896 201.202424 
L 86.871062 199.384904 
L 85.567229 199.918692 
L 84.263395 199.842914 
L 82.959562 193.154383 
z
" clip-path="url(#p8049d0f674)" style="fill: #ff0000; fill-opacity: 0.2"/>
    <path d="M 110.340066 153.5416 
L 110.340066 159.378277 
L 111.643899 172.036459 
L 112.947733 166.024418 
L 112.947733 161.916126 
L 112.947733 161.916126 
L 111.643899 160.979349 
L 110.340066 153.5416 
z
" clip-path="url(#p8049d0f674)" style="fill: #ff0000; fill-opacity: 0.2"/>
    <path d="M 119.4669 171.747863 
L 119.4669 177.535618 
L 120.770734 180.753586 
L 120.770734 165.316572 
L 120.770734 165.316572 
L 119.4669 171.747863 
z
" clip-path="url(#p8049d0f674)" style="fill: #ff0000; fill-opacity: 0.2"/>
    <path d="M 123.378401 172.969898 
L 123.378401 184.384125 
L 124.682234 181.900713 
L 125.986068 185.762217 
L 127.289901 183.597743 
L 128.593735 190.011613 
L 129.897568 179.220888 
L 131.201402 178.25377 
L 131.201402 160.970058 
L 131.201402 160.970058 
L 129.897568 166.589707 
L 128.593735 174.153318 
L 127.289901 175.58672 
L 125.986068 177.345881 
L 124.682234 179.756127 
L 123.378401 172.969898 
z
" clip-path="url(#p8049d0f674)" style="fill: #ff0000; fill-opacity: 0.2"/>
    <path d="M 133.809069 169.727396 
L 133.809069 174.462238 
L 135.112903 179.154401 
L 136.416736 175.879091 
L 137.72057 180.468763 
L 139.024403 178.040371 
L 139.024403 171.553336 
L 139.024403 171.553336 
L 137.72057 171.736249 
L 136.416736 170.63935 
L 135.112903 167.894779 
L 133.809069 169.727396 
z
" clip-path="url(#p8049d0f674)" style="fill: #ff0000; fill-opacity: 0.2"/>
    <path d="M 144.239737 177.119417 
L 144.239737 189.055528 
L 145.543571 189.53299 
L 145.543571 183.465493 
L 145.543571 183.465493 
L 144.239737 177.119417 
z
" clip-path="url(#p8049d0f674)" style="fill: #ff0000; fill-opacity: 0.2"/>
    <path d="M 148.151238 191.722143 
L 148.151238 198.264197 
L 149.455071 203.157419 
L 150.758905 211.039387 
L 152.062738 220.093015 
L 153.366572 218.648145 
L 154.670405 220.804635 
L 154.670405 218.15907 
L 154.670405 218.15907 
L 153.366572 214.23195 
L 152.062738 212.240953 
L 150.758905 195.748704 
L 149.455071 201.741583 
L 148.151238 191.722143 
z
" clip-path="url(#p8049d0f674)" style="fill: #ff0000; fill-opacity: 0.2"/>
    <path d="M 158.581906 220.443454 
L 158.581906 221.039519 
L 158.581906 220.443454 
L 158.581906 220.443454 
z
" clip-path="url(#p8049d0f674)" style="fill: #ff0000; fill-opacity: 0.2"/>
    <path d="M 212.03908 194.608544 
L 212.03908 195.265435 
L 213.342913 197.291563 
L 214.646747 223.882515 
L 215.950581 232.456069 
L 217.254414 234.733049 
L 218.558248 228.88563 
L 219.862081 241.536264 
L 221.165915 246.399871 
L 222.469748 239.450907 
L 223.773582 232.171972 
L 225.077415 234.003138 
L 226.381249 219.687122 
L 227.685082 192.625822 
L 228.988916 219.827356 
L 230.292749 200.800305 
L 231.596583 202.999039 
L 232.900416 204.732216 
L 234.20425 190.001161 
L 235.508083 177.486696 
L 236.811917 179.957767 
L 236.811917 171.982601 
L 236.811917 171.982601 
L 235.508083 173.481329 
L 234.20425 184.291362 
L 232.900416 185.24193 
L 231.596583 181.332085 
L 230.292749 193.937426 
L 228.988916 194.105678 
L 227.685082 187.986066 
L 226.381249 200.626392 
L 225.077415 199.437165 
L 223.773582 198.102769 
L 222.469748 200.290761 
L 221.165915 206.354773 
L 219.862081 204.998166 
L 218.558248 206.38192 
L 217.254414 203.278636 
L 215.950581 205.850745 
L 214.646747 200.452189 
L 213.342913 195.943521 
L 212.03908 194.608544 
z
" clip-path="url(#p8049d0f674)" style="fill: #ff0000; fill-opacity: 0.2"/>
    <path d="M 239.419584 161.541444 
L 239.419584 165.718401 
L 239.419584 161.541444 
L 239.419584 161.541444 
z
" clip-path="url(#p8049d0f674)" style="fill: #ff0000; fill-opacity: 0.2"/>
    <path d="M 242.027251 148.432076 
L 242.027251 153.856907 
L 243.331084 150.391426 
L 243.331084 142.775554 
L 243.331084 142.775554 
L 242.027251 148.432076 
z
" clip-path="url(#p8049d0f674)" style="fill: #ff0000; fill-opacity: 0.2"/>
    <path d="M 248.546418 135.119615 
L 248.546418 139.55236 
L 249.850252 150.87513 
L 249.850252 137.947948 
L 249.850252 137.947948 
L 248.546418 135.119615 
z
" clip-path="url(#p8049d0f674)" style="fill: #ff0000; fill-opacity: 0.2"/>
    <path d="M 252.457919 140.344984 
L 252.457919 145.026258 
L 253.761752 153.774741 
L 255.065586 145.095504 
L 255.065586 141.70885 
L 255.065586 141.70885 
L 253.761752 139.44566 
L 252.457919 140.344984 
z
" clip-path="url(#p8049d0f674)" style="fill: #ff0000; fill-opacity: 0.2"/>
    <path d="M 264.192421 161.757892 
L 264.192421 167.092283 
L 264.192421 161.757892 
L 264.192421 161.757892 
z
" clip-path="url(#p8049d0f674)" style="fill: #ff0000; fill-opacity: 0.2"/>
    <path d="M 269.407755 156.520183 
L 269.407755 161.050917 
L 269.407755 156.520183 
L 269.407755 156.520183 
z
" clip-path="url(#p8049d0f674)" style="fill: #ff0000; fill-opacity: 0.2"/>
    <path d="M 282.44609 207.689314 
L 282.44609 212.024651 
L 283.749923 208.895671 
L 283.749923 204.968987 
L 283.749923 204.968987 
L 282.44609 207.689314 
z
" clip-path="url(#p8049d0f674)" style="fill: #ff0000; fill-opacity: 0.2"/>
    <path d="M 291.572924 224.782855 
L 291.572924 228.622438 
L 291.572924 224.782855 
L 291.572924 224.782855 
z
" clip-path="url(#p8049d0f674)" style="fill: #ff0000; fill-opacity: 0.2"/>
    <path d="M 295.484425 221.099039 
L 295.484425 235.23548 
L 296.788258 242.673955 
L 298.092092 251.803653 
L 299.395926 257.302086 
L 300.699759 253.115258 
L 302.003593 272.973693 
L 303.307426 276.318103 
L 304.61126 286.427693 
L 304.61126 272.33698 
L 304.61126 272.33698 
L 303.307426 265.811184 
L 302.003593 257.107559 
L 300.699759 248.815198 
L 299.395926 244.41439 
L 298.092092 243.185242 
L 296.788258 238.191853 
L 295.484425 221.099039 
z
" clip-path="url(#p8049d0f674)" style="fill: #ff0000; fill-opacity: 0.2"/>
    <path d="M 307.218927 264.25105 
L 307.218927 290.616699 
L 308.52276 293.489019 
L 309.826594 295.488 
L 309.826594 282.209944 
L 309.826594 282.209944 
L 308.52276 277.243122 
L 307.218927 264.25105 
z
" clip-path="url(#p8049d0f674)" style="fill: #ff0000; fill-opacity: 0.2"/>
    <path d="M 338.510931 223.538464 
L 338.510931 224.1444 
L 339.814765 232.194183 
L 339.814765 231.643847 
L 339.814765 231.643847 
L 338.510931 223.538464 
z
" clip-path="url(#p8049d0f674)" style="fill: #ff0000; fill-opacity: 0.2"/>
    <path d="M 342.422432 243.803082 
L 342.422432 270.082356 
L 343.726265 275.133376 
L 345.030099 287.356051 
L 346.333932 267.79289 
L 347.637766 269.362025 
L 347.637766 256.991568 
L 347.637766 256.991568 
L 346.333932 254.772801 
L 345.030099 251.328078 
L 343.726265 243.412577 
L 342.422432 243.803082 
z
" clip-path="url(#p8049d0f674)" style="fill: #ff0000; fill-opacity: 0.2"/>
    <path d="M 350.245433 238.61778 
L 350.245433 281.209873 
L 351.549266 225.809347 
L 352.8531 222.693869 
L 354.156933 224.346766 
L 354.156933 216.38452 
L 354.156933 216.38452 
L 352.8531 199.610788 
L 351.549266 202.170123 
L 350.245433 238.61778 
z
" clip-path="url(#p8049d0f674)" style="fill: #ff0000; fill-opacity: 0.2"/>
    <path d="M 356.7646 233.552823 
L 356.7646 251.024965 
L 358.068434 243.663865 
L 358.068434 238.177046 
L 358.068434 238.177046 
L 356.7646 233.552823 
z
" clip-path="url(#p8049d0f674)" style="fill: #ff0000; fill-opacity: 0.2"/>
    <path d="M 363.283768 239.855203 
L 363.283768 240.255725 
L 363.283768 239.855203 
L 363.283768 239.855203 
z
" clip-path="url(#p8049d0f674)" style="fill: #ff0000; fill-opacity: 0.2"/>
    <path d="M 394.575772 238.367218 
L 394.575772 242.395521 
L 395.879606 250.063073 
L 395.879606 244.519057 
L 395.879606 244.519057 
L 394.575772 238.367218 
z
" clip-path="url(#p8049d0f674)" style="fill: #ff0000; fill-opacity: 0.2"/>
   </g>
   <g id="matplotlib.axis_1">
    <g id="xtick_1">
     <g id="line2d_1">
      <defs>
       <path id="m4110a3387c" d="M 0 0 
L 0 3.5 
" style="stroke: #000000; stroke-width: 0.8"/>
      </defs>
      <g>
       <use xlink:href="#m4110a3387c" x="73.832727" y="307.584" style="stroke: #000000; stroke-width: 0.8"/>
      </g>
     </g>
     <g id="text_1">
      <!-- 0 -->
      <g transform="translate(70.651477 322.182437) scale(0.1 -0.1)">
       <defs>
        <path id="DejaVuSans-30" d="M 2034 4250 
Q 1547 4250 1301 3770 
Q 1056 3291 1056 2328 
Q 1056 1369 1301 889 
Q 1547 409 2034 409 
Q 2525 409 2770 889 
Q 3016 1369 3016 2328 
Q 3016 3291 2770 3770 
Q 2525 4250 2034 4250 
z
M 2034 4750 
Q 2819 4750 3233 4129 
Q 3647 3509 3647 2328 
Q 3647 1150 3233 529 
Q 2819 -91 2034 -91 
Q 1250 -91 836 529 
Q 422 1150 422 2328 
Q 422 3509 836 4129 
Q 1250 4750 2034 4750 
z
" transform="scale(0.015625)"/>
       </defs>
       <use xlink:href="#DejaVuSans-30"/>
      </g>
     </g>
    </g>
    <g id="xtick_2">
     <g id="line2d_2">
      <g>
       <use xlink:href="#m4110a3387c" x="139.024403" y="307.584" style="stroke: #000000; stroke-width: 0.8"/>
      </g>
     </g>
     <g id="text_2">
      <!-- 50 -->
      <g transform="translate(132.661903 322.182437) scale(0.1 -0.1)">
       <defs>
        <path id="DejaVuSans-35" d="M 691 4666 
L 3169 4666 
L 3169 4134 
L 1269 4134 
L 1269 2991 
Q 1406 3038 1543 3061 
Q 1681 3084 1819 3084 
Q 2600 3084 3056 2656 
Q 3513 2228 3513 1497 
Q 3513 744 3044 326 
Q 2575 -91 1722 -91 
Q 1428 -91 1123 -41 
Q 819 9 494 109 
L 494 744 
Q 775 591 1075 516 
Q 1375 441 1709 441 
Q 2250 441 2565 725 
Q 2881 1009 2881 1497 
Q 2881 1984 2565 2268 
Q 2250 2553 1709 2553 
Q 1456 2553 1204 2497 
Q 953 2441 691 2322 
L 691 4666 
z
" transform="scale(0.015625)"/>
       </defs>
       <use xlink:href="#DejaVuSans-35"/>
       <use xlink:href="#DejaVuSans-30" x="63.623047"/>
      </g>
     </g>
    </g>
    <g id="xtick_3">
     <g id="line2d_3">
      <g>
       <use xlink:href="#m4110a3387c" x="204.216079" y="307.584" style="stroke: #000000; stroke-width: 0.8"/>
      </g>
     </g>
     <g id="text_3">
      <!-- 100 -->
      <g transform="translate(194.672329 322.182437) scale(0.1 -0.1)">
       <defs>
        <path id="DejaVuSans-31" d="M 794 531 
L 1825 531 
L 1825 4091 
L 703 3866 
L 703 4441 
L 1819 4666 
L 2450 4666 
L 2450 531 
L 3481 531 
L 3481 0 
L 794 0 
L 794 531 
z
" transform="scale(0.015625)"/>
       </defs>
       <use xlink:href="#DejaVuSans-31"/>
       <use xlink:href="#DejaVuSans-30" x="63.623047"/>
       <use xlink:href="#DejaVuSans-30" x="127.246094"/>
      </g>
     </g>
    </g>
    <g id="xtick_4">
     <g id="line2d_4">
      <g>
       <use xlink:href="#m4110a3387c" x="269.407755" y="307.584" style="stroke: #000000; stroke-width: 0.8"/>
      </g>
     </g>
     <g id="text_4">
      <!-- 150 -->
      <g transform="translate(259.864005 322.182437) scale(0.1 -0.1)">
       <use xlink:href="#DejaVuSans-31"/>
       <use xlink:href="#DejaVuSans-35" x="63.623047"/>
       <use xlink:href="#DejaVuSans-30" x="127.246094"/>
      </g>
     </g>
    </g>
    <g id="xtick_5">
     <g id="line2d_5">
      <g>
       <use xlink:href="#m4110a3387c" x="334.59943" y="307.584" style="stroke: #000000; stroke-width: 0.8"/>
      </g>
     </g>
     <g id="text_5">
      <!-- 200 -->
      <g transform="translate(325.05568 322.182437) scale(0.1 -0.1)">
       <defs>
        <path id="DejaVuSans-32" d="M 1228 531 
L 3431 531 
L 3431 0 
L 469 0 
L 469 531 
Q 828 903 1448 1529 
Q 2069 2156 2228 2338 
Q 2531 2678 2651 2914 
Q 2772 3150 2772 3378 
Q 2772 3750 2511 3984 
Q 2250 4219 1831 4219 
Q 1534 4219 1204 4116 
Q 875 4013 500 3803 
L 500 4441 
Q 881 4594 1212 4672 
Q 1544 4750 1819 4750 
Q 2544 4750 2975 4387 
Q 3406 4025 3406 3419 
Q 3406 3131 3298 2873 
Q 3191 2616 2906 2266 
Q 2828 2175 2409 1742 
Q 1991 1309 1228 531 
z
" transform="scale(0.015625)"/>
       </defs>
       <use xlink:href="#DejaVuSans-32"/>
       <use xlink:href="#DejaVuSans-30" x="63.623047"/>
       <use xlink:href="#DejaVuSans-30" x="127.246094"/>
      </g>
     </g>
    </g>
    <g id="xtick_6">
     <g id="line2d_6">
      <g>
       <use xlink:href="#m4110a3387c" x="399.791106" y="307.584" style="stroke: #000000; stroke-width: 0.8"/>
      </g>
     </g>
     <g id="text_6">
      <!-- 250 -->
      <g transform="translate(390.247356 322.182437) scale(0.1 -0.1)">
       <use xlink:href="#DejaVuSans-32"/>
       <use xlink:href="#DejaVuSans-35" x="63.623047"/>
       <use xlink:href="#DejaVuSans-30" x="127.246094"/>
      </g>
     </g>
    </g>
    <g id="text_7">
     <!-- Frame index -->
     <g transform="translate(205.310781 335.860562) scale(0.1 -0.1)">
      <defs>
       <path id="DejaVuSans-46" d="M 628 4666 
L 3309 4666 
L 3309 4134 
L 1259 4134 
L 1259 2759 
L 3109 2759 
L 3109 2228 
L 1259 2228 
L 1259 0 
L 628 0 
L 628 4666 
z
" transform="scale(0.015625)"/>
       <path id="DejaVuSans-72" d="M 2631 2963 
Q 2534 3019 2420 3045 
Q 2306 3072 2169 3072 
Q 1681 3072 1420 2755 
Q 1159 2438 1159 1844 
L 1159 0 
L 581 0 
L 581 3500 
L 1159 3500 
L 1159 2956 
Q 1341 3275 1631 3429 
Q 1922 3584 2338 3584 
Q 2397 3584 2469 3576 
Q 2541 3569 2628 3553 
L 2631 2963 
z
" transform="scale(0.015625)"/>
       <path id="DejaVuSans-61" d="M 2194 1759 
Q 1497 1759 1228 1600 
Q 959 1441 959 1056 
Q 959 750 1161 570 
Q 1363 391 1709 391 
Q 2188 391 2477 730 
Q 2766 1069 2766 1631 
L 2766 1759 
L 2194 1759 
z
M 3341 1997 
L 3341 0 
L 2766 0 
L 2766 531 
Q 2569 213 2275 61 
Q 1981 -91 1556 -91 
Q 1019 -91 701 211 
Q 384 513 384 1019 
Q 384 1609 779 1909 
Q 1175 2209 1959 2209 
L 2766 2209 
L 2766 2266 
Q 2766 2663 2505 2880 
Q 2244 3097 1772 3097 
Q 1472 3097 1187 3025 
Q 903 2953 641 2809 
L 641 3341 
Q 956 3463 1253 3523 
Q 1550 3584 1831 3584 
Q 2591 3584 2966 3190 
Q 3341 2797 3341 1997 
z
" transform="scale(0.015625)"/>
       <path id="DejaVuSans-6d" d="M 3328 2828 
Q 3544 3216 3844 3400 
Q 4144 3584 4550 3584 
Q 5097 3584 5394 3201 
Q 5691 2819 5691 2113 
L 5691 0 
L 5113 0 
L 5113 2094 
Q 5113 2597 4934 2840 
Q 4756 3084 4391 3084 
Q 3944 3084 3684 2787 
Q 3425 2491 3425 1978 
L 3425 0 
L 2847 0 
L 2847 2094 
Q 2847 2600 2669 2842 
Q 2491 3084 2119 3084 
Q 1678 3084 1418 2786 
Q 1159 2488 1159 1978 
L 1159 0 
L 581 0 
L 581 3500 
L 1159 3500 
L 1159 2956 
Q 1356 3278 1631 3431 
Q 1906 3584 2284 3584 
Q 2666 3584 2933 3390 
Q 3200 3197 3328 2828 
z
" transform="scale(0.015625)"/>
       <path id="DejaVuSans-65" d="M 3597 1894 
L 3597 1613 
L 953 1613 
Q 991 1019 1311 708 
Q 1631 397 2203 397 
Q 2534 397 2845 478 
Q 3156 559 3463 722 
L 3463 178 
Q 3153 47 2828 -22 
Q 2503 -91 2169 -91 
Q 1331 -91 842 396 
Q 353 884 353 1716 
Q 353 2575 817 3079 
Q 1281 3584 2069 3584 
Q 2775 3584 3186 3129 
Q 3597 2675 3597 1894 
z
M 3022 2063 
Q 3016 2534 2758 2815 
Q 2500 3097 2075 3097 
Q 1594 3097 1305 2825 
Q 1016 2553 972 2059 
L 3022 2063 
z
" transform="scale(0.015625)"/>
       <path id="DejaVuSans-20" transform="scale(0.015625)"/>
       <path id="DejaVuSans-69" d="M 603 3500 
L 1178 3500 
L 1178 0 
L 603 0 
L 603 3500 
z
M 603 4863 
L 1178 4863 
L 1178 4134 
L 603 4134 
L 603 4863 
z
" transform="scale(0.015625)"/>
       <path id="DejaVuSans-6e" d="M 3513 2113 
L 3513 0 
L 2938 0 
L 2938 2094 
Q 2938 2591 2744 2837 
Q 2550 3084 2163 3084 
Q 1697 3084 1428 2787 
Q 1159 2491 1159 1978 
L 1159 0 
L 581 0 
L 581 3500 
L 1159 3500 
L 1159 2956 
Q 1366 3272 1645 3428 
Q 1925 3584 2291 3584 
Q 2894 3584 3203 3211 
Q 3513 2838 3513 2113 
z
" transform="scale(0.015625)"/>
       <path id="DejaVuSans-64" d="M 2906 2969 
L 2906 4863 
L 3481 4863 
L 3481 0 
L 2906 0 
L 2906 525 
Q 2725 213 2448 61 
Q 2172 -91 1784 -91 
Q 1150 -91 751 415 
Q 353 922 353 1747 
Q 353 2572 751 3078 
Q 1150 3584 1784 3584 
Q 2172 3584 2448 3432 
Q 2725 3281 2906 2969 
z
M 947 1747 
Q 947 1113 1208 752 
Q 1469 391 1925 391 
Q 2381 391 2643 752 
Q 2906 1113 2906 1747 
Q 2906 2381 2643 2742 
Q 2381 3103 1925 3103 
Q 1469 3103 1208 2742 
Q 947 2381 947 1747 
z
" transform="scale(0.015625)"/>
       <path id="DejaVuSans-78" d="M 3513 3500 
L 2247 1797 
L 3578 0 
L 2900 0 
L 1881 1375 
L 863 0 
L 184 0 
L 1544 1831 
L 300 3500 
L 978 3500 
L 1906 2253 
L 2834 3500 
L 3513 3500 
z
" transform="scale(0.015625)"/>
      </defs>
      <use xlink:href="#DejaVuSans-46"/>
      <use xlink:href="#DejaVuSans-72" x="50.269531"/>
      <use xlink:href="#DejaVuSans-61" x="91.382812"/>
      <use xlink:href="#DejaVuSans-6d" x="152.662109"/>
      <use xlink:href="#DejaVuSans-65" x="250.074219"/>
      <use xlink:href="#DejaVuSans-20" x="311.597656"/>
      <use xlink:href="#DejaVuSans-69" x="343.384766"/>
      <use xlink:href="#DejaVuSans-6e" x="371.167969"/>
      <use xlink:href="#DejaVuSans-64" x="434.546875"/>
      <use xlink:href="#DejaVuSans-65" x="498.023438"/>
      <use xlink:href="#DejaVuSans-78" x="557.796875"/>
     </g>
    </g>
   </g>
   <g id="matplotlib.axis_2">
    <g id="ytick_1">
     <g id="line2d_7">
      <defs>
       <path id="m7f0d2d40cc" d="M 0 0 
L -3.5 0 
" style="stroke: #000000; stroke-width: 0.8"/>
      </defs>
      <g>
       <use xlink:href="#m7f0d2d40cc" x="57.6" y="268.13207" style="stroke: #000000; stroke-width: 0.8"/>
      </g>
     </g>
     <g id="text_8">
      <!-- 0.16 -->
      <g transform="translate(28.334375 271.931289) scale(0.1 -0.1)">
       <defs>
        <path id="DejaVuSans-2e" d="M 684 794 
L 1344 794 
L 1344 0 
L 684 0 
L 684 794 
z
" transform="scale(0.015625)"/>
        <path id="DejaVuSans-36" d="M 2113 2584 
Q 1688 2584 1439 2293 
Q 1191 2003 1191 1497 
Q 1191 994 1439 701 
Q 1688 409 2113 409 
Q 2538 409 2786 701 
Q 3034 994 3034 1497 
Q 3034 2003 2786 2293 
Q 2538 2584 2113 2584 
z
M 3366 4563 
L 3366 3988 
Q 3128 4100 2886 4159 
Q 2644 4219 2406 4219 
Q 1781 4219 1451 3797 
Q 1122 3375 1075 2522 
Q 1259 2794 1537 2939 
Q 1816 3084 2150 3084 
Q 2853 3084 3261 2657 
Q 3669 2231 3669 1497 
Q 3669 778 3244 343 
Q 2819 -91 2113 -91 
Q 1303 -91 875 529 
Q 447 1150 447 2328 
Q 447 3434 972 4092 
Q 1497 4750 2381 4750 
Q 2619 4750 2861 4703 
Q 3103 4656 3366 4563 
z
" transform="scale(0.015625)"/>
       </defs>
       <use xlink:href="#DejaVuSans-30"/>
       <use xlink:href="#DejaVuSans-2e" x="63.623047"/>
       <use xlink:href="#DejaVuSans-31" x="95.410156"/>
       <use xlink:href="#DejaVuSans-36" x="159.033203"/>
      </g>
     </g>
    </g>
    <g id="ytick_2">
     <g id="line2d_8">
      <g>
       <use xlink:href="#m7f0d2d40cc" x="57.6" y="219.421334" style="stroke: #000000; stroke-width: 0.8"/>
      </g>
     </g>
     <g id="text_9">
      <!-- 0.18 -->
      <g transform="translate(28.334375 223.220553) scale(0.1 -0.1)">
       <defs>
        <path id="DejaVuSans-38" d="M 2034 2216 
Q 1584 2216 1326 1975 
Q 1069 1734 1069 1313 
Q 1069 891 1326 650 
Q 1584 409 2034 409 
Q 2484 409 2743 651 
Q 3003 894 3003 1313 
Q 3003 1734 2745 1975 
Q 2488 2216 2034 2216 
z
M 1403 2484 
Q 997 2584 770 2862 
Q 544 3141 544 3541 
Q 544 4100 942 4425 
Q 1341 4750 2034 4750 
Q 2731 4750 3128 4425 
Q 3525 4100 3525 3541 
Q 3525 3141 3298 2862 
Q 3072 2584 2669 2484 
Q 3125 2378 3379 2068 
Q 3634 1759 3634 1313 
Q 3634 634 3220 271 
Q 2806 -91 2034 -91 
Q 1263 -91 848 271 
Q 434 634 434 1313 
Q 434 1759 690 2068 
Q 947 2378 1403 2484 
z
M 1172 3481 
Q 1172 3119 1398 2916 
Q 1625 2713 2034 2713 
Q 2441 2713 2670 2916 
Q 2900 3119 2900 3481 
Q 2900 3844 2670 4047 
Q 2441 4250 2034 4250 
Q 1625 4250 1398 4047 
Q 1172 3844 1172 3481 
z
" transform="scale(0.015625)"/>
       </defs>
       <use xlink:href="#DejaVuSans-30"/>
       <use xlink:href="#DejaVuSans-2e" x="63.623047"/>
       <use xlink:href="#DejaVuSans-31" x="95.410156"/>
       <use xlink:href="#DejaVuSans-38" x="159.033203"/>
      </g>
     </g>
    </g>
    <g id="ytick_3">
     <g id="line2d_9">
      <g>
       <use xlink:href="#m7f0d2d40cc" x="57.6" y="170.710599" style="stroke: #000000; stroke-width: 0.8"/>
      </g>
     </g>
     <g id="text_10">
      <!-- 0.20 -->
      <g transform="translate(28.334375 174.509818) scale(0.1 -0.1)">
       <use xlink:href="#DejaVuSans-30"/>
       <use xlink:href="#DejaVuSans-2e" x="63.623047"/>
       <use xlink:href="#DejaVuSans-32" x="95.410156"/>
       <use xlink:href="#DejaVuSans-30" x="159.033203"/>
      </g>
     </g>
    </g>
    <g id="ytick_4">
     <g id="line2d_10">
      <g>
       <use xlink:href="#m7f0d2d40cc" x="57.6" y="121.999863" style="stroke: #000000; stroke-width: 0.8"/>
      </g>
     </g>
     <g id="text_11">
      <!-- 0.22 -->
      <g transform="translate(28.334375 125.799082) scale(0.1 -0.1)">
       <use xlink:href="#DejaVuSans-30"/>
       <use xlink:href="#DejaVuSans-2e" x="63.623047"/>
       <use xlink:href="#DejaVuSans-32" x="95.410156"/>
       <use xlink:href="#DejaVuSans-32" x="159.033203"/>
      </g>
     </g>
    </g>
    <g id="ytick_5">
     <g id="line2d_11">
      <g>
       <use xlink:href="#m7f0d2d40cc" x="57.6" y="73.289128" style="stroke: #000000; stroke-width: 0.8"/>
      </g>
     </g>
     <g id="text_12">
      <!-- 0.24 -->
      <g transform="translate(28.334375 77.088347) scale(0.1 -0.1)">
       <defs>
        <path id="DejaVuSans-34" d="M 2419 4116 
L 825 1625 
L 2419 1625 
L 2419 4116 
z
M 2253 4666 
L 3047 4666 
L 3047 1625 
L 3713 1625 
L 3713 1100 
L 3047 1100 
L 3047 0 
L 2419 0 
L 2419 1100 
L 313 1100 
L 313 1709 
L 2253 4666 
z
" transform="scale(0.015625)"/>
       </defs>
       <use xlink:href="#DejaVuSans-30"/>
       <use xlink:href="#DejaVuSans-2e" x="63.623047"/>
       <use xlink:href="#DejaVuSans-32" x="95.410156"/>
       <use xlink:href="#DejaVuSans-34" x="159.033203"/>
      </g>
     </g>
    </g>
    <g id="text_13">
     <!-- IOU loss -->
     <g transform="translate(22.254687 194.845188) rotate(-90) scale(0.1 -0.1)">
      <defs>
       <path id="DejaVuSans-49" d="M 628 4666 
L 1259 4666 
L 1259 0 
L 628 0 
L 628 4666 
z
" transform="scale(0.015625)"/>
       <path id="DejaVuSans-4f" d="M 2522 4238 
Q 1834 4238 1429 3725 
Q 1025 3213 1025 2328 
Q 1025 1447 1429 934 
Q 1834 422 2522 422 
Q 3209 422 3611 934 
Q 4013 1447 4013 2328 
Q 4013 3213 3611 3725 
Q 3209 4238 2522 4238 
z
M 2522 4750 
Q 3503 4750 4090 4092 
Q 4678 3434 4678 2328 
Q 4678 1225 4090 567 
Q 3503 -91 2522 -91 
Q 1538 -91 948 565 
Q 359 1222 359 2328 
Q 359 3434 948 4092 
Q 1538 4750 2522 4750 
z
" transform="scale(0.015625)"/>
       <path id="DejaVuSans-55" d="M 556 4666 
L 1191 4666 
L 1191 1831 
Q 1191 1081 1462 751 
Q 1734 422 2344 422 
Q 2950 422 3222 751 
Q 3494 1081 3494 1831 
L 3494 4666 
L 4128 4666 
L 4128 1753 
Q 4128 841 3676 375 
Q 3225 -91 2344 -91 
Q 1459 -91 1007 375 
Q 556 841 556 1753 
L 556 4666 
z
" transform="scale(0.015625)"/>
       <path id="DejaVuSans-6c" d="M 603 4863 
L 1178 4863 
L 1178 0 
L 603 0 
L 603 4863 
z
" transform="scale(0.015625)"/>
       <path id="DejaVuSans-6f" d="M 1959 3097 
Q 1497 3097 1228 2736 
Q 959 2375 959 1747 
Q 959 1119 1226 758 
Q 1494 397 1959 397 
Q 2419 397 2687 759 
Q 2956 1122 2956 1747 
Q 2956 2369 2687 2733 
Q 2419 3097 1959 3097 
z
M 1959 3584 
Q 2709 3584 3137 3096 
Q 3566 2609 3566 1747 
Q 3566 888 3137 398 
Q 2709 -91 1959 -91 
Q 1206 -91 779 398 
Q 353 888 353 1747 
Q 353 2609 779 3096 
Q 1206 3584 1959 3584 
z
" transform="scale(0.015625)"/>
       <path id="DejaVuSans-73" d="M 2834 3397 
L 2834 2853 
Q 2591 2978 2328 3040 
Q 2066 3103 1784 3103 
Q 1356 3103 1142 2972 
Q 928 2841 928 2578 
Q 928 2378 1081 2264 
Q 1234 2150 1697 2047 
L 1894 2003 
Q 2506 1872 2764 1633 
Q 3022 1394 3022 966 
Q 3022 478 2636 193 
Q 2250 -91 1575 -91 
Q 1294 -91 989 -36 
Q 684 19 347 128 
L 347 722 
Q 666 556 975 473 
Q 1284 391 1588 391 
Q 1994 391 2212 530 
Q 2431 669 2431 922 
Q 2431 1156 2273 1281 
Q 2116 1406 1581 1522 
L 1381 1569 
Q 847 1681 609 1914 
Q 372 2147 372 2553 
Q 372 3047 722 3315 
Q 1072 3584 1716 3584 
Q 2034 3584 2315 3537 
Q 2597 3491 2834 3397 
z
" transform="scale(0.015625)"/>
      </defs>
      <use xlink:href="#DejaVuSans-49"/>
      <use xlink:href="#DejaVuSans-4f" x="29.492188"/>
      <use xlink:href="#DejaVuSans-55" x="108.203125"/>
      <use xlink:href="#DejaVuSans-20" x="181.396484"/>
      <use xlink:href="#DejaVuSans-6c" x="213.183594"/>
      <use xlink:href="#DejaVuSans-6f" x="240.966797"/>
      <use xlink:href="#DejaVuSans-73" x="302.148438"/>
      <use xlink:href="#DejaVuSans-73" x="354.248047"/>
     </g>
    </g>
   </g>
   <g id="line2d_12">
    <path d="M 73.832727 122.066862 
L 76.440394 180.847946 
L 77.744228 183.3466 
L 79.048061 191.89591 
L 80.351895 202.615212 
L 81.655728 182.624528 
L 82.959562 206.596625 
L 84.263395 213.84609 
L 85.567229 216.62042 
L 86.871062 205.110527 
L 88.174896 209.383876 
L 89.478729 220.455648 
L 90.782563 220.380596 
L 92.086396 210.091576 
L 93.39023 214.033358 
L 94.694064 223.782784 
L 95.997897 214.234273 
L 97.301731 226.713171 
L 98.605564 213.162778 
L 99.909398 205.487241 
L 101.213231 199.98097 
L 102.517065 201.063207 
L 103.820898 148.872955 
L 105.124732 155.806967 
L 106.428565 128.323369 
L 107.732399 93.186445 
L 110.340066 159.378277 
L 111.643899 172.036459 
L 112.947733 166.024418 
L 114.251566 145.839352 
L 115.5554 145.663842 
L 116.859233 145.013484 
L 118.163067 147.093469 
L 119.4669 177.535618 
L 120.770734 180.753586 
L 122.074567 153.161111 
L 123.378401 184.384125 
L 124.682234 181.900713 
L 125.986068 185.762217 
L 127.289901 183.597743 
L 128.593735 190.011613 
L 129.897568 179.220888 
L 131.201402 178.25377 
L 132.505235 137.46076 
L 133.809069 174.462238 
L 135.112903 179.154401 
L 136.416736 175.879091 
L 137.72057 180.468763 
L 139.024403 178.040371 
L 140.328237 148.828097 
L 141.63207 178.900645 
L 142.935904 176.398652 
L 144.239737 189.055528 
L 145.543571 189.53299 
L 146.847404 191.317846 
L 148.151238 198.264197 
L 149.455071 203.157419 
L 150.758905 211.039387 
L 152.062738 220.093015 
L 153.366572 218.648145 
L 154.670405 220.804635 
L 155.974239 217.655187 
L 157.278072 193.446754 
L 158.581906 221.039519 
L 159.885739 218.975212 
L 162.493406 208.304106 
L 163.79724 212.109575 
L 166.404907 195.22232 
L 167.70874 179.229889 
L 169.012574 167.053813 
L 170.316407 171.730442 
L 171.620241 165.215825 
L 172.924074 134.39522 
L 174.227908 141.614199 
L 175.531742 93.831432 
L 176.835575 124.480447 
L 178.139409 74.818028 
L 179.443242 107.571126 
L 180.747076 92.176793 
L 182.050909 83.391582 
L 183.354743 89.322038 
L 184.658576 53.568 
L 185.96241 65.331214 
L 187.266243 61.579023 
L 188.570077 73.389562 
L 189.87391 67.713297 
L 191.177744 88.43999 
L 192.481577 100.874176 
L 193.785411 87.496389 
L 195.089244 109.041111 
L 196.393078 97.61469 
L 197.696911 100.404118 
L 199.000745 98.083441 
L 200.304578 128.555494 
L 201.608412 111.280928 
L 202.912245 114.300304 
L 204.216079 110.686169 
L 205.519912 145.353906 
L 206.823746 137.561653 
L 208.127579 155.652797 
L 209.431413 152.837528 
L 210.735246 150.801964 
L 212.03908 195.265435 
L 213.342913 197.291563 
L 214.646747 223.882515 
L 215.950581 232.456069 
L 217.254414 234.733049 
L 218.558248 228.88563 
L 219.862081 241.536264 
L 221.165915 246.399871 
L 223.773582 232.171972 
L 225.077415 234.003138 
L 226.381249 219.687122 
L 227.685082 192.625822 
L 228.988916 219.827356 
L 230.292749 200.800305 
L 231.596583 202.999039 
L 232.900416 204.732216 
L 234.20425 190.001161 
L 235.508083 177.486696 
L 236.811917 179.957767 
L 238.11575 150.78556 
L 239.419584 165.718401 
L 240.723417 135.560784 
L 242.027251 153.856907 
L 243.331084 150.391426 
L 244.634918 118.065996 
L 245.938751 133.150974 
L 247.242585 122.315682 
L 248.546418 139.55236 
L 249.850252 150.87513 
L 251.154085 125.904122 
L 252.457919 145.026258 
L 253.761752 153.774741 
L 255.065586 145.095504 
L 256.369419 140.679309 
L 257.673253 143.870275 
L 258.977087 151.60838 
L 260.28092 147.899449 
L 261.584754 150.102539 
L 262.888587 154.323191 
L 264.192421 167.092283 
L 265.496254 156.473294 
L 266.800088 138.387957 
L 268.103921 129.766642 
L 269.407755 161.050917 
L 270.711588 135.382371 
L 272.015422 123.207893 
L 273.319255 118.053221 
L 274.623089 132.441532 
L 275.926922 115.087267 
L 277.230756 130.204182 
L 278.534589 170.083206 
L 279.838423 168.68842 
L 281.142256 204.582691 
L 282.44609 212.024651 
L 283.749923 208.895671 
L 285.053757 203.999256 
L 286.35759 216.37552 
L 287.661424 216.009258 
L 288.965257 213.655483 
L 290.269091 189.043334 
L 291.572924 228.622438 
L 292.876758 213.739536 
L 294.180591 225.87177 
L 295.484425 235.23548 
L 296.788258 242.673955 
L 298.092092 251.803653 
L 299.395926 257.302086 
L 300.699759 253.115258 
L 302.003593 272.973693 
L 303.307426 276.318103 
L 304.61126 286.427693 
L 305.915093 271.355636 
L 307.218927 290.616699 
L 308.52276 293.489019 
L 309.826594 295.488 
L 311.130427 251.022207 
L 312.434261 259.949538 
L 313.738094 211.545737 
L 315.041928 230.757733 
L 316.345761 228.042196 
L 317.649595 206.085629 
L 318.953428 198.927621 
L 320.257262 183.67657 
L 321.561095 176.295146 
L 322.864929 175.862251 
L 324.168762 171.391037 
L 325.472596 160.261341 
L 326.776429 158.70411 
L 328.080263 161.793894 
L 329.384096 182.421291 
L 330.68793 180.668516 
L 331.991763 181.299422 
L 333.295597 184.381512 
L 335.903264 196.507068 
L 337.207097 213.868881 
L 338.510931 224.1444 
L 339.814765 232.194183 
L 341.118598 236.516309 
L 342.422432 270.082356 
L 343.726265 275.133376 
L 345.030099 287.356051 
L 346.333932 267.79289 
L 347.637766 269.362025 
L 348.941599 235.544836 
L 350.245433 281.209873 
L 351.549266 225.809347 
L 352.8531 222.693869 
L 354.156933 224.346766 
L 355.460767 206.696211 
L 356.7646 251.024965 
L 358.068434 243.663865 
L 359.372267 233.02731 
L 360.676101 225.380662 
L 361.979934 238.90086 
L 363.283768 240.255725 
L 364.587601 229.883524 
L 365.891435 220.482069 
L 367.195268 198.662397 
L 368.499102 201.34919 
L 369.802935 176.409685 
L 372.410602 153.472209 
L 373.714436 159.465669 
L 375.018269 145.281176 
L 376.322103 180.209781 
L 377.625936 180.254639 
L 378.92977 167.7409 
L 380.233604 129.975976 
L 381.537437 127.756483 
L 382.841271 128.99739 
L 384.145104 142.54967 
L 385.448938 143.283065 
L 386.752771 177.329477 
L 388.056605 171.089084 
L 389.360438 201.91956 
L 390.664272 172.718755 
L 391.968105 198.003909 
L 393.271939 217.094108 
L 394.575772 242.395521 
L 395.879606 250.063073 
L 397.183439 226.671508 
L 398.487273 236.149321 
L 398.487273 236.149321 
" clip-path="url(#p8049d0f674)" style="fill: none; stroke-dasharray: 1.5,2.475; stroke-dashoffset: 0; stroke: #000000; stroke-width: 1.5"/>
   </g>
   <g id="line2d_13">
    <path d="M 73.832727 138.457493 
L 75.136561 157.320937 
L 76.440394 170.423628 
L 77.744228 178.802801 
L 79.048061 188.030632 
L 80.351895 189.956594 
L 81.655728 196.601864 
L 82.959562 193.154383 
L 84.263395 199.842914 
L 85.567229 199.918692 
L 86.871062 199.384904 
L 88.174896 201.202424 
L 89.478729 206.169537 
L 90.782563 207.788465 
L 92.086396 210.033508 
L 94.694064 197.748266 
L 95.997897 201.732582 
L 97.301731 197.584224 
L 99.909398 184.256085 
L 101.213231 184.578942 
L 102.517065 181.959362 
L 103.820898 136.713138 
L 105.124732 146.268037 
L 106.428565 135.015528 
L 107.732399 142.936692 
L 109.036232 147.469893 
L 110.340066 153.5416 
L 111.643899 160.979349 
L 112.947733 161.916126 
L 114.251566 161.767183 
L 115.5554 159.512123 
L 116.859233 159.871997 
L 118.163067 165.043364 
L 119.4669 171.747863 
L 120.770734 165.316572 
L 122.074567 171.945583 
L 123.378401 172.969898 
L 124.682234 179.756127 
L 125.986068 177.345881 
L 127.289901 175.58672 
L 128.593735 174.153318 
L 129.897568 166.589707 
L 131.201402 160.970058 
L 132.505235 165.890572 
L 133.809069 169.727396 
L 135.112903 167.894779 
L 136.416736 170.63935 
L 137.72057 171.736249 
L 139.024403 171.553336 
L 140.328237 173.962856 
L 141.63207 179.635201 
L 142.935904 177.899847 
L 144.239737 177.119417 
L 145.543571 183.465493 
L 146.847404 193.870794 
L 148.151238 191.722143 
L 149.455071 201.741583 
L 150.758905 195.748704 
L 152.062738 212.240953 
L 153.366572 214.23195 
L 154.670405 218.15907 
L 155.974239 218.728859 
L 157.278072 220.79607 
L 158.581906 220.443454 
L 159.885739 220.446067 
L 161.189573 221.400555 
L 162.493406 224.576714 
L 163.79724 225.724278 
L 165.101073 221.14288 
L 166.404907 220.548702 
L 167.70874 216.635663 
L 169.012574 209.271805 
L 170.316407 205.285456 
L 171.620241 202.118442 
L 172.924074 190.486607 
L 174.227908 186.013941 
L 175.531742 170.952335 
L 176.835575 172.886716 
L 178.139409 162.691911 
L 179.443242 162.02181 
L 180.747076 151.586314 
L 182.050909 146.333073 
L 183.354743 144.175712 
L 184.658576 140.968051 
L 185.96241 144.437161 
L 187.266243 144.076561 
L 188.570077 143.511852 
L 189.87391 145.020016 
L 191.177744 151.723499 
L 192.481577 157.52911 
L 193.785411 152.311435 
L 195.089244 156.856541 
L 196.393078 158.765081 
L 197.696911 162.848404 
L 199.000745 157.684151 
L 200.304578 160.711221 
L 201.608412 166.25785 
L 202.912245 169.244854 
L 204.216079 168.226926 
L 205.519912 175.034786 
L 206.823746 174.285712 
L 208.127579 176.92431 
L 209.431413 183.588452 
L 212.03908 194.608544 
L 213.342913 195.943521 
L 214.646747 200.452189 
L 215.950581 205.850745 
L 217.254414 203.278636 
L 218.558248 206.38192 
L 219.862081 204.998166 
L 221.165915 206.354773 
L 222.469748 200.290761 
L 223.773582 198.102769 
L 226.381249 200.626392 
L 227.685082 187.986066 
L 228.988916 194.105678 
L 230.292749 193.937426 
L 231.596583 181.332085 
L 232.900416 185.24193 
L 234.20425 184.291362 
L 235.508083 173.481329 
L 236.811917 171.982601 
L 238.11575 159.483524 
L 239.419584 161.541444 
L 240.723417 147.137746 
L 242.027251 148.432076 
L 243.331084 142.775554 
L 244.634918 135.712196 
L 245.938751 140.186024 
L 247.242585 136.127961 
L 248.546418 135.119615 
L 251.154085 140.941194 
L 252.457919 140.344984 
L 253.761752 139.44566 
L 255.065586 141.70885 
L 256.369419 144.871798 
L 257.673253 154.292851 
L 258.977087 157.754413 
L 260.28092 163.38524 
L 261.584754 165.605024 
L 262.888587 164.293854 
L 264.192421 161.757892 
L 265.496254 160.903716 
L 266.800088 161.111888 
L 268.103921 156.549943 
L 269.407755 156.520183 
L 270.711588 148.039973 
L 272.015422 147.025675 
L 273.319255 140.852931 
L 274.623089 147.477007 
L 275.926922 135.899464 
L 277.230756 135.58677 
L 278.534589 209.989522 
L 279.838423 204.990617 
L 281.142256 207.662168 
L 282.44609 207.689314 
L 283.749923 204.968987 
L 285.053757 210.790857 
L 286.35759 217.440917 
L 287.661424 219.864664 
L 288.965257 220.116968 
L 290.269091 217.004103 
L 291.572924 224.782855 
L 292.876758 224.355476 
L 294.180591 232.194183 
L 295.484425 221.099039 
L 296.788258 238.191853 
L 298.092092 243.185242 
L 299.395926 244.41439 
L 300.699759 248.815198 
L 303.307426 265.811184 
L 304.61126 272.33698 
L 305.915093 272.263815 
L 307.218927 264.25105 
L 308.52276 277.243122 
L 309.826594 282.209944 
L 311.130427 263.706084 
L 312.434261 263.611289 
L 313.738094 258.290253 
L 315.041928 256.210412 
L 316.345761 251.224863 
L 317.649595 245.409381 
L 318.953428 245.457432 
L 320.257262 234.166308 
L 321.561095 227.444244 
L 322.864929 227.336383 
L 324.168762 215.741856 
L 325.472596 216.953294 
L 326.776429 214.336472 
L 328.080263 215.996483 
L 329.384096 223.221124 
L 331.991763 225.7131 
L 333.295597 225.489539 
L 334.59943 221.37878 
L 335.903264 220.306705 
L 337.207097 216.703602 
L 338.510931 223.538464 
L 341.118598 239.658499 
L 342.422432 243.803082 
L 343.726265 243.412577 
L 345.030099 251.328078 
L 346.333932 254.772801 
L 347.637766 256.991568 
L 348.941599 247.380344 
L 350.245433 238.61778 
L 351.549266 202.170123 
L 352.8531 199.610788 
L 354.156933 216.38452 
L 355.460767 217.135336 
L 356.7646 233.552823 
L 358.068434 238.177046 
L 359.372267 235.450186 
L 360.676101 236.494824 
L 361.979934 241.223859 
L 363.283768 239.855203 
L 364.587601 235.927212 
L 365.891435 223.17075 
L 367.195268 221.237966 
L 368.499102 217.750128 
L 369.802935 207.89531 
L 371.106769 199.623853 
L 372.410602 185.394213 
L 373.714436 192.908902 
L 375.018269 188.106846 
L 376.322103 188.547435 
L 378.92977 181.912472 
L 380.233604 183.324679 
L 381.537437 183.615453 
L 382.841271 179.20579 
L 384.145104 188.951587 
L 385.448938 192.413294 
L 386.752771 192.156344 
L 388.056605 208.824974 
L 389.360438 213.057675 
L 390.664272 219.706575 
L 391.968105 213.076838 
L 393.271939 217.624847 
L 394.575772 238.367218 
L 395.879606 244.519057 
L 397.183439 244.153957 
L 398.487273 236.670624 
L 398.487273 236.670624 
" clip-path="url(#p8049d0f674)" style="fill: none; stroke: #000000; stroke-width: 1.5; stroke-linecap: square"/>
   </g>
   <g id="patch_3">
    <path d="M 57.6 307.584 
L 57.6 41.472 
" style="fill: none; stroke: #000000; stroke-width: 0.8; stroke-linejoin: miter; stroke-linecap: square"/>
   </g>
   <g id="patch_4">
    <path d="M 414.72 307.584 
L 414.72 41.472 
" style="fill: none; stroke: #000000; stroke-width: 0.8; stroke-linejoin: miter; stroke-linecap: square"/>
   </g>
   <g id="patch_5">
    <path d="M 57.6 307.584 
L 414.72 307.584 
" style="fill: none; stroke: #000000; stroke-width: 0.8; stroke-linejoin: miter; stroke-linecap: square"/>
   </g>
   <g id="patch_6">
    <path d="M 57.6 41.472 
L 414.72 41.472 
" style="fill: none; stroke: #000000; stroke-width: 0.8; stroke-linejoin: miter; stroke-linecap: square"/>
   </g>
   <g id="legend_1">
    <g id="patch_7">
     <path d="M 150.7575 78.82825 
L 407.72 78.82825 
Q 409.72 78.82825 409.72 76.82825 
L 409.72 48.472 
Q 409.72 46.472 407.72 46.472 
L 150.7575 46.472 
Q 148.7575 46.472 148.7575 48.472 
L 148.7575 76.82825 
Q 148.7575 78.82825 150.7575 78.82825 
z
" style="fill: #ffffff; opacity: 0.8; stroke: #cccccc; stroke-linejoin: miter"/>
    </g>
    <g id="line2d_14">
     <path d="M 152.7575 54.570437 
L 162.7575 54.570437 
L 172.7575 54.570437 
" style="fill: none; stroke-dasharray: 1.5,2.475; stroke-dashoffset: 0; stroke: #000000; stroke-width: 1.5"/>
    </g>
    <g id="text_14">
     <!-- initial kinematic + LBS -->
     <g transform="translate(180.7575 58.070437) scale(0.1 -0.1)">
      <defs>
       <path id="DejaVuSans-74" d="M 1172 4494 
L 1172 3500 
L 2356 3500 
L 2356 3053 
L 1172 3053 
L 1172 1153 
Q 1172 725 1289 603 
Q 1406 481 1766 481 
L 2356 481 
L 2356 0 
L 1766 0 
Q 1100 0 847 248 
Q 594 497 594 1153 
L 594 3053 
L 172 3053 
L 172 3500 
L 594 3500 
L 594 4494 
L 1172 4494 
z
" transform="scale(0.015625)"/>
       <path id="DejaVuSans-6b" d="M 581 4863 
L 1159 4863 
L 1159 1991 
L 2875 3500 
L 3609 3500 
L 1753 1863 
L 3688 0 
L 2938 0 
L 1159 1709 
L 1159 0 
L 581 0 
L 581 4863 
z
" transform="scale(0.015625)"/>
       <path id="DejaVuSans-63" d="M 3122 3366 
L 3122 2828 
Q 2878 2963 2633 3030 
Q 2388 3097 2138 3097 
Q 1578 3097 1268 2742 
Q 959 2388 959 1747 
Q 959 1106 1268 751 
Q 1578 397 2138 397 
Q 2388 397 2633 464 
Q 2878 531 3122 666 
L 3122 134 
Q 2881 22 2623 -34 
Q 2366 -91 2075 -91 
Q 1284 -91 818 406 
Q 353 903 353 1747 
Q 353 2603 823 3093 
Q 1294 3584 2113 3584 
Q 2378 3584 2631 3529 
Q 2884 3475 3122 3366 
z
" transform="scale(0.015625)"/>
       <path id="DejaVuSans-2b" d="M 2944 4013 
L 2944 2272 
L 4684 2272 
L 4684 1741 
L 2944 1741 
L 2944 0 
L 2419 0 
L 2419 1741 
L 678 1741 
L 678 2272 
L 2419 2272 
L 2419 4013 
L 2944 4013 
z
" transform="scale(0.015625)"/>
       <path id="DejaVuSans-4c" d="M 628 4666 
L 1259 4666 
L 1259 531 
L 3531 531 
L 3531 0 
L 628 0 
L 628 4666 
z
" transform="scale(0.015625)"/>
       <path id="DejaVuSans-42" d="M 1259 2228 
L 1259 519 
L 2272 519 
Q 2781 519 3026 730 
Q 3272 941 3272 1375 
Q 3272 1813 3026 2020 
Q 2781 2228 2272 2228 
L 1259 2228 
z
M 1259 4147 
L 1259 2741 
L 2194 2741 
Q 2656 2741 2882 2914 
Q 3109 3088 3109 3444 
Q 3109 3797 2882 3972 
Q 2656 4147 2194 4147 
L 1259 4147 
z
M 628 4666 
L 2241 4666 
Q 2963 4666 3353 4366 
Q 3744 4066 3744 3513 
Q 3744 3084 3544 2831 
Q 3344 2578 2956 2516 
Q 3422 2416 3680 2098 
Q 3938 1781 3938 1306 
Q 3938 681 3513 340 
Q 3088 0 2303 0 
L 628 0 
L 628 4666 
z
" transform="scale(0.015625)"/>
       <path id="DejaVuSans-53" d="M 3425 4513 
L 3425 3897 
Q 3066 4069 2747 4153 
Q 2428 4238 2131 4238 
Q 1616 4238 1336 4038 
Q 1056 3838 1056 3469 
Q 1056 3159 1242 3001 
Q 1428 2844 1947 2747 
L 2328 2669 
Q 3034 2534 3370 2195 
Q 3706 1856 3706 1288 
Q 3706 609 3251 259 
Q 2797 -91 1919 -91 
Q 1588 -91 1214 -16 
Q 841 59 441 206 
L 441 856 
Q 825 641 1194 531 
Q 1563 422 1919 422 
Q 2459 422 2753 634 
Q 3047 847 3047 1241 
Q 3047 1584 2836 1778 
Q 2625 1972 2144 2069 
L 1759 2144 
Q 1053 2284 737 2584 
Q 422 2884 422 3419 
Q 422 4038 858 4394 
Q 1294 4750 2059 4750 
Q 2388 4750 2728 4690 
Q 3069 4631 3425 4513 
z
" transform="scale(0.015625)"/>
      </defs>
      <use xlink:href="#DejaVuSans-69"/>
      <use xlink:href="#DejaVuSans-6e" x="27.783203"/>
      <use xlink:href="#DejaVuSans-69" x="91.162109"/>
      <use xlink:href="#DejaVuSans-74" x="118.945312"/>
      <use xlink:href="#DejaVuSans-69" x="158.154297"/>
      <use xlink:href="#DejaVuSans-61" x="185.9375"/>
      <use xlink:href="#DejaVuSans-6c" x="247.216797"/>
      <use xlink:href="#DejaVuSans-20" x="275"/>
      <use xlink:href="#DejaVuSans-6b" x="306.787109"/>
      <use xlink:href="#DejaVuSans-69" x="364.697266"/>
      <use xlink:href="#DejaVuSans-6e" x="392.480469"/>
      <use xlink:href="#DejaVuSans-65" x="455.859375"/>
      <use xlink:href="#DejaVuSans-6d" x="517.382812"/>
      <use xlink:href="#DejaVuSans-61" x="614.794922"/>
      <use xlink:href="#DejaVuSans-74" x="676.074219"/>
      <use xlink:href="#DejaVuSans-69" x="715.283203"/>
      <use xlink:href="#DejaVuSans-63" x="743.066406"/>
      <use xlink:href="#DejaVuSans-20" x="798.046875"/>
      <use xlink:href="#DejaVuSans-2b" x="829.833984"/>
      <use xlink:href="#DejaVuSans-20" x="913.623047"/>
      <use xlink:href="#DejaVuSans-4c" x="945.410156"/>
      <use xlink:href="#DejaVuSans-42" x="1001.123047"/>
      <use xlink:href="#DejaVuSans-53" x="1067.976562"/>
     </g>
    </g>
    <g id="line2d_15">
     <path d="M 152.7575 69.248562 
L 162.7575 69.248562 
L 172.7575 69.248562 
" style="fill: none; stroke: #000000; stroke-width: 1.5; stroke-linecap: square"/>
    </g>
    <g id="text_15">
     <!-- updated kinematic + cloth-based membrane -->
     <g transform="translate(180.7575 72.748562) scale(0.1 -0.1)">
      <defs>
       <path id="DejaVuSans-75" d="M 544 1381 
L 544 3500 
L 1119 3500 
L 1119 1403 
Q 1119 906 1312 657 
Q 1506 409 1894 409 
Q 2359 409 2629 706 
Q 2900 1003 2900 1516 
L 2900 3500 
L 3475 3500 
L 3475 0 
L 2900 0 
L 2900 538 
Q 2691 219 2414 64 
Q 2138 -91 1772 -91 
Q 1169 -91 856 284 
Q 544 659 544 1381 
z
M 1991 3584 
L 1991 3584 
z
" transform="scale(0.015625)"/>
       <path id="DejaVuSans-70" d="M 1159 525 
L 1159 -1331 
L 581 -1331 
L 581 3500 
L 1159 3500 
L 1159 2969 
Q 1341 3281 1617 3432 
Q 1894 3584 2278 3584 
Q 2916 3584 3314 3078 
Q 3713 2572 3713 1747 
Q 3713 922 3314 415 
Q 2916 -91 2278 -91 
Q 1894 -91 1617 61 
Q 1341 213 1159 525 
z
M 3116 1747 
Q 3116 2381 2855 2742 
Q 2594 3103 2138 3103 
Q 1681 3103 1420 2742 
Q 1159 2381 1159 1747 
Q 1159 1113 1420 752 
Q 1681 391 2138 391 
Q 2594 391 2855 752 
Q 3116 1113 3116 1747 
z
" transform="scale(0.015625)"/>
       <path id="DejaVuSans-68" d="M 3513 2113 
L 3513 0 
L 2938 0 
L 2938 2094 
Q 2938 2591 2744 2837 
Q 2550 3084 2163 3084 
Q 1697 3084 1428 2787 
Q 1159 2491 1159 1978 
L 1159 0 
L 581 0 
L 581 4863 
L 1159 4863 
L 1159 2956 
Q 1366 3272 1645 3428 
Q 1925 3584 2291 3584 
Q 2894 3584 3203 3211 
Q 3513 2838 3513 2113 
z
" transform="scale(0.015625)"/>
       <path id="DejaVuSans-2d" d="M 313 2009 
L 1997 2009 
L 1997 1497 
L 313 1497 
L 313 2009 
z
" transform="scale(0.015625)"/>
       <path id="DejaVuSans-62" d="M 3116 1747 
Q 3116 2381 2855 2742 
Q 2594 3103 2138 3103 
Q 1681 3103 1420 2742 
Q 1159 2381 1159 1747 
Q 1159 1113 1420 752 
Q 1681 391 2138 391 
Q 2594 391 2855 752 
Q 3116 1113 3116 1747 
z
M 1159 2969 
Q 1341 3281 1617 3432 
Q 1894 3584 2278 3584 
Q 2916 3584 3314 3078 
Q 3713 2572 3713 1747 
Q 3713 922 3314 415 
Q 2916 -91 2278 -91 
Q 1894 -91 1617 61 
Q 1341 213 1159 525 
L 1159 0 
L 581 0 
L 581 4863 
L 1159 4863 
L 1159 2969 
z
" transform="scale(0.015625)"/>
      </defs>
      <use xlink:href="#DejaVuSans-75"/>
      <use xlink:href="#DejaVuSans-70" x="63.378906"/>
      <use xlink:href="#DejaVuSans-64" x="126.855469"/>
      <use xlink:href="#DejaVuSans-61" x="190.332031"/>
      <use xlink:href="#DejaVuSans-74" x="251.611328"/>
      <use xlink:href="#DejaVuSans-65" x="290.820312"/>
      <use xlink:href="#DejaVuSans-64" x="352.34375"/>
      <use xlink:href="#DejaVuSans-20" x="415.820312"/>
      <use xlink:href="#DejaVuSans-6b" x="447.607422"/>
      <use xlink:href="#DejaVuSans-69" x="505.517578"/>
      <use xlink:href="#DejaVuSans-6e" x="533.300781"/>
      <use xlink:href="#DejaVuSans-65" x="596.679688"/>
      <use xlink:href="#DejaVuSans-6d" x="658.203125"/>
      <use xlink:href="#DejaVuSans-61" x="755.615234"/>
      <use xlink:href="#DejaVuSans-74" x="816.894531"/>
      <use xlink:href="#DejaVuSans-69" x="856.103516"/>
      <use xlink:href="#DejaVuSans-63" x="883.886719"/>
      <use xlink:href="#DejaVuSans-20" x="938.867188"/>
      <use xlink:href="#DejaVuSans-2b" x="970.654297"/>
      <use xlink:href="#DejaVuSans-20" x="1054.443359"/>
      <use xlink:href="#DejaVuSans-63" x="1086.230469"/>
      <use xlink:href="#DejaVuSans-6c" x="1141.210938"/>
      <use xlink:href="#DejaVuSans-6f" x="1168.994141"/>
      <use xlink:href="#DejaVuSans-74" x="1230.175781"/>
      <use xlink:href="#DejaVuSans-68" x="1269.384766"/>
      <use xlink:href="#DejaVuSans-2d" x="1332.763672"/>
      <use xlink:href="#DejaVuSans-62" x="1368.847656"/>
      <use xlink:href="#DejaVuSans-61" x="1432.324219"/>
      <use xlink:href="#DejaVuSans-73" x="1493.603516"/>
      <use xlink:href="#DejaVuSans-65" x="1545.703125"/>
      <use xlink:href="#DejaVuSans-64" x="1607.226562"/>
      <use xlink:href="#DejaVuSans-20" x="1670.703125"/>
      <use xlink:href="#DejaVuSans-6d" x="1702.490234"/>
      <use xlink:href="#DejaVuSans-65" x="1799.902344"/>
      <use xlink:href="#DejaVuSans-6d" x="1861.425781"/>
      <use xlink:href="#DejaVuSans-62" x="1958.837891"/>
      <use xlink:href="#DejaVuSans-72" x="2022.314453"/>
      <use xlink:href="#DejaVuSans-61" x="2063.427734"/>
      <use xlink:href="#DejaVuSans-6e" x="2124.707031"/>
      <use xlink:href="#DejaVuSans-65" x="2188.085938"/>
     </g>
    </g>
   </g>
  </g>
 </g>
 <defs>
  <clipPath id="p8049d0f674">
   <rect x="57.6" y="41.472" width="357.12" height="266.112"/>
  </clipPath>
 </defs>
</svg>
